<?xml version="1.0" encoding="utf-8"?>
<!-- Generator: Adobe Illustrator 22.0.1, SVG Export Plug-In . SVG Version: 6.00 Build 0)  -->
<svg version="1.1" xmlns="http://www.w3.org/2000/svg" xmlns:xlink="http://www.w3.org/1999/xlink" x="0px" y="0px"
	 viewBox="0 0 220 150" enable-background="new 0 0 220 150" xml:space="preserve">
<g id="圖層_2">
	<rect fill="#FFFBF7" width="220" height="150"/>
</g>
<g id="圖層_3">
	<g>
		<polygon fill="#F0F0F0" points="155.828,79.991 60.908,78.127 62.017,21.641 77.976,14.078 157.092,15.632 		"/>
		<polygon fill="#CAE2FC" points="156.469,79.065 61.531,79.065 61.531,22.98 78.551,14.693 156.469,14.693 		"/>
		<polygon fill="#A9D1FC" points="150.091,74.295 66.97,73.218 68.233,22.914 74.407,18.534 151.03,19.647 		"/>
		<polygon fill="#FFFFFF" points="151.03,73.218 66.97,73.218 66.97,23.936 72.049,19.647 151.03,19.647 		"/>
		<path opacity="0.1" d="M61.531,22.98l6.87,4.436c0.318,0.205,0.741,0.127,0.965-0.178l9.185-12.545L61.531,22.98z"/>
		<path fill="#A9D1FC" d="M61.531,22.98l6.803,2.973c0.463,0.202,1.003,0.071,1.322-0.321l8.895-10.939L61.531,22.98z"/>
		
			<text transform="matrix(1 0 0 1 78.6621 58.5708)" fill="#FF765E" font-family="'PingFangTC-Semibold-B5pc-H'" font-size="33.7284px">404</text>
		<g>
			<circle opacity="0.1" cx="151.455" cy="20.008" r="1.626"/>
			<circle fill="#66A1E3" cx="151.306" cy="19.647" r="1.626"/>
			<path fill="#78B3F5" d="M152.222,19.647c0,0.506-0.41,0.916-0.916,0.916c-0.506,0-0.916-0.41-0.916-0.916
				c0-0.506,0.41-0.916,0.916-0.916C151.812,18.731,152.222,19.141,152.222,19.647z"/>
			<g>
				<path fill="#A8D1FF" d="M151.401,18.834c0.238,0,0.453,0.093,0.616,0.242c-0.168-0.209-0.423-0.346-0.712-0.346
					c-0.506,0-0.916,0.41-0.916,0.916c0,0.268,0.117,0.507,0.3,0.674c-0.126-0.157-0.205-0.354-0.205-0.571
					C150.485,19.244,150.895,18.834,151.401,18.834z"/>
			</g>
		</g>
		<g>
			<circle opacity="0.1" cx="152.297" cy="75.447" r="1.626"/>
			<circle fill="#66A1E3" cx="152.148" cy="75.086" r="1.626"/>
			<path fill="#78B3F5" d="M153.064,75.086c0,0.506-0.41,0.916-0.916,0.916c-0.506,0-0.916-0.41-0.916-0.916
				c0-0.506,0.41-0.916,0.916-0.916C152.654,74.169,153.064,74.58,153.064,75.086z"/>
			<g>
				<path fill="#A8D1FF" d="M152.243,74.273c0.238,0,0.453,0.093,0.616,0.242c-0.168-0.209-0.423-0.346-0.712-0.346
					c-0.506,0-0.916,0.41-0.916,0.916c0,0.268,0.117,0.507,0.3,0.674c-0.126-0.157-0.205-0.354-0.205-0.571
					C151.327,74.683,151.737,74.273,152.243,74.273z"/>
			</g>
		</g>
		<g>
			<circle opacity="0.1" cx="67.045" cy="73.641" r="1.626"/>
			<circle fill="#66A1E3" cx="66.896" cy="73.28" r="1.626"/>
			<path fill="#78B3F5" d="M67.812,73.28c0,0.506-0.41,0.916-0.916,0.916c-0.506,0-0.916-0.41-0.916-0.916
				c0-0.506,0.41-0.916,0.916-0.916C67.402,72.363,67.812,72.774,67.812,73.28z"/>
			<g>
				<path fill="#A8D1FF" d="M66.992,72.467c0.238,0,0.453,0.093,0.616,0.242c-0.168-0.209-0.423-0.346-0.712-0.346
					c-0.506,0-0.916,0.41-0.916,0.916c0,0.268,0.117,0.507,0.3,0.674c-0.126-0.157-0.205-0.354-0.205-0.571
					C66.075,72.877,66.485,72.467,66.992,72.467z"/>
			</g>
		</g>
	</g>
	
		<radialGradient id="SVGID_1_" cx="108.988" cy="110.3132" r="85.01" gradientTransform="matrix(1.1788 0 0 0.0577 -20.0762 103.9438)" gradientUnits="userSpaceOnUse">
		<stop  offset="0" style="stop-color:#E8E8D0"/>
		<stop  offset="1" style="stop-color:#FFFFFF"/>
	</radialGradient>
	<rect x="6" y="109.768" fill="url(#SVGID_1_)" width="206" height="9.25"/>
	<g>
		<g>
			<g>
				
					<linearGradient id="SVGID_2_" gradientUnits="userSpaceOnUse" x1="52.7278" y1="69.3436" x2="54.1335" y2="84.0308" gradientTransform="matrix(0.9643 0.2648 -0.2648 0.9643 22.9015 1.4591)">
					<stop  offset="0" style="stop-color:#A1D685"/>
					<stop  offset="1" style="stop-color:#71C782"/>
				</linearGradient>
				<path fill="url(#SVGID_2_)" d="M51.02,101.379c0,0-1.125-13.552,0.882-16.636c1.868-2.869,6.906-1.469,5.916,3.155
					c-0.643,3.006-3.546,13.12-3.546,13.12L51.02,101.379z"/>
				<g>
					<path fill="#ADE68F" d="M53.01,85.048c0.724-1.112,1.924-1.58,3.064-1.47c-1.39-0.657-3.205-0.319-4.172,1.166
						c-2.007,3.083-0.882,16.636-0.882,16.636l1.075-0.119C51.926,98.959,51.212,87.809,53.01,85.048z"/>
				</g>
			</g>
			
				<line fill="none" stroke="#88BD6D" stroke-width="0.6537" stroke-linecap="round" stroke-linejoin="round" stroke-miterlimit="10" x1="52.978" y1="84.089" x2="52.416" y2="82.981"/>
			
				<line fill="none" stroke="#88BD6D" stroke-width="0.6537" stroke-linecap="round" stroke-linejoin="round" stroke-miterlimit="10" x1="55.099" y1="83.718" x2="55.211" y2="82.48"/>
			
				<line fill="none" stroke="#88BD6D" stroke-width="0.6537" stroke-linecap="round" stroke-linejoin="round" stroke-miterlimit="10" x1="56.769" y1="84.654" x2="57.338" y2="83.549"/>
			
				<line fill="none" stroke="#88BD6D" stroke-width="0.6537" stroke-linecap="round" stroke-linejoin="round" stroke-miterlimit="10" x1="57.533" y1="86.138" x2="58.422" y2="85.27"/>
			
				<line fill="none" stroke="#88BD6D" stroke-width="0.6537" stroke-linecap="round" stroke-linejoin="round" stroke-miterlimit="10" x1="56.455" y1="90.581" x2="57.65" y2="90.923"/>
			
				<line fill="none" stroke="#88BD6D" stroke-width="0.6537" stroke-linecap="round" stroke-linejoin="round" stroke-miterlimit="10" x1="56.066" y1="92.684" x2="57.247" y2="92.297"/>
			
				<line fill="none" stroke="#88BD6D" stroke-width="0.6537" stroke-linecap="round" stroke-linejoin="round" stroke-miterlimit="10" x1="55.728" y1="94.058" x2="56.572" y2="94.184"/>
			
				<line fill="none" stroke="#88BD6D" stroke-width="0.6537" stroke-linecap="round" stroke-linejoin="round" stroke-miterlimit="10" x1="57.48" y1="87.678" x2="58.447" y2="87.19"/>
			
				<line fill="none" stroke="#88BD6D" stroke-width="0.6537" stroke-linecap="round" stroke-linejoin="round" stroke-miterlimit="10" x1="56.936" y1="89.213" x2="58.019" y2="89.195"/>
			
				<line fill="none" stroke="#88BD6D" stroke-width="0.6537" stroke-linecap="round" stroke-linejoin="round" stroke-miterlimit="10" x1="52.373" y1="85.362" x2="51.341" y2="84.67"/>
		</g>
		<g>
			<g>
				<linearGradient id="SVGID_3_" gradientUnits="userSpaceOnUse" x1="47.0524" y1="83.5528" x2="48.2848" y2="96.4295">
					<stop  offset="0.1134" style="stop-color:#A1D685"/>
					<stop  offset="1" style="stop-color:#71C782"/>
				</linearGradient>
				<path fill="url(#SVGID_3_)" d="M47.411,99.601c0,0-5.363-14.651-4.078-18.672c1.195-3.741,7.194-3.723,7.504,1.693
					c0.201,3.521,0.063,15.592,0.063,15.592L47.411,99.601z"/>
				<g>
					<path fill="#ADE68F" d="M44.65,80.928c0.463-1.45,1.648-2.332,2.943-2.557c-1.737-0.305-3.642,0.621-4.261,2.557
						c-1.284,4.021,4.078,18.672,4.078,18.672l1.153-0.459C47.678,96.648,43.5,84.53,44.65,80.928z"/>
				</g>
			</g>
			
				<line fill="none" stroke="#88BD6D" stroke-width="0.75" stroke-linecap="round" stroke-linejoin="round" stroke-miterlimit="10" x1="44.092" y1="86.364" x2="42.903" y2="86.364"/>
			
				<line fill="none" stroke="#88BD6D" stroke-width="0.75" stroke-linecap="round" stroke-linejoin="round" stroke-miterlimit="10" x1="44.555" y1="88.834" x2="43.134" y2="88.956"/>
			
				<line fill="none" stroke="#88BD6D" stroke-width="0.75" stroke-linecap="round" stroke-linejoin="round" stroke-miterlimit="10" x1="45.22" y1="91.113" x2="43.89" y2="91.627"/>
			
				<line fill="none" stroke="#88BD6D" stroke-width="0.75" stroke-linecap="round" stroke-linejoin="round" stroke-miterlimit="10" x1="44.324" y1="79.878" x2="43.365" y2="78.823"/>
			
				<line fill="none" stroke="#88BD6D" stroke-width="0.75" stroke-linecap="round" stroke-linejoin="round" stroke-miterlimit="10" x1="46.558" y1="78.823" x2="46.306" y2="77.419"/>
			
				<line fill="none" stroke="#88BD6D" stroke-width="0.75" stroke-linecap="round" stroke-linejoin="round" stroke-miterlimit="10" x1="48.69" y1="79.35" x2="48.983" y2="77.955"/>
			
				<line fill="none" stroke="#88BD6D" stroke-width="0.75" stroke-linecap="round" stroke-linejoin="round" stroke-miterlimit="10" x1="49.985" y1="80.76" x2="50.706" y2="79.53"/>
			
				<line fill="none" stroke="#88BD6D" stroke-width="0.75" stroke-linecap="round" stroke-linejoin="round" stroke-miterlimit="10" x1="50.143" y1="86.003" x2="51.569" y2="86.019"/>
			
				<line fill="none" stroke="#88BD6D" stroke-width="0.75" stroke-linecap="round" stroke-linejoin="round" stroke-miterlimit="10" x1="50.352" y1="88.449" x2="51.54" y2="87.661"/>
			
				<line fill="none" stroke="#88BD6D" stroke-width="0.75" stroke-linecap="round" stroke-linejoin="round" stroke-miterlimit="10" x1="50.395" y1="90.071" x2="51.367" y2="89.954"/>
			
				<line fill="none" stroke="#88BD6D" stroke-width="0.75" stroke-linecap="round" stroke-linejoin="round" stroke-miterlimit="10" x1="50.395" y1="82.48" x2="51.317" y2="81.647"/>
			
				<line fill="none" stroke="#88BD6D" stroke-width="0.75" stroke-linecap="round" stroke-linejoin="round" stroke-miterlimit="10" x1="50.259" y1="84.344" x2="51.453" y2="83.995"/>
			
				<line fill="none" stroke="#88BD6D" stroke-width="0.75" stroke-linecap="round" stroke-linejoin="round" stroke-miterlimit="10" x1="44.041" y1="81.47" x2="42.689" y2="81.017"/>
			
				<line fill="none" stroke="#88BD6D" stroke-width="0.75" stroke-linecap="round" stroke-linejoin="round" stroke-miterlimit="10" x1="43.843" y1="83.328" x2="42.425" y2="83.474"/>
			<circle fill="#88BD6D" cx="45.48" cy="81.439" r="0.26"/>
			<path fill="#88BD6D" d="M48.043,82.655c0,0.24-0.195,0.434-0.434,0.434c-0.24,0-0.434-0.195-0.434-0.434s0.195-0.434,0.434-0.434
				C47.849,82.22,48.043,82.415,48.043,82.655z"/>
			<path fill="#88BD6D" d="M49.665,87.282c-0.278,0.378-0.81,0.46-1.188,0.182c-0.378-0.278-0.46-0.81-0.182-1.188
				c0.278-0.378,0.81-0.46,1.188-0.182S49.943,86.904,49.665,87.282z"/>
			<path fill="#88BD6D" d="M48.112,90.631c-0.195,0.266-0.524,0.358-0.733,0.204c-0.209-0.154-0.22-0.494-0.025-0.76
				c0.196-0.266,0.524-0.358,0.733-0.204C48.296,90.024,48.307,90.364,48.112,90.631z"/>
			<circle fill="#88BD6D" cx="46.677" cy="84.366" r="0.371"/>
		</g>
		<g>
			<polygon fill="#A87C56" points="43.134,97.04 44.387,111.092 46.257,111.092 46.125,110.361 49.511,110.361 49.575,111.092 
				52.47,111.092 52.626,110.361 55.28,110.361 55.241,111.092 56.932,111.092 58.185,97.04 			"/>
			<polygon fill="#BA8A60" points="45.675,97.04 43.134,97.04 44.387,111.092 46.257,111.092 46.125,110.361 47.097,110.361 			"/>
			<linearGradient id="SVGID_4_" gradientUnits="userSpaceOnUse" x1="43.1343" y1="98.2266" x2="58.1847" y2="98.2266">
				<stop  offset="0" style="stop-color:#805E41"/>
				<stop  offset="1" style="stop-color:#A87C56"/>
			</linearGradient>
			<polygon fill="url(#SVGID_4_)" points="43.267,98.534 57.973,99.413 58.185,97.04 43.134,97.04 			"/>
			<polygon fill="#D68E4F" points="58.405,98.248 58.633,95.689 42.686,95.689 42.914,98.248 			"/>
			<polygon fill="#E3A874" points="45.194,95.689 42.686,95.689 42.914,98.248 45.499,98.248 			"/>
		</g>
	</g>
	<g>
		<g>
			<path fill="#777777" d="M30.354,125.271h3.072c1.578,0,2.649,0.888,2.649,2.3c0,1.613-1.222,2.354-2.687,2.354h-1.428v2.773
				h-1.607V125.271z M31.961,128.646h1.226c0.743,0,1.269-0.286,1.269-1.045c0-0.766-0.554-1.052-1.235-1.052h-1.259V128.646z"/>
			<path fill="#777777" d="M37.205,124.835h1.544v1.377h-1.544V124.835z M37.205,127.122h1.544v5.576h-1.544V127.122z"/>
			<path fill="#777777" d="M44.965,130.896c-0.192,0.929-0.845,1.931-2.507,1.931c-1.735,0-2.627-1.2-2.627-2.876
				c0-1.647,1.004-2.958,2.702-2.958c1.88,0,2.402,1.349,2.433,1.979h-1.507c-0.095-0.454-0.353-0.771-0.956-0.771
				c-0.706,0-1.105,0.618-1.105,1.699c0,1.188,0.423,1.729,1.099,1.729c0.53,0,0.815-0.313,0.953-0.732H44.965z"/>
			<path fill="#777777" d="M45.401,127.122h0.859v-1.51h1.544v1.51h1.092v1.161h-1.092v2.752c0,0.423,0.129,0.587,0.589,0.587
				c0.086,0,0.236-0.001,0.352-0.017v1.062c-0.306,0.104-0.726,0.106-1.038,0.106c-1.088,0-1.447-0.582-1.447-1.558v-2.933h-0.859
				V127.122z"/>
			<path fill="#777777" d="M54.766,131.078c0,0.537,0.001,1.121,0.011,1.62h-1.513c-0.021-0.149-0.032-0.448-0.042-0.644
				c-0.331,0.56-0.823,0.772-1.535,0.772c-1.136,0-1.861-0.69-1.861-2.073v-3.632h1.542v3.323c0,0.615,0.191,1.124,0.859,1.124
				c0.704,0,0.995-0.375,0.995-1.479v-2.968h1.544V131.078z"/>
			<path fill="#777777" d="M56.158,128.635c0-0.554-0.001-1.046-0.011-1.513h1.514c0.02,0.125,0.041,0.679,0.041,0.979
				c0.246-0.638,0.84-1.104,1.789-1.108v1.473c-1.121-0.028-1.789,0.272-1.789,1.802v2.431h-1.544V128.635z"/>
			<path fill="#777777" d="M61.637,130.24c0.001,0.697,0.351,1.379,1.119,1.379c0.643,0,0.826-0.258,0.973-0.595h1.545
				c-0.198,0.683-0.807,1.803-2.559,1.803c-1.836,0-2.633-1.373-2.633-2.836c0-1.749,0.897-2.998,2.688-2.998
				c1.915,0,2.566,1.385,2.566,2.777c0,0.188,0,0.311-0.021,0.47H61.637z M63.791,129.292c-0.011-0.649-0.27-1.195-1.022-1.195
				c-0.74,0-1.038,0.51-1.099,1.195H63.791z"/>
			<path fill="#777777" d="M69.012,128.527c0-0.475,0-0.993-0.011-1.405h1.495c0.031,0.145,0.051,0.531,0.06,0.711
				c0.189-0.351,0.641-0.84,1.618-0.84c1.12,0,1.848,0.757,1.848,2.158v3.547h-1.544v-3.376c0-0.627-0.209-1.081-0.89-1.081
				c-0.656,0-1.031,0.365-1.031,1.35v3.107h-1.544V128.527z"/>
			<path fill="#777777" d="M80.581,129.899c0,1.688-1.01,2.928-2.776,2.928c-1.729,0-2.738-1.233-2.738-2.897
				c0-1.721,1.041-2.937,2.812-2.937C79.519,126.993,80.581,128.151,80.581,129.899z M76.633,129.91
				c0,1.073,0.462,1.709,1.206,1.709c0.756,0,1.176-0.636,1.176-1.699c0-1.167-0.428-1.719-1.197-1.719
				C77.101,128.201,76.633,128.731,76.633,129.91z"/>
			<path fill="#777777" d="M81.103,127.122h0.859v-1.51h1.544v1.51h1.092v1.161h-1.092v2.752c0,0.423,0.129,0.587,0.589,0.587
				c0.086,0,0.236-0.001,0.352-0.017v1.062c-0.306,0.104-0.726,0.106-1.038,0.106c-1.088,0-1.447-0.582-1.447-1.558v-2.933h-0.859
				V127.122z"/>
			<path fill="#777777" d="M88.376,132.698v-4.415h-0.812v-1.161h0.812v-0.489c0-1.152,0.572-1.906,1.778-1.906
				c0.256,0,0.579,0.023,0.717,0.066v1.219c-0.085-0.015-0.202-0.026-0.326-0.026c-0.455,0-0.626,0.168-0.626,0.764v0.373h0.975
				v1.161H89.92v4.415H88.376z"/>
			<path fill="#777777" d="M96.908,129.899c0,1.688-1.01,2.928-2.776,2.928c-1.729,0-2.738-1.233-2.738-2.897
				c0-1.721,1.041-2.937,2.812-2.937C95.846,126.993,96.908,128.151,96.908,129.899z M92.96,129.91c0,1.073,0.462,1.709,1.206,1.709
				c0.756,0,1.176-0.636,1.176-1.699c0-1.167-0.428-1.719-1.197-1.719C93.428,128.201,92.96,128.731,92.96,129.91z"/>
			<path fill="#777777" d="M102.883,131.078c0,0.537,0.001,1.121,0.011,1.62h-1.513c-0.021-0.149-0.032-0.448-0.042-0.644
				c-0.331,0.56-0.823,0.772-1.535,0.772c-1.136,0-1.861-0.69-1.861-2.073v-3.632h1.542v3.323c0,0.615,0.191,1.124,0.859,1.124
				c0.704,0,0.995-0.375,0.995-1.479v-2.968h1.544V131.078z"/>
			<path fill="#777777" d="M104.284,128.527c0-0.475,0-0.993-0.011-1.405h1.495c0.031,0.145,0.051,0.531,0.06,0.711
				c0.189-0.351,0.641-0.84,1.618-0.84c1.12,0,1.848,0.757,1.848,2.158v3.547h-1.544v-3.376c0-0.627-0.209-1.081-0.89-1.081
				c-0.656,0-1.031,0.365-1.031,1.35v3.107h-1.544V128.527z"/>
			<path fill="#777777" d="M115.781,124.835v6.331c0,0.508,0,1.022,0.011,1.532h-1.484c-0.031-0.167-0.061-0.455-0.07-0.582
				c-0.269,0.438-0.749,0.711-1.582,0.711c-1.409,0-2.307-1.132-2.307-2.871c0-1.716,0.954-2.963,2.533-2.963
				c0.802,0,1.233,0.283,1.356,0.532v-2.69H115.781z M111.934,129.915c0,1.087,0.424,1.676,1.18,1.676
				c1.062,0,1.184-0.886,1.184-1.687c0-0.953-0.135-1.675-1.144-1.675C112.343,128.229,111.934,128.862,111.934,129.915z"/>
			<path fill="#777777" d="M116.983,132.698v-1.893h1.657v1.893H116.983z"/>
		</g>
	</g>
	<g>
		<g>
			
				<linearGradient id="SVGID_5_" gradientUnits="userSpaceOnUse" x1="155.1093" y1="116.565" x2="149.771" y2="90.1403" gradientTransform="matrix(0.997 -0.0771 0.0771 0.997 -7.0696 26.1394)">
				<stop  offset="0" style="stop-color:#FFDA5E"/>
				<stop  offset="1" style="stop-color:#E89540"/>
			</linearGradient>
			<path fill="url(#SVGID_5_)" d="M154.634,135.678c-5.973,0.462-11.756-2.015-15.657-6.871c-0.969-1.207-0.776-2.97,0.43-3.94
				c1.205-0.969,2.97-0.778,3.94,0.43c3.858,4.802,9.369,5.412,13.235,4.385c4.182-1.112,7.041-4.069,7.649-7.911
				c0.971-6.136-2.123-10.942-4.853-15.182c-1.525-2.368-2.842-4.413-3.318-6.516c-0.342-1.51,0.604-3.011,2.114-3.353
				c1.51-0.342,3.011,0.604,3.352,2.114c0.258,1.139,1.379,2.879,2.564,4.722c2.946,4.577,6.981,10.845,5.676,19.092
				c-0.95,6.007-5.451,10.778-11.744,12.451C156.895,135.398,155.761,135.59,154.634,135.678z"/>
		</g>
		<linearGradient id="SVGID_6_" gradientUnits="userSpaceOnUse" x1="121.0327" y1="97.882" x2="121.0327" y2="129.1222">
			<stop  offset="0" style="stop-color:#FFDA5E"/>
			<stop  offset="1" style="stop-color:#E89540"/>
		</linearGradient>
		<path fill="url(#SVGID_6_)" d="M159.545,88.155c-6.468-11.091-23.143-11.496-30.824-8.464c-7.681,3.032-18.331,7.328-20.584,7.175
			c-10.24-0.696-23.651,11.016-23.651,11.016s-4.881,3.032-4.881,7.175s2.384,5.255,4.881,5.255c1.544,0,25.473,0,45.163,0
			c-1.4,0.587-2.761,1.359-2.494,2.072c0.606,1.62,3.925,1.823,7.098,1.141c2.831-0.609,21.31-0.747,25.342-5.688
			C164.245,102.139,162.497,93.216,159.545,88.155z"/>
		<path opacity="0.31" fill="#874732" d="M114.807,85.047l-30.32,12.835c0,0,2.181,6.712,11.797,8.344
			c-0.001,0-0.01,0.001-0.01,0.001c2.14,0.246,4.027,2.2,3.934,4.085h2.405c0,0,0.61-3.434,4.444-4.381c0,0,0.004-0.005,0.004-0.005
			C122.093,102.764,114.807,85.047,114.807,85.047z"/>
		<g>
			<g>
				<g>
					
						<linearGradient id="SVGID_7_" gradientUnits="userSpaceOnUse" x1="86.8893" y1="33.57" x2="86.8893" y2="58.3408" gradientTransform="matrix(0.8959 -0.4443 0.4443 0.8959 -7.68 84.7952)">
						<stop  offset="0" style="stop-color:#FFDA5E"/>
						<stop  offset="1" style="stop-color:#E89540"/>
					</linearGradient>
					<path fill="url(#SVGID_7_)" d="M84.754,88.003c0,0-4.395-7.813-4.198-15.193c0.024-0.908,0.852-1.58,1.744-1.406
						c2.141,0.418,6.043,1.747,9.503,5.977L84.754,88.003z"/>
					<path opacity="0.5" fill="#FF7C4F" d="M85.289,84.063c0,0-2.615-4.649-2.498-9.04c0.014-0.541,0.507-0.94,1.037-0.837
						c1.274,0.249,3.596,1.039,5.655,3.556L85.289,84.063z"/>
				</g>
			</g>
			<g>
				<g>
					
						<linearGradient id="SVGID_8_" gradientUnits="userSpaceOnUse" x1="457.0526" y1="113.8178" x2="457.0526" y2="138.5897" gradientTransform="matrix(-0.9993 0.0365 0.0365 0.9993 556.0387 -58.8182)">
						<stop  offset="0" style="stop-color:#FFDA5E"/>
						<stop  offset="1" style="stop-color:#E89540"/>
					</linearGradient>
					<path fill="url(#SVGID_8_)" d="M109.342,81.765c0,0,0.139-8.964-3.552-15.357c-0.454-0.787-1.502-0.983-2.203-0.405
						c-1.683,1.388-4.479,4.416-5.505,9.784L109.342,81.765z"/>
					<path opacity="0.5" fill="#FF7C4F" d="M106.993,78.556c0,0,0.083-5.334-2.113-9.138c-0.27-0.468-0.894-0.585-1.311-0.241
						c-1.002,0.826-2.665,2.628-3.275,5.822L106.993,78.556z"/>
				</g>
			</g>
		</g>
		
			<linearGradient id="SVGID_9_" gradientUnits="userSpaceOnUse" x1="93.9206" y1="87.4639" x2="93.9206" y2="133.3386" gradientTransform="matrix(0.9693 -0.2459 0.2459 0.9693 -15.4492 23.3879)">
			<stop  offset="0" style="stop-color:#FFDA5E"/>
			<stop  offset="1" style="stop-color:#E89540"/>
		</linearGradient>
		<path fill="url(#SVGID_9_)" d="M94.413,74.497c-8.875,2.252-13.643,13.09-10.422,21.99c3.222,8.9,12.394,8.58,17.828,7.201
			c5.434-1.378,13.649-5.47,12.238-14.829C112.646,79.5,103.287,72.245,94.413,74.497z"/>
		<path fill="#FFFBF7" d="M104.45,92.707c0.542,2.135-1.776,2.56-4.587,3.274s-5.051,1.444-5.593-0.691
			c-0.542-2.135,1.298-4.445,4.109-5.158C101.19,89.419,103.908,90.572,104.45,92.707z"/>
		<g>
			<path fill="#874732" d="M104.992,84.197c-1.826-0.112-3.581,0.7-4.671,2.171c-0.503,0.678,0.466,1.588,0.976,0.901
				c0.905-1.222,2.21-1.838,3.732-1.745C105.883,85.576,105.839,84.249,104.992,84.197z"/>
			<path fill="#874732" d="M90.123,87.969c1.552-0.969,3.481-1.092,5.141-0.318c0.765,0.357,0.347,1.618-0.428,1.257
				c-1.378-0.643-2.819-0.562-4.112,0.245C89.998,89.606,89.404,88.418,90.123,87.969z"/>
		</g>
		<g>
			<path fill="#874732" d="M99.295,93.744c-1.497,0.38-2.74-0.421-2.826-1.368c-0.085-0.947,1.01-1.166,2.112-1.446
				c1.102-0.28,2.169-0.609,2.546,0.264C101.504,92.068,100.793,93.364,99.295,93.744z"/>
		</g>
		<g opacity="0.55">
			<path fill="#FF915E" d="M94.026,92.771c0.428,1.685-0.592,3.398-2.277,3.825s-3.398-0.592-3.825-2.277
				c-0.428-1.685,0.592-3.398,2.277-3.825S93.599,91.086,94.026,92.771z"/>
			<path fill="#FF915E" d="M109.566,88.829c0.428,1.685-0.592,3.398-2.277,3.825c-1.685,0.428-3.398-0.592-3.825-2.277
				c-0.428-1.685,0.592-3.398,2.277-3.825C107.426,86.124,109.139,87.144,109.566,88.829z"/>
		</g>
		<g>
			<g>
				<g>
					<path fill="#874732" d="M85.775,95.346c-0.073,0.019-0.153,0.008-0.222-0.037c-0.129-0.085-0.165-0.257-0.081-0.387
						c1.265-1.941,3.764-1.93,3.87-1.928c0.154,0.001,0.278,0.129,0.276,0.283c-0.001,0.154-0.12,0.283-0.283,0.276
						c-0.021,0-2.301-0.004-3.395,1.675C85.901,95.289,85.84,95.329,85.775,95.346z"/>
				</g>
				<g>
					<path fill="#874732" d="M87.788,97.615c-0.054,0.014-0.111,0.012-0.167-0.009c-0.144-0.054-0.218-0.215-0.164-0.36
						c0.599-1.603,2.361-2.498,2.436-2.535c0.147-0.073,0.307-0.012,0.375,0.126c0.069,0.138,0.013,0.306-0.126,0.375
						c-0.016,0.008-1.64,0.835-2.161,2.231C87.948,97.531,87.875,97.593,87.788,97.615z"/>
				</g>
			</g>
			<g>
				<g>
					<path fill="#874732" d="M111.944,88.707c-0.065,0.017-0.138,0.011-0.202-0.025c-1.768-0.96-3.762,0.135-3.782,0.146
						c-0.13,0.081-0.304,0.028-0.38-0.107c-0.076-0.135-0.027-0.306,0.108-0.38c0.093-0.053,2.288-1.251,4.321-0.151
						c0.136,0.074,0.186,0.244,0.113,0.379C112.083,88.641,112.018,88.688,111.944,88.707z"/>
				</g>
				<g>
					<path fill="#874732" d="M111.256,91.661c-0.086,0.022-0.18,0.003-0.252-0.061c-1.122-0.978-2.945-0.93-2.963-0.93
						c-0.155,0.005-0.285-0.116-0.29-0.27c-0.006-0.155,0.106-0.287,0.27-0.29c0.084-0.003,2.06-0.057,3.35,1.068
						c0.117,0.101,0.129,0.278,0.027,0.394C111.359,91.619,111.31,91.647,111.256,91.661z"/>
				</g>
			</g>
		</g>
		<g opacity="0.31">
			<path fill="#874732" d="M100.64,98.344c-1.209,0.307-2.329,0.081-2.4,0.066c-0.163-0.034-0.268-0.195-0.234-0.359
				c0.034-0.165,0.198-0.269,0.358-0.235c0.023,0.005,2.327,0.462,3.669-0.916c0.119-0.12,0.31-0.124,0.429-0.006
				c0.12,0.117,0.123,0.31,0.006,0.429C101.926,97.878,101.27,98.184,100.64,98.344z"/>
		</g>
		<g opacity="0.5">
			<path fill="#FF7C4F" d="M128.579,79.747c1.136,2.148,2.525,5.305,3.054,8.7c0.743,4.771,4.072,3.67,5.045,2.098
				c0.758-1.225,1.437-8.015,0.267-12.42c-3.166,0.146-6.058,0.712-8.223,1.567C128.675,79.709,128.626,79.729,128.579,79.747z"/>
			<path fill="#FF7C4F" d="M138.643,78.088c0.596,2.097,1.112,4.672,1.106,7.308c-0.012,4.829,3.448,4.262,4.655,2.861
				c0.742-0.861,1.98-5.161,2.241-9.165C143.989,78.399,141.253,78.098,138.643,78.088z"/>
			<path fill="#FF7C4F" d="M123.82,92.797c1.768,4.494,4.775,2.692,5.382,0.945c0.509-1.467-0.484-9.223-2.969-13.068
				c-2.698,1.067-5.584,2.204-8.262,3.212C119.568,85.605,122.282,88.888,123.82,92.797z"/>
		</g>
		<path opacity="0.31" fill="#874732" d="M129.649,110.312c0,0,6.223-2.514,7.41-4.901c0.813-1.635,1.162-9.428,5.585-11.42
			c0,0-5.56,0-9.567,7.63c-3.016,5.743-9.661,8.439-12.542,8.691C124.553,110.312,129.649,110.312,129.649,110.312z"/>
		<g opacity="0.5">
			<path fill="#FF7C4F" d="M158.647,128.909c-0.649,0.305-1.328,0.577-2.064,0.773c-0.826,0.219-1.729,0.358-2.673,0.403
				c0.245,1.654,0.248,3.673-0.49,5.644c0.404-0.004,0.808-0.02,1.214-0.051c1.127-0.088,2.261-0.279,3.39-0.579
				c0.22-0.058,0.433-0.13,0.648-0.196C159.064,132.72,158.948,130.637,158.647,128.909z"/>
			<path fill="#FF7C4F" d="M145.094,133.794c1.488,0.753,3.069,1.288,4.702,1.603c0.968-1.81,1.378-3.719,1.443-5.46
				c-1.666-0.264-3.368-0.872-4.959-1.939C146.499,129.373,146.557,131.725,145.094,133.794z"/>
			<path fill="#FF7C4F" d="M166.69,129.585c-0.668-2.647-1.909-4.804-2.883-6.189c-0.587,1.672-1.63,3.121-3.053,4.241
				c0.809,1.475,1.566,3.472,1.543,5.699C164.013,132.341,165.497,131.07,166.69,129.585z"/>
		</g>
		<g opacity="0.31">
			<path fill="#874732" d="M94.639,108.695c-0.167,0-0.303,0.135-0.303,0.303c0,0.167,0.135,0.302,0.303,0.303
				c0.067,0,1.501,0.03,1.723,1.011c0.205,0,0.408,0,0.617,0C96.805,109.051,95.408,108.695,94.639,108.695z"/>
			<path fill="#874732" d="M99.197,110.308c-0.031-2.076-2.449-2.879-2.552-2.912c-0.156-0.049-0.329,0.037-0.381,0.197
				c-0.051,0.159,0.037,0.329,0.197,0.381c0.02,0.006,2.1,0.695,2.13,2.339c0.199,0,0.404,0,0.606,0
				C99.195,110.311,99.197,110.31,99.197,110.308z"/>
		</g>
		<g opacity="0.31">
			<path fill="#874732" d="M104.14,110.312c0.332-1.509,1.657-2.094,1.722-2.121c0.154-0.066,0.225-0.244,0.16-0.398
				c-0.065-0.153-0.245-0.227-0.396-0.161c-0.08,0.033-1.743,0.771-2.092,2.68C103.733,110.312,103.938,110.312,104.14,110.312z"/>
			<path fill="#874732" d="M107.073,109.262c0.146-0.083,0.197-0.268,0.114-0.413c-0.082-0.144-0.267-0.195-0.411-0.115
				c-0.049,0.027-0.922,0.531-1.293,1.578c0.22,0,0.444,0,0.665,0C106.472,109.626,107.038,109.282,107.073,109.262z"/>
		</g>
		<g opacity="0.31">
			<path fill="#874732" d="M131.676,111.796c-0.076,0.028-1.581,0.603-2.427,1.924c0.213,0.044,0.428,0.084,0.662,0.11
				c0.762-0.998,1.957-1.459,1.973-1.465c0.156-0.057,0.238-0.231,0.18-0.388C132.005,111.819,131.827,111.742,131.676,111.796z"/>
			<path fill="#874732" d="M131.112,111.227c-0.032-0.163-0.186-0.268-0.356-0.238c-0.094,0.019-1.953,0.415-3.478,1.586
				c0.097,0.174,0.223,0.331,0.386,0.468c1.417-1.076,3.189-1.455,3.21-1.459C131.038,111.55,131.145,111.391,131.112,111.227z"/>
		</g>
	</g>
</g>
</svg>
