<?xml version="1.0" encoding="utf-8"?>
<!-- Generator: Adobe Illustrator 22.0.1, SVG Export Plug-In . SVG Version: 6.00 Build 0)  -->
<svg version="1.1" xmlns="http://www.w3.org/2000/svg" xmlns:xlink="http://www.w3.org/1999/xlink" x="0px" y="0px"
	 viewBox="0 0 220 150" enable-background="new 0 0 220 150" xml:space="preserve">
<g id="圖層_2" display="none">
	<rect display="inline" fill="#FFFBF7" width="220" height="150"/>
</g>
<g id="圖層_3" display="none">
	<g display="inline">
		<polygon fill="#F0F0F0" points="155.828,79.991 60.908,78.127 62.017,21.641 77.976,14.078 157.092,15.632 		"/>
		<polygon fill="#CAE2FC" points="156.469,79.065 61.531,79.065 61.531,22.98 78.551,14.693 156.469,14.693 		"/>
		<polygon fill="#A9D1FC" points="150.091,74.295 66.97,73.218 68.233,22.914 74.407,18.534 151.03,19.647 		"/>
		<polygon fill="#FFFFFF" points="151.03,73.218 66.97,73.218 66.97,23.936 72.049,19.647 151.03,19.647 		"/>
		<path opacity="0.1" d="M61.531,22.98l6.87,4.436c0.318,0.205,0.741,0.127,0.965-0.178l9.185-12.545L61.531,22.98z"/>
		<path fill="#A9D1FC" d="M61.531,22.98l6.803,2.973c0.463,0.202,1.003,0.071,1.322-0.321l8.895-10.939L61.531,22.98z"/>
		
			<text transform="matrix(1 0 0 1 78.6621 58.5708)" fill="#FF765E" font-family="'PingFangTC-Semibold-B5pc-H'" font-size="33.7284px">404</text>
		<g>
			<circle opacity="0.1" cx="151.455" cy="20.008" r="1.626"/>
			<circle fill="#66A1E3" cx="151.306" cy="19.647" r="1.626"/>
			<path fill="#78B3F5" d="M152.222,19.647c0,0.506-0.41,0.916-0.916,0.916c-0.506,0-0.916-0.41-0.916-0.916
				c0-0.506,0.41-0.916,0.916-0.916C151.812,18.731,152.222,19.141,152.222,19.647z"/>
			<g>
				<path fill="#A8D1FF" d="M151.401,18.834c0.238,0,0.453,0.093,0.616,0.242c-0.168-0.209-0.423-0.346-0.712-0.346
					c-0.506,0-0.916,0.41-0.916,0.916c0,0.268,0.117,0.507,0.3,0.674c-0.126-0.157-0.205-0.354-0.205-0.571
					C150.485,19.244,150.895,18.834,151.401,18.834z"/>
			</g>
		</g>
		<g>
			<circle opacity="0.1" cx="152.297" cy="75.447" r="1.626"/>
			<circle fill="#66A1E3" cx="152.148" cy="75.086" r="1.626"/>
			<path fill="#78B3F5" d="M153.064,75.086c0,0.506-0.41,0.916-0.916,0.916c-0.506,0-0.916-0.41-0.916-0.916
				c0-0.506,0.41-0.916,0.916-0.916C152.654,74.169,153.064,74.58,153.064,75.086z"/>
			<g>
				<path fill="#A8D1FF" d="M152.243,74.273c0.238,0,0.453,0.093,0.616,0.242c-0.168-0.209-0.423-0.346-0.712-0.346
					c-0.506,0-0.916,0.41-0.916,0.916c0,0.268,0.117,0.507,0.3,0.674c-0.126-0.157-0.205-0.354-0.205-0.571
					C151.327,74.683,151.737,74.273,152.243,74.273z"/>
			</g>
		</g>
		<g>
			<circle opacity="0.1" cx="67.045" cy="73.641" r="1.626"/>
			<circle fill="#66A1E3" cx="66.896" cy="73.28" r="1.626"/>
			<path fill="#78B3F5" d="M67.812,73.28c0,0.506-0.41,0.916-0.916,0.916c-0.506,0-0.916-0.41-0.916-0.916
				c0-0.506,0.41-0.916,0.916-0.916C67.402,72.363,67.812,72.774,67.812,73.28z"/>
			<g>
				<path fill="#A8D1FF" d="M66.992,72.467c0.238,0,0.453,0.093,0.616,0.242c-0.168-0.209-0.423-0.346-0.712-0.346
					c-0.506,0-0.916,0.41-0.916,0.916c0,0.268,0.117,0.507,0.3,0.674c-0.126-0.157-0.205-0.354-0.205-0.571
					C66.075,72.877,66.485,72.467,66.992,72.467z"/>
			</g>
		</g>
	</g>
	
		<radialGradient id="SVGID_1_" cx="108.988" cy="110.3132" r="85.01" gradientTransform="matrix(1.1788 0 0 0.0577 -20.0762 103.9438)" gradientUnits="userSpaceOnUse">
		<stop  offset="0" style="stop-color:#E8E8D0"/>
		<stop  offset="1" style="stop-color:#FFFFFF"/>
	</radialGradient>
	<rect x="6" y="109.768" display="inline" fill="url(#SVGID_1_)" width="206" height="9.25"/>
	<g display="inline">
		<g>
			<g>
				
					<linearGradient id="SVGID_2_" gradientUnits="userSpaceOnUse" x1="52.7278" y1="69.3436" x2="54.1335" y2="84.0308" gradientTransform="matrix(0.9643 0.2648 -0.2648 0.9643 22.9015 1.4591)">
					<stop  offset="0" style="stop-color:#A1D685"/>
					<stop  offset="1" style="stop-color:#71C782"/>
				</linearGradient>
				<path fill="url(#SVGID_2_)" d="M51.02,101.379c0,0-1.125-13.552,0.882-16.636c1.868-2.869,6.906-1.469,5.916,3.155
					c-0.643,3.006-3.546,13.12-3.546,13.12L51.02,101.379z"/>
				<g>
					<path fill="#ADE68F" d="M53.01,85.048c0.724-1.112,1.924-1.58,3.064-1.47c-1.39-0.657-3.205-0.319-4.172,1.166
						c-2.007,3.083-0.882,16.636-0.882,16.636l1.075-0.119C51.926,98.959,51.212,87.809,53.01,85.048z"/>
				</g>
			</g>
			
				<line fill="none" stroke="#88BD6D" stroke-width="0.6537" stroke-linecap="round" stroke-linejoin="round" stroke-miterlimit="10" x1="52.978" y1="84.089" x2="52.416" y2="82.981"/>
			
				<line fill="none" stroke="#88BD6D" stroke-width="0.6537" stroke-linecap="round" stroke-linejoin="round" stroke-miterlimit="10" x1="55.099" y1="83.718" x2="55.211" y2="82.48"/>
			
				<line fill="none" stroke="#88BD6D" stroke-width="0.6537" stroke-linecap="round" stroke-linejoin="round" stroke-miterlimit="10" x1="56.769" y1="84.654" x2="57.338" y2="83.549"/>
			
				<line fill="none" stroke="#88BD6D" stroke-width="0.6537" stroke-linecap="round" stroke-linejoin="round" stroke-miterlimit="10" x1="57.533" y1="86.138" x2="58.422" y2="85.27"/>
			
				<line fill="none" stroke="#88BD6D" stroke-width="0.6537" stroke-linecap="round" stroke-linejoin="round" stroke-miterlimit="10" x1="56.455" y1="90.581" x2="57.65" y2="90.923"/>
			
				<line fill="none" stroke="#88BD6D" stroke-width="0.6537" stroke-linecap="round" stroke-linejoin="round" stroke-miterlimit="10" x1="56.066" y1="92.684" x2="57.247" y2="92.297"/>
			
				<line fill="none" stroke="#88BD6D" stroke-width="0.6537" stroke-linecap="round" stroke-linejoin="round" stroke-miterlimit="10" x1="55.728" y1="94.058" x2="56.572" y2="94.184"/>
			
				<line fill="none" stroke="#88BD6D" stroke-width="0.6537" stroke-linecap="round" stroke-linejoin="round" stroke-miterlimit="10" x1="57.48" y1="87.678" x2="58.447" y2="87.19"/>
			
				<line fill="none" stroke="#88BD6D" stroke-width="0.6537" stroke-linecap="round" stroke-linejoin="round" stroke-miterlimit="10" x1="56.936" y1="89.213" x2="58.019" y2="89.195"/>
			
				<line fill="none" stroke="#88BD6D" stroke-width="0.6537" stroke-linecap="round" stroke-linejoin="round" stroke-miterlimit="10" x1="52.373" y1="85.362" x2="51.341" y2="84.67"/>
		</g>
		<g>
			<g>
				<linearGradient id="SVGID_3_" gradientUnits="userSpaceOnUse" x1="47.0524" y1="83.5528" x2="48.2848" y2="96.4295">
					<stop  offset="0.1134" style="stop-color:#A1D685"/>
					<stop  offset="1" style="stop-color:#71C782"/>
				</linearGradient>
				<path fill="url(#SVGID_3_)" d="M47.411,99.601c0,0-5.363-14.651-4.078-18.672c1.195-3.741,7.194-3.723,7.504,1.693
					c0.201,3.521,0.063,15.592,0.063,15.592L47.411,99.601z"/>
				<g>
					<path fill="#ADE68F" d="M44.65,80.928c0.463-1.45,1.648-2.332,2.943-2.557c-1.737-0.305-3.642,0.621-4.261,2.557
						c-1.284,4.021,4.078,18.672,4.078,18.672l1.153-0.459C47.678,96.648,43.5,84.53,44.65,80.928z"/>
				</g>
			</g>
			
				<line fill="none" stroke="#88BD6D" stroke-width="0.75" stroke-linecap="round" stroke-linejoin="round" stroke-miterlimit="10" x1="44.092" y1="86.364" x2="42.903" y2="86.364"/>
			
				<line fill="none" stroke="#88BD6D" stroke-width="0.75" stroke-linecap="round" stroke-linejoin="round" stroke-miterlimit="10" x1="44.555" y1="88.834" x2="43.134" y2="88.956"/>
			
				<line fill="none" stroke="#88BD6D" stroke-width="0.75" stroke-linecap="round" stroke-linejoin="round" stroke-miterlimit="10" x1="45.22" y1="91.113" x2="43.89" y2="91.627"/>
			
				<line fill="none" stroke="#88BD6D" stroke-width="0.75" stroke-linecap="round" stroke-linejoin="round" stroke-miterlimit="10" x1="44.324" y1="79.878" x2="43.365" y2="78.823"/>
			
				<line fill="none" stroke="#88BD6D" stroke-width="0.75" stroke-linecap="round" stroke-linejoin="round" stroke-miterlimit="10" x1="46.558" y1="78.823" x2="46.306" y2="77.419"/>
			
				<line fill="none" stroke="#88BD6D" stroke-width="0.75" stroke-linecap="round" stroke-linejoin="round" stroke-miterlimit="10" x1="48.69" y1="79.35" x2="48.983" y2="77.955"/>
			
				<line fill="none" stroke="#88BD6D" stroke-width="0.75" stroke-linecap="round" stroke-linejoin="round" stroke-miterlimit="10" x1="49.985" y1="80.76" x2="50.706" y2="79.53"/>
			
				<line fill="none" stroke="#88BD6D" stroke-width="0.75" stroke-linecap="round" stroke-linejoin="round" stroke-miterlimit="10" x1="50.143" y1="86.003" x2="51.569" y2="86.019"/>
			
				<line fill="none" stroke="#88BD6D" stroke-width="0.75" stroke-linecap="round" stroke-linejoin="round" stroke-miterlimit="10" x1="50.352" y1="88.449" x2="51.54" y2="87.661"/>
			
				<line fill="none" stroke="#88BD6D" stroke-width="0.75" stroke-linecap="round" stroke-linejoin="round" stroke-miterlimit="10" x1="50.395" y1="90.071" x2="51.367" y2="89.954"/>
			
				<line fill="none" stroke="#88BD6D" stroke-width="0.75" stroke-linecap="round" stroke-linejoin="round" stroke-miterlimit="10" x1="50.395" y1="82.48" x2="51.317" y2="81.647"/>
			
				<line fill="none" stroke="#88BD6D" stroke-width="0.75" stroke-linecap="round" stroke-linejoin="round" stroke-miterlimit="10" x1="50.259" y1="84.344" x2="51.453" y2="83.995"/>
			
				<line fill="none" stroke="#88BD6D" stroke-width="0.75" stroke-linecap="round" stroke-linejoin="round" stroke-miterlimit="10" x1="44.041" y1="81.47" x2="42.689" y2="81.017"/>
			
				<line fill="none" stroke="#88BD6D" stroke-width="0.75" stroke-linecap="round" stroke-linejoin="round" stroke-miterlimit="10" x1="43.843" y1="83.328" x2="42.425" y2="83.474"/>
			<circle fill="#88BD6D" cx="45.48" cy="81.439" r="0.26"/>
			<path fill="#88BD6D" d="M48.043,82.655c0,0.24-0.195,0.434-0.434,0.434c-0.24,0-0.434-0.195-0.434-0.434s0.195-0.434,0.434-0.434
				C47.849,82.22,48.043,82.415,48.043,82.655z"/>
			<path fill="#88BD6D" d="M49.665,87.282c-0.278,0.378-0.81,0.46-1.188,0.182c-0.378-0.278-0.46-0.81-0.182-1.188
				c0.278-0.378,0.81-0.46,1.188-0.182S49.943,86.904,49.665,87.282z"/>
			<path fill="#88BD6D" d="M48.112,90.631c-0.195,0.266-0.524,0.358-0.733,0.204c-0.209-0.154-0.22-0.494-0.025-0.76
				c0.196-0.266,0.524-0.358,0.733-0.204C48.296,90.024,48.307,90.364,48.112,90.631z"/>
			<circle fill="#88BD6D" cx="46.677" cy="84.366" r="0.371"/>
		</g>
		<g>
			<polygon fill="#A87C56" points="43.134,97.04 44.387,111.092 46.257,111.092 46.125,110.361 49.511,110.361 49.575,111.092 
				52.47,111.092 52.626,110.361 55.28,110.361 55.241,111.092 56.932,111.092 58.185,97.04 			"/>
			<polygon fill="#BA8A60" points="45.675,97.04 43.134,97.04 44.387,111.092 46.257,111.092 46.125,110.361 47.097,110.361 			"/>
			<linearGradient id="SVGID_4_" gradientUnits="userSpaceOnUse" x1="43.1343" y1="98.2266" x2="58.1847" y2="98.2266">
				<stop  offset="0" style="stop-color:#805E41"/>
				<stop  offset="1" style="stop-color:#A87C56"/>
			</linearGradient>
			<polygon fill="url(#SVGID_4_)" points="43.267,98.534 57.973,99.413 58.185,97.04 43.134,97.04 			"/>
			<polygon fill="#D68E4F" points="58.405,98.248 58.633,95.689 42.686,95.689 42.914,98.248 			"/>
			<polygon fill="#E3A874" points="45.194,95.689 42.686,95.689 42.914,98.248 45.499,98.248 			"/>
		</g>
	</g>
	<g display="inline">
		<g>
			<path fill="#777777" d="M30.354,125.271h3.072c1.578,0,2.649,0.888,2.649,2.3c0,1.613-1.222,2.354-2.687,2.354h-1.428v2.773
				h-1.607V125.271z M31.961,128.646h1.226c0.743,0,1.269-0.286,1.269-1.045c0-0.766-0.554-1.052-1.235-1.052h-1.259V128.646z"/>
			<path fill="#777777" d="M37.205,124.835h1.544v1.377h-1.544V124.835z M37.205,127.122h1.544v5.576h-1.544V127.122z"/>
			<path fill="#777777" d="M44.965,130.896c-0.192,0.929-0.845,1.931-2.507,1.931c-1.735,0-2.627-1.2-2.627-2.876
				c0-1.647,1.004-2.958,2.702-2.958c1.88,0,2.402,1.349,2.433,1.979h-1.507c-0.095-0.454-0.353-0.771-0.956-0.771
				c-0.706,0-1.105,0.618-1.105,1.699c0,1.188,0.423,1.729,1.099,1.729c0.53,0,0.815-0.313,0.953-0.732H44.965z"/>
			<path fill="#777777" d="M45.401,127.122h0.859v-1.51h1.544v1.51h1.092v1.161h-1.092v2.752c0,0.423,0.129,0.587,0.589,0.587
				c0.086,0,0.236-0.001,0.352-0.017v1.062c-0.306,0.104-0.726,0.106-1.038,0.106c-1.088,0-1.447-0.582-1.447-1.558v-2.933h-0.859
				V127.122z"/>
			<path fill="#777777" d="M54.766,131.078c0,0.537,0.001,1.121,0.011,1.62h-1.513c-0.021-0.149-0.032-0.448-0.042-0.644
				c-0.331,0.56-0.823,0.772-1.535,0.772c-1.136,0-1.861-0.69-1.861-2.073v-3.632h1.542v3.323c0,0.615,0.191,1.124,0.859,1.124
				c0.704,0,0.995-0.375,0.995-1.479v-2.968h1.544V131.078z"/>
			<path fill="#777777" d="M56.158,128.635c0-0.554-0.001-1.046-0.011-1.513h1.514c0.02,0.125,0.041,0.679,0.041,0.979
				c0.246-0.638,0.84-1.104,1.789-1.108v1.473c-1.121-0.028-1.789,0.272-1.789,1.802v2.431h-1.544V128.635z"/>
			<path fill="#777777" d="M61.637,130.24c0.001,0.697,0.351,1.379,1.119,1.379c0.643,0,0.826-0.258,0.973-0.595h1.545
				c-0.198,0.683-0.807,1.803-2.559,1.803c-1.836,0-2.633-1.373-2.633-2.836c0-1.749,0.897-2.998,2.688-2.998
				c1.915,0,2.566,1.385,2.566,2.777c0,0.188,0,0.311-0.021,0.47H61.637z M63.791,129.292c-0.011-0.649-0.27-1.195-1.022-1.195
				c-0.74,0-1.038,0.51-1.099,1.195H63.791z"/>
			<path fill="#777777" d="M69.012,128.527c0-0.475,0-0.993-0.011-1.405h1.495c0.031,0.145,0.051,0.531,0.06,0.711
				c0.189-0.351,0.641-0.84,1.618-0.84c1.12,0,1.848,0.757,1.848,2.158v3.547h-1.544v-3.376c0-0.627-0.209-1.081-0.89-1.081
				c-0.656,0-1.031,0.365-1.031,1.35v3.107h-1.544V128.527z"/>
			<path fill="#777777" d="M80.581,129.899c0,1.688-1.01,2.928-2.776,2.928c-1.729,0-2.738-1.233-2.738-2.897
				c0-1.721,1.041-2.937,2.812-2.937C79.519,126.993,80.581,128.151,80.581,129.899z M76.633,129.91
				c0,1.073,0.462,1.709,1.206,1.709c0.756,0,1.176-0.636,1.176-1.699c0-1.167-0.428-1.719-1.197-1.719
				C77.101,128.201,76.633,128.731,76.633,129.91z"/>
			<path fill="#777777" d="M81.103,127.122h0.859v-1.51h1.544v1.51h1.092v1.161h-1.092v2.752c0,0.423,0.129,0.587,0.589,0.587
				c0.086,0,0.236-0.001,0.352-0.017v1.062c-0.306,0.104-0.726,0.106-1.038,0.106c-1.088,0-1.447-0.582-1.447-1.558v-2.933h-0.859
				V127.122z"/>
			<path fill="#777777" d="M88.376,132.698v-4.415h-0.812v-1.161h0.812v-0.489c0-1.152,0.572-1.906,1.778-1.906
				c0.256,0,0.579,0.023,0.717,0.066v1.219c-0.085-0.015-0.202-0.026-0.326-0.026c-0.455,0-0.626,0.168-0.626,0.764v0.373h0.975
				v1.161H89.92v4.415H88.376z"/>
			<path fill="#777777" d="M96.908,129.899c0,1.688-1.01,2.928-2.776,2.928c-1.729,0-2.738-1.233-2.738-2.897
				c0-1.721,1.041-2.937,2.812-2.937C95.846,126.993,96.908,128.151,96.908,129.899z M92.96,129.91c0,1.073,0.462,1.709,1.206,1.709
				c0.756,0,1.176-0.636,1.176-1.699c0-1.167-0.428-1.719-1.197-1.719C93.428,128.201,92.96,128.731,92.96,129.91z"/>
			<path fill="#777777" d="M102.883,131.078c0,0.537,0.001,1.121,0.011,1.62h-1.513c-0.021-0.149-0.032-0.448-0.042-0.644
				c-0.331,0.56-0.823,0.772-1.535,0.772c-1.136,0-1.861-0.69-1.861-2.073v-3.632h1.542v3.323c0,0.615,0.191,1.124,0.859,1.124
				c0.704,0,0.995-0.375,0.995-1.479v-2.968h1.544V131.078z"/>
			<path fill="#777777" d="M104.284,128.527c0-0.475,0-0.993-0.011-1.405h1.495c0.031,0.145,0.051,0.531,0.06,0.711
				c0.189-0.351,0.641-0.84,1.618-0.84c1.12,0,1.848,0.757,1.848,2.158v3.547h-1.544v-3.376c0-0.627-0.209-1.081-0.89-1.081
				c-0.656,0-1.031,0.365-1.031,1.35v3.107h-1.544V128.527z"/>
			<path fill="#777777" d="M115.781,124.835v6.331c0,0.508,0,1.022,0.011,1.532h-1.484c-0.031-0.167-0.061-0.455-0.07-0.582
				c-0.269,0.438-0.749,0.711-1.582,0.711c-1.409,0-2.307-1.132-2.307-2.871c0-1.716,0.954-2.963,2.533-2.963
				c0.802,0,1.233,0.283,1.356,0.532v-2.69H115.781z M111.934,129.915c0,1.087,0.424,1.676,1.18,1.676
				c1.062,0,1.184-0.886,1.184-1.687c0-0.953-0.135-1.675-1.144-1.675C112.343,128.229,111.934,128.862,111.934,129.915z"/>
			<path fill="#777777" d="M116.983,132.698v-1.893h1.657v1.893H116.983z"/>
		</g>
	</g>
	<g display="inline">
		<g>
			
				<linearGradient id="SVGID_5_" gradientUnits="userSpaceOnUse" x1="155.1093" y1="116.565" x2="149.771" y2="90.1403" gradientTransform="matrix(0.997 -0.0771 0.0771 0.997 -7.0696 26.1394)">
				<stop  offset="0" style="stop-color:#FFDA5E"/>
				<stop  offset="1" style="stop-color:#E89540"/>
			</linearGradient>
			<path fill="url(#SVGID_5_)" d="M154.634,135.678c-5.973,0.462-11.756-2.015-15.657-6.871c-0.969-1.207-0.776-2.97,0.43-3.94
				c1.205-0.969,2.97-0.778,3.94,0.43c3.858,4.802,9.369,5.412,13.235,4.385c4.182-1.112,7.041-4.069,7.649-7.911
				c0.971-6.136-2.123-10.942-4.853-15.182c-1.525-2.368-2.842-4.413-3.318-6.516c-0.342-1.51,0.604-3.011,2.114-3.353
				c1.51-0.342,3.011,0.604,3.352,2.114c0.258,1.139,1.379,2.879,2.564,4.722c2.946,4.577,6.981,10.845,5.676,19.092
				c-0.95,6.007-5.451,10.778-11.744,12.451C156.895,135.398,155.761,135.59,154.634,135.678z"/>
		</g>
		<linearGradient id="SVGID_6_" gradientUnits="userSpaceOnUse" x1="121.0327" y1="97.882" x2="121.0327" y2="129.1222">
			<stop  offset="0" style="stop-color:#FFDA5E"/>
			<stop  offset="1" style="stop-color:#E89540"/>
		</linearGradient>
		<path fill="url(#SVGID_6_)" d="M159.545,88.155c-6.468-11.091-23.143-11.496-30.824-8.464c-7.681,3.032-18.331,7.328-20.584,7.175
			c-10.24-0.696-23.651,11.016-23.651,11.016s-4.881,3.032-4.881,7.175s2.384,5.255,4.881,5.255c1.544,0,25.473,0,45.163,0
			c-1.4,0.587-2.761,1.359-2.494,2.072c0.606,1.62,3.925,1.823,7.098,1.141c2.831-0.609,21.31-0.747,25.342-5.688
			C164.245,102.139,162.497,93.216,159.545,88.155z"/>
		<path opacity="0.31" fill="#874732" d="M114.807,85.047l-30.32,12.835c0,0,2.181,6.712,11.797,8.344
			c-0.001,0-0.01,0.001-0.01,0.001c2.14,0.246,4.027,2.2,3.934,4.085h2.405c0,0,0.61-3.434,4.444-4.381c0,0,0.004-0.005,0.004-0.005
			C122.093,102.764,114.807,85.047,114.807,85.047z"/>
		<g>
			<g>
				<g>
					
						<linearGradient id="SVGID_7_" gradientUnits="userSpaceOnUse" x1="86.8893" y1="33.57" x2="86.8893" y2="58.3408" gradientTransform="matrix(0.8959 -0.4443 0.4443 0.8959 -7.68 84.7952)">
						<stop  offset="0" style="stop-color:#FFDA5E"/>
						<stop  offset="1" style="stop-color:#E89540"/>
					</linearGradient>
					<path fill="url(#SVGID_7_)" d="M84.754,88.003c0,0-4.395-7.813-4.198-15.193c0.024-0.908,0.852-1.58,1.744-1.406
						c2.141,0.418,6.043,1.747,9.503,5.977L84.754,88.003z"/>
					<path opacity="0.5" fill="#FF7C4F" d="M85.289,84.063c0,0-2.615-4.649-2.498-9.04c0.014-0.541,0.507-0.94,1.037-0.837
						c1.274,0.249,3.596,1.039,5.655,3.556L85.289,84.063z"/>
				</g>
			</g>
			<g>
				<g>
					
						<linearGradient id="SVGID_8_" gradientUnits="userSpaceOnUse" x1="457.0526" y1="113.8178" x2="457.0526" y2="138.5897" gradientTransform="matrix(-0.9993 0.0365 0.0365 0.9993 556.0387 -58.8182)">
						<stop  offset="0" style="stop-color:#FFDA5E"/>
						<stop  offset="1" style="stop-color:#E89540"/>
					</linearGradient>
					<path fill="url(#SVGID_8_)" d="M109.342,81.765c0,0,0.139-8.964-3.552-15.357c-0.454-0.787-1.502-0.983-2.203-0.405
						c-1.683,1.388-4.479,4.416-5.505,9.784L109.342,81.765z"/>
					<path opacity="0.5" fill="#FF7C4F" d="M106.993,78.556c0,0,0.083-5.334-2.113-9.138c-0.27-0.468-0.894-0.585-1.311-0.241
						c-1.002,0.826-2.665,2.628-3.275,5.822L106.993,78.556z"/>
				</g>
			</g>
		</g>
		
			<linearGradient id="SVGID_9_" gradientUnits="userSpaceOnUse" x1="93.9206" y1="87.4639" x2="93.9206" y2="133.3386" gradientTransform="matrix(0.9693 -0.2459 0.2459 0.9693 -15.4492 23.3879)">
			<stop  offset="0" style="stop-color:#FFDA5E"/>
			<stop  offset="1" style="stop-color:#E89540"/>
		</linearGradient>
		<path fill="url(#SVGID_9_)" d="M94.413,74.497c-8.875,2.252-13.643,13.09-10.422,21.99c3.222,8.9,12.394,8.58,17.828,7.201
			c5.434-1.378,13.649-5.47,12.238-14.829C112.646,79.5,103.287,72.245,94.413,74.497z"/>
		<path fill="#FFFBF7" d="M104.45,92.707c0.542,2.135-1.776,2.56-4.587,3.274s-5.051,1.444-5.593-0.691
			c-0.542-2.135,1.298-4.445,4.109-5.158C101.19,89.419,103.908,90.572,104.45,92.707z"/>
		<g>
			<path fill="#874732" d="M104.992,84.197c-1.826-0.112-3.581,0.7-4.671,2.171c-0.503,0.678,0.466,1.588,0.976,0.901
				c0.905-1.222,2.21-1.838,3.732-1.745C105.883,85.576,105.839,84.249,104.992,84.197z"/>
			<path fill="#874732" d="M90.123,87.969c1.552-0.969,3.481-1.092,5.141-0.318c0.765,0.357,0.347,1.618-0.428,1.257
				c-1.378-0.643-2.819-0.562-4.112,0.245C89.998,89.606,89.404,88.418,90.123,87.969z"/>
		</g>
		<g>
			<path fill="#874732" d="M99.295,93.744c-1.497,0.38-2.74-0.421-2.826-1.368c-0.085-0.947,1.01-1.166,2.112-1.446
				c1.102-0.28,2.169-0.609,2.546,0.264C101.504,92.068,100.793,93.364,99.295,93.744z"/>
		</g>
		<g opacity="0.55">
			<path fill="#FF915E" d="M94.026,92.771c0.428,1.685-0.592,3.398-2.277,3.825s-3.398-0.592-3.825-2.277
				c-0.428-1.685,0.592-3.398,2.277-3.825S93.599,91.086,94.026,92.771z"/>
			<path fill="#FF915E" d="M109.566,88.829c0.428,1.685-0.592,3.398-2.277,3.825c-1.685,0.428-3.398-0.592-3.825-2.277
				c-0.428-1.685,0.592-3.398,2.277-3.825C107.426,86.124,109.139,87.144,109.566,88.829z"/>
		</g>
		<g>
			<g>
				<g>
					<path fill="#874732" d="M85.775,95.346c-0.073,0.019-0.153,0.008-0.222-0.037c-0.129-0.085-0.165-0.257-0.081-0.387
						c1.265-1.941,3.764-1.93,3.87-1.928c0.154,0.001,0.278,0.129,0.276,0.283c-0.001,0.154-0.12,0.283-0.283,0.276
						c-0.021,0-2.301-0.004-3.395,1.675C85.901,95.289,85.84,95.329,85.775,95.346z"/>
				</g>
				<g>
					<path fill="#874732" d="M87.788,97.615c-0.054,0.014-0.111,0.012-0.167-0.009c-0.144-0.054-0.218-0.215-0.164-0.36
						c0.599-1.603,2.361-2.498,2.436-2.535c0.147-0.073,0.307-0.012,0.375,0.126c0.069,0.138,0.013,0.306-0.126,0.375
						c-0.016,0.008-1.64,0.835-2.161,2.231C87.948,97.531,87.875,97.593,87.788,97.615z"/>
				</g>
			</g>
			<g>
				<g>
					<path fill="#874732" d="M111.944,88.707c-0.065,0.017-0.138,0.011-0.202-0.025c-1.768-0.96-3.762,0.135-3.782,0.146
						c-0.13,0.081-0.304,0.028-0.38-0.107c-0.076-0.135-0.027-0.306,0.108-0.38c0.093-0.053,2.288-1.251,4.321-0.151
						c0.136,0.074,0.186,0.244,0.113,0.379C112.083,88.641,112.018,88.688,111.944,88.707z"/>
				</g>
				<g>
					<path fill="#874732" d="M111.256,91.661c-0.086,0.022-0.18,0.003-0.252-0.061c-1.122-0.978-2.945-0.93-2.963-0.93
						c-0.155,0.005-0.285-0.116-0.29-0.27c-0.006-0.155,0.106-0.287,0.27-0.29c0.084-0.003,2.06-0.057,3.35,1.068
						c0.117,0.101,0.129,0.278,0.027,0.394C111.359,91.619,111.31,91.647,111.256,91.661z"/>
				</g>
			</g>
		</g>
		<g opacity="0.31">
			<path fill="#874732" d="M100.64,98.344c-1.209,0.307-2.329,0.081-2.4,0.066c-0.163-0.034-0.268-0.195-0.234-0.359
				c0.034-0.165,0.198-0.269,0.358-0.235c0.023,0.005,2.327,0.462,3.669-0.916c0.119-0.12,0.31-0.124,0.429-0.006
				c0.12,0.117,0.123,0.31,0.006,0.429C101.926,97.878,101.27,98.184,100.64,98.344z"/>
		</g>
		<g opacity="0.5">
			<path fill="#FF7C4F" d="M128.579,79.747c1.136,2.148,2.525,5.305,3.054,8.7c0.743,4.771,4.072,3.67,5.045,2.098
				c0.758-1.225,1.437-8.015,0.267-12.42c-3.166,0.146-6.058,0.712-8.223,1.567C128.675,79.709,128.626,79.729,128.579,79.747z"/>
			<path fill="#FF7C4F" d="M138.643,78.088c0.596,2.097,1.112,4.672,1.106,7.308c-0.012,4.829,3.448,4.262,4.655,2.861
				c0.742-0.861,1.98-5.161,2.241-9.165C143.989,78.399,141.253,78.098,138.643,78.088z"/>
			<path fill="#FF7C4F" d="M123.82,92.797c1.768,4.494,4.775,2.692,5.382,0.945c0.509-1.467-0.484-9.223-2.969-13.068
				c-2.698,1.067-5.584,2.204-8.262,3.212C119.568,85.605,122.282,88.888,123.82,92.797z"/>
		</g>
		<path opacity="0.31" fill="#874732" d="M129.649,110.312c0,0,6.223-2.514,7.41-4.901c0.813-1.635,1.162-9.428,5.585-11.42
			c0,0-5.56,0-9.567,7.63c-3.016,5.743-9.661,8.439-12.542,8.691C124.553,110.312,129.649,110.312,129.649,110.312z"/>
		<g opacity="0.5">
			<path fill="#FF7C4F" d="M158.647,128.909c-0.649,0.305-1.328,0.577-2.064,0.773c-0.826,0.219-1.729,0.358-2.673,0.403
				c0.245,1.654,0.248,3.673-0.49,5.644c0.404-0.004,0.808-0.02,1.214-0.051c1.127-0.088,2.261-0.279,3.39-0.579
				c0.22-0.058,0.433-0.13,0.648-0.196C159.064,132.72,158.948,130.637,158.647,128.909z"/>
			<path fill="#FF7C4F" d="M145.094,133.794c1.488,0.753,3.069,1.288,4.702,1.603c0.968-1.81,1.378-3.719,1.443-5.46
				c-1.666-0.264-3.368-0.872-4.959-1.939C146.499,129.373,146.557,131.725,145.094,133.794z"/>
			<path fill="#FF7C4F" d="M166.69,129.585c-0.668-2.647-1.909-4.804-2.883-6.189c-0.587,1.672-1.63,3.121-3.053,4.241
				c0.809,1.475,1.566,3.472,1.543,5.699C164.013,132.341,165.497,131.07,166.69,129.585z"/>
		</g>
		<g opacity="0.31">
			<path fill="#874732" d="M94.639,108.695c-0.167,0-0.303,0.135-0.303,0.303c0,0.167,0.135,0.302,0.303,0.303
				c0.067,0,1.501,0.03,1.723,1.011c0.205,0,0.408,0,0.617,0C96.805,109.051,95.408,108.695,94.639,108.695z"/>
			<path fill="#874732" d="M99.197,110.308c-0.031-2.076-2.449-2.879-2.552-2.912c-0.156-0.049-0.329,0.037-0.381,0.197
				c-0.051,0.159,0.037,0.329,0.197,0.381c0.02,0.006,2.1,0.695,2.13,2.339c0.199,0,0.404,0,0.606,0
				C99.195,110.311,99.197,110.31,99.197,110.308z"/>
		</g>
		<g opacity="0.31">
			<path fill="#874732" d="M104.14,110.312c0.332-1.509,1.657-2.094,1.722-2.121c0.154-0.066,0.225-0.244,0.16-0.398
				c-0.065-0.153-0.245-0.227-0.396-0.161c-0.08,0.033-1.743,0.771-2.092,2.68C103.733,110.312,103.938,110.312,104.14,110.312z"/>
			<path fill="#874732" d="M107.073,109.262c0.146-0.083,0.197-0.268,0.114-0.413c-0.082-0.144-0.267-0.195-0.411-0.115
				c-0.049,0.027-0.922,0.531-1.293,1.578c0.22,0,0.444,0,0.665,0C106.472,109.626,107.038,109.282,107.073,109.262z"/>
		</g>
		<g opacity="0.31">
			<path fill="#874732" d="M131.676,111.796c-0.076,0.028-1.581,0.603-2.427,1.924c0.213,0.044,0.428,0.084,0.662,0.11
				c0.762-0.998,1.957-1.459,1.973-1.465c0.156-0.057,0.238-0.231,0.18-0.388C132.005,111.819,131.827,111.742,131.676,111.796z"/>
			<path fill="#874732" d="M131.112,111.227c-0.032-0.163-0.186-0.268-0.356-0.238c-0.094,0.019-1.953,0.415-3.478,1.586
				c0.097,0.174,0.223,0.331,0.386,0.468c1.417-1.076,3.189-1.455,3.21-1.459C131.038,111.55,131.145,111.391,131.112,111.227z"/>
		</g>
	</g>
</g>
<g id="圖層_4" display="none">
	<g display="inline">
		<defs>
			<rect id="SVGID_10_" x="16" y="14" width="200" height="130"/>
		</defs>
		<use xlink:href="#SVGID_10_"  overflow="visible" fill="#EBEBEB"/>
		<clipPath id="SVGID_11_">
			<use xlink:href="#SVGID_10_"  overflow="visible"/>
		</clipPath>
	</g>
	<rect y="0" display="inline" fill="#383838" width="220" height="150"/>
	<g display="inline">
		<g>
			
				<text transform="matrix(1 0 0 1 17.9062 107.248)" fill="#FFFFFF" font-family="'Optima-Bold'" font-size="56.3923px" letter-spacing="3">40</text>
			<g>
				<rect x="23.182" y="114.259" fill="#F99694" width="110.304" height="0.39"/>
			</g>
			
				<text transform="matrix(0.9641 -0.2656 0.2656 0.9641 91.5052 87.2515)" fill="#FFFFFF" font-family="'Optima-Bold'" font-size="52.0698px" letter-spacing="3">4</text>
		</g>
		<text transform="matrix(1 0 0 1 22.834 122.9404)"><tspan x="0" y="0" fill="#F99694" font-family="'PTSans-CaptionBold'" font-size="6.6912px">THE PICTURE YOU’RE LOOKING</tspan><tspan x="0" y="8.029" fill="#F99694" font-family="'PTSans-CaptionBold'" font-size="6.6912px">DOES NOT EXIST.</tspan></text>
	</g>
	<g display="inline">
		<path fill="#2B2B2B" d="M202.81,130.655c0,2.694-12.076,4.877-26.975,4.877c-14.897,0-26.974-2.184-26.974-4.877
			s12.077-4.877,26.974-4.877C190.734,125.777,202.81,127.961,202.81,130.655z"/>
		<g>
			<g>
				<path fill="#FFFFFF" d="M113.015,106.623c1.237,0.512,2.474,1.024,3.712,1.536c0.347,0.144,0.498-0.421,0.155-0.564
					c-1.237-0.512-2.474-1.023-3.711-1.535C112.824,105.916,112.672,106.481,113.015,106.623L113.015,106.623z"/>
			</g>
			<g>
				<path fill="#FFFFFF" d="M119.805,101.156c0.454,0.78,0.909,1.559,1.363,2.338c0.19,0.325,0.695,0.031,0.505-0.295
					c-0.454-0.778-0.909-1.558-1.364-2.338C120.12,100.536,119.614,100.83,119.805,101.156L119.805,101.156z"/>
			</g>
			<g>
				<path fill="#FFFFFF" d="M128.284,99.164c-0.182,0.912-0.363,1.824-0.545,2.735c-0.074,0.367,0.49,0.525,0.563,0.155
					c0.182-0.912,0.363-1.824,0.544-2.735C128.92,98.952,128.357,98.795,128.284,99.164L128.284,99.164z"/>
			</g>
			<g>
				<path fill="#FFFFFF" d="M134.911,100.561c-0.649,0.455-1.298,0.909-1.948,1.364c-0.306,0.215-0.015,0.721,0.295,0.505
					c0.649-0.454,1.298-0.909,1.948-1.364C135.512,100.851,135.22,100.345,134.911,100.561L134.911,100.561z"/>
			</g>
			<g>
				<path fill="#FFFFFF" d="M134.357,106.94c1.364-0.519,2.728-1.04,4.091-1.559c0.348-0.132,0.197-0.698-0.155-0.563
					c-1.363,0.52-2.728,1.039-4.091,1.558C133.853,106.509,134.004,107.074,134.357,106.94L134.357,106.94z"/>
			</g>
		</g>
		<g>
			<linearGradient id="SVGID_12_" gradientUnits="userSpaceOnUse" x1="172.2431" y1="114.9794" x2="151.4939" y2="130.6143">
				<stop  offset="0.1112" style="stop-color:#F98886"/>
				<stop  offset="0.2919" style="stop-color:#F99694"/>
			</linearGradient>
			<path fill="url(#SVGID_12_)" d="M164.699,102.495c0,0-4.676,13.833-4.287,14.612c0.39,0.779,7.209,5.455,7.209,5.455
				l-5.456,2.533c0,0-0.994,2.677-0.779,2.728c9.237,2.173,17.924,0,17.924,0s0-2.338-2.922-5.845c-1.177-1.411-11.3-5.65-11.3-5.65
				l10.131-11.3L164.699,102.495z"/>
			<linearGradient id="SVGID_13_" gradientUnits="userSpaceOnUse" x1="172.0535" y1="83.3174" x2="181.8732" y2="113.9549">
				<stop  offset="0.1112" style="stop-color:#F98886"/>
				<stop  offset="0.2919" style="stop-color:#F99694"/>
			</linearGradient>
			<path fill="url(#SVGID_13_)" d="M160.676,63.187c13.139-2.159,41.467,29.299,25.94,46.517c-3.669,4.07-16.268,6.819-22.114-1.851
				c-4.993-7.407,5.016-32.742-3.027-33.736C153.433,73.122,157.973,63.631,160.676,63.187z"/>
			<path fill="#F99694" d="M175.414,107.268c0,0-4.676,13.833-4.286,14.612c0.389,0.779,7.209,5.455,7.209,5.455l-5.455,2.533
				c0,0-0.995,2.677-0.779,2.728c9.236,2.173,17.924,0,17.924,0s0-2.338-2.923-5.845c-1.176-1.412-11.3-5.65-11.3-5.65l10.131-11.3
				L175.414,107.268z"/>
			
				<linearGradient id="SVGID_14_" gradientUnits="userSpaceOnUse" x1="39.3256" y1="-134.1878" x2="-4.2482" y2="-131.0408" gradientTransform="matrix(0.7519 -0.0856 -0.0642 -0.5642 118.3047 18.3286)">
				<stop  offset="0.1112" style="stop-color:#F98886"/>
				<stop  offset="0.2919" style="stop-color:#F99694"/>
			</linearGradient>
			<path fill="url(#SVGID_14_)" d="M129.532,90.952c0,0,19.258,15.089,39.014-1.023l-23.233,3.068c0,0-13.589-10.521-18.703-5.845
				c-2.366,2.162-4.055,3.178-4.055,3.178l0.402,1.205C122.956,91.536,127.278,90.707,129.532,90.952z"/>
			<path fill="#1FFFA4" d="M168.125,88.21c0,0-3.148-5.101-12.483,1.327c0,0,0.346,3.772,4.54,7.664
				C160.182,97.202,169.399,92.914,168.125,88.21z"/>
			<path fill="#C5EFDD" d="M156.647,88.348c0,0,1.791,5.357,5.391,8.231l-2.809,1.662c0,0-3.637-3.157-5.145-8.551L156.647,88.348z"
				/>
			<path fill="#20D386" d="M161.386,104.833c3.462,6.233,18.119,8.865,28.348,3.118c0,0,6.819-14.32-5.894-29.955l-4.822-6.722
				l-15.489,13.151C163.529,84.425,160.899,103.956,161.386,104.833z"/>
			<path fill="#C5EFDD" d="M177.07,67.913c0.39,0.195,6.332,5.747,6.917,7.014c0.584,1.266,0,3.604-0.779,4.676
				c-0.779,1.071-8.962,13.345-20.846,11.397c-11.885-1.948,6.722-19.58,6.722-19.58L177.07,67.913z"/>
			<g>
				<linearGradient id="SVGID_15_" gradientUnits="userSpaceOnUse" x1="137.2791" y1="69.645" x2="181.0071" y2="69.645">
					<stop  offset="0.1112" style="stop-color:#F98886"/>
					<stop  offset="0.2919" style="stop-color:#F99694"/>
				</linearGradient>
				<path fill="url(#SVGID_15_)" d="M179.556,61.431c4.317,10.73-1.322,23.105-12.595,27.642
					c-11.273,4.536-23.912-0.485-28.229-11.214c-4.318-10.73,1.321-23.105,12.594-27.642
					C162.599,45.681,175.238,50.702,179.556,61.431z"/>
				<linearGradient id="SVGID_16_" gradientUnits="userSpaceOnUse" x1="173.2564" y1="72.4554" x2="165.8529" y2="100.2185">
					<stop  offset="0.1112" style="stop-color:#F98886"/>
					<stop  offset="0.2919" style="stop-color:#F99694"/>
				</linearGradient>
				<path fill="url(#SVGID_16_)" d="M166.939,69.667c0,6.026,4.052,10.91,9.05,10.91c0.533,0,1.052-0.066,1.56-0.173
					c3.608-5.563,4.586-12.561,2.006-18.973c-0.315-0.781-0.678-1.528-1.077-2.247c-0.792-0.273-1.626-0.428-2.49-0.428
					C170.991,58.756,166.939,63.641,166.939,69.667z"/>
				<path fill="#FFAEAE" d="M144.94,77.001c0.741,1.84,0.423,3.701-0.711,4.157c-1.132,0.456-2.651-0.666-3.392-2.506
					c-0.74-1.84,1.601-1.338,2.234-3.725C143.385,73.747,144.2,75.161,144.94,77.001z"/>
				<path fill="#FFAEAE" d="M160.394,75.387c0,2.551-1.479,4.62-3.302,4.62c-1.824,0-3.303-2.068-3.303-4.62
					c0-2.551,2.732-5.544,3.164-3.772C157.838,75.239,160.394,72.835,160.394,75.387z"/>
				<path fill="#383838" d="M160.454,75.241c0,2.551-1.386,4.62-3.095,4.62c-1.709,0-3.095-2.068-3.095-4.62
					c0-2.551,1.966-4.946,2.884-3.504C158.683,74.148,160.454,72.689,160.454,75.241z"/>
				<path fill="#383838" d="M144.941,76.893c0.728,1.807,0.469,3.613-0.576,4.033c-1.046,0.421-2.483-0.703-3.21-2.51
					c-0.728-1.807,0.797-0.47,2.039-3.392C143.635,73.987,144.214,75.086,144.941,76.893z"/>
				<g>
					<path fill="#383838" d="M149.209,88.955c-0.151,0-0.278-0.115-0.291-0.268c-0.009-0.111-0.192-2.735,2.433-4.102
						c1.963-1.021,7.095-2.116,12.473,1.05c0.139,0.082,0.185,0.261,0.103,0.4c-0.083,0.14-0.262,0.185-0.4,0.103
						c-5.156-3.036-10.042-2.004-11.906-1.035c-2.274,1.184-2.128,3.441-2.12,3.537c0.012,0.161-0.107,0.301-0.268,0.314
						C149.225,88.954,149.217,88.955,149.209,88.955z"/>
				</g>
			</g>
			<path fill="#F99694" d="M156.369,48.918c0,0-11.836-1.607-18.703,1.899c-8.915,4.552,1.9,4.968,1.461,5.114
				c-0.438,0.146-12.128,9.595-6.965,25.376c0.817,2.497,2.424-16.257,7.501-16.707c0.539-0.048-0.247,2.052-0.097,3.507
				c0.205,2.004,1.272,3.48,1.753,2.728c7.599-11.885,17.28-9.089,24.159-12.664c8.545-4.44,14.826,6.602,13.346,1.851
				C175.121,48.138,159,43.511,154.178,44.388C148.703,45.383,156.369,48.918,156.369,48.918z"/>
			<linearGradient id="SVGID_17_" gradientUnits="userSpaceOnUse" x1="163.8813" y1="52.2232" x2="164.9529" y2="90.5071">
				<stop  offset="0.1112" style="stop-color:#F98886"/>
				<stop  offset="0.2919" style="stop-color:#F99694"/>
			</linearGradient>
			<path fill="url(#SVGID_17_)" d="M155.249,51.256c0,0,10.911,2.63,14.223,11.982c3.312,9.352,3.214-3.897,3.214-3.897
				l-4.384-5.553C168.302,53.788,156.32,47.554,155.249,51.256z"/>
			<path fill="#F99694" d="M180.089,87.396c0,0,3.117,33.901,6.624,35.264c3.507,1.364,9.547-1.558,9.547-2.922
				c0-1.364-1.364-1.948-1.364-1.948l-3.702,0.974c0,0-2.338-4.871-3.312-6.04c-0.974-1.169-1.558-25.328-1.558-25.328
				S181.843,79.603,180.089,87.396z"/>
			<path fill="#1FFFA4" d="M183.304,82.428c0,0-6.429,0.658-4.578,12.737c0,0,3.823,1.437,9.571-0.803
				C188.297,94.361,188.467,83.402,183.304,82.428z"/>
			<path fill="#C5EFDD" d="M178.044,93.631c0,0,6.04,0.779,10.521-1.364l0.292,3.507c0,0-4.773,2.046-10.715,0.974L178.044,93.631z"
				/>
			<linearGradient id="SVGID_18_" gradientUnits="userSpaceOnUse" x1="154.5411" y1="85.6591" x2="155.5619" y2="89.7425">
				<stop  offset="0.1112" style="stop-color:#F98886"/>
				<stop  offset="0.2919" style="stop-color:#F99694"/>
			</linearGradient>
			<path fill="url(#SVGID_18_)" d="M152.619,86.325c0,0,1.973-1.778,4.384-0.244C159.414,87.615,150.646,89.978,152.619,86.325z"/>
			<g>
				<g>
					<path fill="#FFFFFF" d="M171.702,67.183c0-5.586,3.416-10.114,7.629-10.114c0.325,0,0.643,0.036,0.957,0.088
						c-1.095-0.567-2.301-0.884-3.568-0.884c-4.998,0-9.05,4.885-9.05,10.911c0,6.025,4.052,10.91,9.05,10.91
						c1.267,0,2.473-0.317,3.568-0.884c-0.314,0.052-0.632,0.088-0.957,0.088C175.118,77.297,171.702,72.769,171.702,67.183z"/>
					<path fill="#20D386" d="M180.208,76.276c-3.748,0-6.786-4.028-6.786-8.996c0-4.969,3.038-8.996,6.786-8.996
						c0.825,0,1.612,0.205,2.344,0.563c-0.678-0.689-1.438-1.262-2.264-1.69c-0.314-0.052-0.632-0.088-0.957-0.088
						c-4.213,0-7.629,4.528-7.629,10.114c0,5.586,3.416,10.114,7.629,10.114c0.325,0,0.643-0.036,0.957-0.088
						c0.666-0.345,1.286-0.791,1.858-1.31C181.531,76.142,180.882,76.276,180.208,76.276z"/>
					<path fill="#C5EFDD" d="M185.77,67.183c0-3.346-1.252-6.335-3.218-8.337c-0.731-0.357-1.519-0.563-2.344-0.563
						c-3.748,0-6.786,4.028-6.786,8.996c0,4.968,3.038,8.996,6.786,8.996c0.674,0,1.324-0.135,1.938-0.377
						C184.343,73.908,185.77,70.75,185.77,67.183z"/>
				</g>
				<g>
					<path fill="#FFFFFF" d="M171.615,60.004l2.776-2.66c-8.329-11.69-18.996-9.206-18.996-9.206s-2.045,0.585-3.214,1.607
						C152.18,49.745,164.965,48.209,171.615,60.004z"/>
					<path fill="#AFDDC8" d="M152.326,51.061c11.836-1.607,18.557,9.644,18.557,9.644l0.731-0.701
						c-6.65-11.794-19.435-10.258-19.435-10.258C151.012,50.768,152.326,51.061,152.326,51.061z"/>
				</g>
			</g>
			<path fill="#F99694" d="M155.882,51.207c0,0-3.458-1.607-5.065-4.53c-1.607-2.923-2.972-3.507-2.387,0.536
				c0.585,4.043,1.705,5.114,1.705,5.114s-4.238-7.793-5.017-6.478c-0.779,1.315,2.338,8.621,2.338,8.621
				S161.142,54.568,155.882,51.207z"/>
		</g>
		<g>
			<path fill="#C5EFDD" d="M167.302,95.57c-0.074,1.329-0.754,2.373-1.519,2.331c-0.765-0.042-1.326-1.154-1.253-2.484
				c0.073-1.329,0.753-2.373,1.519-2.331C166.814,93.128,167.375,94.24,167.302,95.57z"/>
			<path fill="#FFFFFF" d="M166.864,95.546c-0.074,1.33-0.754,2.373-1.519,2.331c-0.765-0.042-1.326-1.154-1.253-2.484
				c0.073-1.329,0.753-2.373,1.519-2.331C166.376,93.104,166.937,94.216,166.864,95.546z"/>
		</g>
		<g>
			<path fill="#C5EFDD" d="M166.425,102.511c-0.074,1.329-0.753,2.373-1.519,2.331c-0.765-0.042-1.326-1.154-1.254-2.484
				c0.073-1.329,0.754-2.373,1.519-2.331C165.937,100.069,166.498,101.181,166.425,102.511z"/>
			<path fill="#FFFFFF" d="M165.987,102.486c-0.074,1.33-0.753,2.373-1.519,2.331c-0.765-0.042-1.326-1.154-1.254-2.484
				c0.074-1.329,0.754-2.373,1.519-2.331C165.499,100.045,166.06,101.157,165.987,102.486z"/>
		</g>
		<g>
			<g>
				<path fill="#FFFFFF" d="M158.735,23.804c-5.705-3.255,2.802-10.128,5.093-4.052c1.207,3.2-1.671,7.205-3.028,10.036
					c-0.364,0.76,0.77,1.427,1.135,0.664c1.346-2.809,3.879-6.42,3.539-9.712c-0.248-2.39-2.189-4.482-4.611-4.714
					c-5.238-0.502-7.278,6.354-2.792,8.913C158.807,25.36,159.47,24.224,158.735,23.804L158.735,23.804z"/>
			</g>
			<g>
				<path fill="#FFFFFF" d="M161.555,35.215c0.048,0.631,0.095,1.262,0.142,1.893c0.43-0.058,0.861-0.116,1.292-0.175
					c-0.065-0.434-0.129-0.868-0.194-1.301c-0.052-0.352-0.497-0.545-0.809-0.459c-0.377,0.104-0.512,0.456-0.459,0.809
					c0.065,0.434,0.129,0.868,0.193,1.301c0.109,0.729,1.347,0.563,1.292-0.174c-0.048-0.631-0.095-1.262-0.142-1.893
					C162.807,34.376,161.492,34.369,161.555,35.215L161.555,35.215z"/>
			</g>
			<g>
				<path fill="#FFFFFF" d="M177.159,21.242c-1.74,3.638-3.48,7.277-5.219,10.916c-0.364,0.76,0.77,1.427,1.135,0.663
					c1.74-3.638,3.479-7.277,5.219-10.915C178.658,21.146,177.524,20.478,177.159,21.242L177.159,21.242z"/>
			</g>
			<g>
				<path fill="#FFFFFF" d="M169.119,36.592c-0.526,0.557-0.121,1.555,0.685,1.457c0.345-0.042,0.608-0.304,0.695-0.634
					c0.102-0.386-0.078-0.726-0.389-0.946c-0.29-0.205-0.731-0.052-0.899,0.236c-0.193,0.329-0.055,0.694,0.235,0.9
					c0.015,0.01,0.029,0.02,0.044,0.031c-0.079-0.079-0.158-0.157-0.236-0.236c-0.042-0.127-0.047-0.251-0.013-0.373
					c0.079-0.078,0.157-0.157,0.236-0.236c0.062-0.017,0.124-0.033,0.186-0.05c0.111,0.03,0.221,0.06,0.332,0.09
					c0.096,0.087,0.159,0.191,0.188,0.311c-0.03,0.11-0.06,0.221-0.09,0.332c-0.016,0.016-0.031,0.032-0.046,0.048
					C170.63,36.906,169.702,35.975,169.119,36.592L169.119,36.592z"/>
			</g>
			<g>
				<path fill="#FFFFFF" d="M183.786,41.599c3.346-2.521,0.011-7.73-3.46-5.162c-1.112,0.823-1.434,2.492-0.596,3.63
					c1.419,1.928,3.113-0.058,4.49-0.809c0.638-0.348,0.196-1.488-0.507-1.202c-3.273,1.33,0.098,5.914,2.934,3.128
					c2.414-2.371,2.114-9.383-1.886-9.996c-4.647-0.713-9.066,5.318-8.416,9.541c0.616,3.998,5.422,6.505,8.474,3.217
					c0.576-0.62-0.352-1.552-0.93-0.93c-2.076,2.236-5.351,0.864-6.117-1.851c-0.66-2.337,0.425-4.634,2.019-6.308
					c1.605-1.684,5.509-4.113,6.676-0.544c0.283,0.865,0.255,1.871,0.202,2.769c-0.02,0.614-0.099,1.222-0.235,1.823
					c-0.331,1.708-1.121,1.848-2.371,0.42c-0.169-0.4-0.338-0.801-0.507-1.202c-0.455,0.249-0.892,0.761-1.358,0.958
					c-0.83,0.804-0.843,0.158-0.039-1.938c2.063,0.771,2.384,1.879,0.963,3.322C182.456,40.966,183.11,42.108,183.786,41.599
					L183.786,41.599z"/>
			</g>
			<g>
				<path fill="#FFFFFF" d="M143.868,30.643c1.818,2.385,3.453,4.905,5.271,7.29c0.506,0.664,1.649,0.01,1.136-0.664
					c-1.818-2.385-3.453-4.905-5.271-7.29C144.498,29.315,143.355,29.97,143.868,30.643L143.868,30.643z"/>
			</g>
			<g>
				<path fill="#FFFFFF" d="M148.579,29.352c1.583,2.319,3.423,4.451,5.006,6.771c0.475,0.695,1.615,0.038,1.136-0.664
					c-1.583-2.319-3.423-4.451-5.006-6.77C149.241,27.994,148.101,28.651,148.579,29.352L148.579,29.352z"/>
			</g>
			<g>
				<path fill="#FFFFFF" d="M143.929,35.355c2.186-2.633,5.106-4.281,8.486-4.801c0.834-0.128,0.48-1.396-0.349-1.268
					c-3.581,0.551-6.752,2.352-9.066,5.139C142.463,35.072,143.388,36.008,143.929,35.355L143.929,35.355z"/>
			</g>
			<g>
				<path fill="#FFFFFF" d="M145.354,37.094c2.929-1.151,5.858-2.302,8.788-3.453c0.779-0.306,0.439-1.578-0.35-1.268
					c-2.929,1.151-5.859,2.302-8.788,3.453C144.225,36.132,144.564,37.404,145.354,37.094L145.354,37.094z"/>
			</g>
		</g>
		<path fill="#FFFFFF" d="M159.289,79.476c0,0.555-0.644,1.004-1.44,1.004c-0.796,0-1.44-0.449-1.44-1.004
			c0-0.554,0.645-1.004,1.44-1.004C158.645,78.472,159.289,78.921,159.289,79.476z"/>
		<path fill="#FFFFFF" d="M145.075,80.638c0.098,0.364-0.371,0.806-1.046,0.987c-0.675,0.182-1.302,0.034-1.4-0.33
			c-0.098-0.364,0.371-0.806,1.046-0.987C144.35,80.127,144.976,80.275,145.075,80.638z"/>
	</g>
</g>
<g id="圖層_5">
	<rect fill="#727272" width="220" height="150"/>
	<g>
		<g id="character">
			<path fill-rule="evenodd" clip-rule="evenodd" d="M108.302,114.33c-5.052,0.158-10.659-0.311-16.267-1.011
				c-4.609-0.575-8.935-1.956-13.037-4.043c-1.711-0.87-3.394-1.851-4.684-3.383c-1.663-1.976-1.847-4.151-1.026-6.465
				c0.835-2.355,2.509-4.085,4.543-5.431c3.295-2.181,6.908-3.591,10.847-4.089c0.497-0.063,0.755-0.259,0.97-0.712
				c3.948-8.308,10.475-13.338,19.506-14.933c3.09-0.545,6.209-0.04,9.206,1.032c7.045,2.521,12.152,7.153,15.293,13.941
				c0.223,0.481,0.501,0.67,1.012,0.751c4.015,0.635,7.717,2.085,10.977,4.522c0.994,0.743,1.925,1.664,2.634,2.679
				c2.64,3.774,2.172,6.668-0.898,9.599c-1.305,1.245-2.822,2.149-4.471,2.855c-2.987,1.279-6.068,2.284-9.268,2.815
				c-2.421,0.403-4.877,0.61-7.325,0.826c-4.281,0.38-8.566,0.732-12.854,1.029C111.948,114.418,110.422,114.33,108.302,114.33z
				 M110.457,113.475c1.679,0,3.366,0.105,5.035-0.021c4.146-0.313,8.294-0.657,12.424-1.133c2.913-0.335,5.8-0.909,8.7-1.368
				c0.477-0.075,0.667-0.28,0.609-0.797c-0.315-2.819-0.511-5.654-0.918-8.459c-0.43-2.969-1.194-5.873-2.238-8.696
				c-0.125-0.338-0.271-0.498-0.688-0.469c-5.764,0.404-11.53,0.782-17.294,1.179c-0.263,0.019-0.535,0.135-0.772,0.262
				c-0.738,0.396-1.421,0.93-2.197,1.211c-2.519,0.913-4.904,0.574-7.142-0.924c-0.369-0.247-0.878-0.403-1.322-0.404
				c-5.04-0.014-10.081,0.071-15.102-0.487c-0.381-0.042-0.523,0.106-0.633,0.447c-1.753,5.379-2.708,10.891-2.754,16.552
				c-0.011,1.255-0.024,1.016,0.981,1.257c4.056,0.976,8.197,1.422,12.341,1.711C103.132,113.59,110.456,113.541,110.457,113.475z
				 M84.972,110.996c0.175-7.084,1.328-13.818,3.949-20.306c-0.196,0-0.334-0.017-0.466,0.002c-3.538,0.51-6.806,1.782-9.813,3.673
				c-2.042,1.285-3.749,2.947-4.625,5.276c-0.824,2.194-0.51,4.195,1.14,5.93c1.541,1.622,3.442,2.724,5.437,3.656
				C81.998,109.884,83.47,110.396,84.972,110.996z M134.346,90.697c2.64,6.36,3.646,12.92,4,19.676
				c0.331-0.086,0.583-0.13,0.819-0.217c1.142-0.421,2.284-0.841,3.418-1.285c2.135-0.836,3.87-2.214,5.305-3.983
				c1.491-1.838,1.679-3.812,0.615-5.926c-0.752-1.496-1.832-2.713-3.141-3.726c-2.784-2.155-5.979-3.424-9.37-4.243
				C135.496,90.873,134.986,90.811,134.346,90.697z M127.317,82.202c-0.061-0.143-0.069-0.186-0.094-0.213
				c-0.082-0.088-0.167-0.172-0.254-0.254c-2.542-2.387-5.462-4.136-8.743-5.325c-2.974-1.079-6.035-1.528-9.138-1.022
				c-5.374,0.876-9.947,3.375-13.741,7.288c-0.174,0.179-0.335,0.372-0.563,0.627c0.19,0.034,0.281,0.065,0.373,0.064
				c2.718-0.023,5.437-0.04,8.154-0.093c0.221-0.005,0.473-0.232,0.648-0.415c0.467-0.487,0.84-1.083,1.358-1.501
				c1.734-1.4,3.76-1.882,5.957-1.68c2.117,0.195,3.923,1.01,5.305,2.682c0.16,0.193,0.487,0.353,0.734,0.349
				c1.418-0.023,2.837-0.087,4.254-0.162C123.462,82.445,125.352,82.32,127.317,82.202z M133.479,91.865
				c0-0.226,0.017-0.29-0.002-0.339c-1.22-3.068-2.811-5.914-5.083-8.337c-0.16-0.171-0.487-0.274-0.729-0.262
				c-3.271,0.166-6.541,0.358-9.811,0.546c-0.148,0.009-0.294,0.044-0.513,0.078c1.71,3.285,1.197,6.363-0.795,9.486
				C122.308,92.638,127.897,92.252,133.479,91.865z M110.436,80.453c-4.755-0.178-7.225,3.612-7.153,7.156
				c0.091,4.467,2.945,7.166,7.136,7.181c4.181,0.014,7.064-2.666,7.184-7.133C117.696,84.139,115.251,80.268,110.436,80.453z
				 M89.392,92.558c5.031,0.609,9.988,0.575,15.006,0.517c-1.917-2.844-2.546-5.778-1.142-8.944
				c-0.124-0.035-0.162-0.056-0.199-0.055c-2.878,0.011-5.755,0.017-8.632,0.051c-0.217,0.002-0.498,0.161-0.636,0.336
				c-0.469,0.595-0.899,1.223-1.324,1.852C91.171,88.23,90.26,90.333,89.392,92.558z"/>
			<path fill-rule="evenodd" clip-rule="evenodd" d="M137.5,39.858c0.096,2.882-0.188,5.726-1.307,8.407
				c-2.37,5.681-6.517,9.425-12.438,11.167c-2.179,0.641-4.404,1.001-6.682,0.949c-0.379-0.008-0.584,0.131-0.758,0.437
				c-1.515,2.678-3.031,5.355-4.569,8.021c-0.154,0.267-0.474,0.649-0.677,0.626c-0.27-0.031-0.577-0.363-0.738-0.641
				c-1.561-2.698-3.087-5.416-4.651-8.111c-0.104-0.179-0.444-0.314-0.673-0.313c-3.123,0.017-6.159-0.519-8.993-1.796
				c-6.333-2.851-10.201-7.697-11.226-14.625c-0.491-3.318-0.536-6.66,0.42-9.932c1.374-4.707,3.997-8.613,7.538-11.979
				c3.449-3.279,7.65-4.862,12.205-5.676c1.982-0.354,4.002-0.678,6.005-0.675c2.061,0.003,4.13,0.366,6.181,0.668
				c3.281,0.484,6.399,1.56,9.187,3.327c3.232,2.047,5.754,4.859,7.773,8.121c1.803,2.915,3.054,6.022,3.393,9.451
				C137.573,38.133,137.5,38.999,137.5,39.858z M111.045,67.729c0.643-1.156,1.229-2.247,1.849-3.318
				c0.882-1.522,1.822-3.01,2.666-4.553c0.262-0.479,0.52-0.696,1.053-0.654c2.034,0.16,4.025-0.112,5.999-0.601
				c5.659-1.4,9.788-4.723,12.238-9.988c1.772-3.807,1.93-7.897,1.437-11.998c-0.399-3.323-1.813-6.28-3.665-9.032
				c-2.247-3.34-5.016-6.14-8.694-7.876c-5.597-2.642-11.481-3.445-17.595-2.472c-4.317,0.688-8.391,1.959-11.848,4.812
				c-3.788,3.126-6.467,6.997-8.028,11.638c-1.05,3.119-1.014,6.333-0.665,9.557c0.297,2.744,1.088,5.339,2.642,7.633
				c3.768,5.563,9.146,8.145,15.764,8.364c0.558,0.019,1.119,0.016,1.672,0.076c0.186,0.021,0.422,0.164,0.517,0.322
				c0.896,1.49,1.774,2.99,2.64,4.497C109.703,65.309,110.353,66.494,111.045,67.729z"/>
			<path fill-rule="evenodd" clip-rule="evenodd" fill="#F9E280" d="M99.486,113.335c-4.144-0.289-8.286-0.735-12.341-1.711
				c-1.005-0.241-0.991-0.002-0.981-1.257c0.046-5.662,1.001-11.173,2.754-16.552c0.111-0.341,0.252-0.489,0.633-0.447
				c5.021,0.558,10.062,0.473,15.102,0.487c0.445,0.001,0.953,0.157,1.322,0.404c2.238,1.498,4.624,1.837,7.142,0.924
				c0.776-0.281,1.459-0.815,2.197-1.211c0.237-0.127,0.509-0.243,0.772-0.262c5.764-0.397,11.53-0.775,17.294-1.179
				c0.417-0.029,0.563,0.131,0.688,0.469c1.044,2.823,1.808,5.727,2.238,8.696c0.407,2.805,0.603,5.64,0.918,8.459
				c0.058,0.517-0.132,0.722-0.609,0.797c-2.9,0.459-5.787,1.033-8.7,1.368c-4.13,0.476-8.277,0.82-12.424,1.133
				C113.823,113.58,103.132,113.59,99.486,113.335z M125.115,110.936c1.348,0.058,2.207-0.676,2.886-1.723
				c0.77-1.186,0.469-2.514-0.666-3.359c-1.534-1.141-3.838-0.762-5.099,0.208c-1.119,0.86-1.297,2.399-0.349,3.378
				C122.758,110.339,123.852,110.85,125.115,110.936z M97.23,111.524c0.992,0.056,1.818-0.394,2.618-0.89
				c0.787-0.487,1.384-1.149,1.3-2.132c-0.086-1.016-0.62-1.768-1.573-2.235c-0.914-0.448-1.869-0.603-2.85-0.478
				c-1.29,0.164-2.792,1.227-2.719,2.771C94.077,110.052,95.634,111.511,97.23,111.524z M100.418,99.774
				c-0.073-0.454-0.086-0.966-0.244-1.428c-0.375-1.095-1.678-1.353-2.455-0.49c-0.257,0.286-0.526,0.676-0.549,1.033
				c-0.049,0.766-0.025,1.558,0.127,2.308c0.16,0.79,0.688,1.118,1.422,1.114c0.76-0.005,1.287-0.37,1.498-1.132
				C100.338,100.744,100.35,100.278,100.418,99.774z M126.579,99.798c-0.073-0.452-0.086-0.985-0.251-1.464
				c-0.369-1.067-1.643-1.334-2.416-0.51c-0.275,0.293-0.556,0.705-0.582,1.08c-0.054,0.764-0.022,1.558,0.133,2.306
				c0.164,0.789,0.693,1.11,1.431,1.101c0.757-0.009,1.277-0.38,1.488-1.145C126.497,100.749,126.51,100.303,126.579,99.798z"/>
			<path fill-rule="evenodd" clip-rule="evenodd" fill="#323232" d="M84.972,110.996c-1.503-0.6-2.974-1.112-4.379-1.768
				c-1.995-0.932-3.896-2.034-5.437-3.656c-1.65-1.735-1.964-3.736-1.14-5.93c0.876-2.329,2.583-3.991,4.625-5.276
				c3.007-1.892,6.275-3.163,9.813-3.673c0.132-0.019,0.27-0.002,0.466-0.002C86.301,97.178,85.147,103.913,84.972,110.996z"/>
			<path fill-rule="evenodd" clip-rule="evenodd" fill="#323232" d="M134.346,90.697c0.641,0.114,1.15,0.176,1.646,0.296
				c3.391,0.82,6.586,2.088,9.37,4.243c1.309,1.013,2.389,2.231,3.141,3.726c1.064,2.114,0.876,4.088-0.615,5.926
				c-1.435,1.769-3.17,3.147-5.305,3.983c-1.133,0.444-2.276,0.864-3.418,1.285c-0.236,0.087-0.488,0.13-0.819,0.217
				C137.992,103.617,136.986,97.058,134.346,90.697z"/>
			<path fill-rule="evenodd" clip-rule="evenodd" fill="#F9E280" d="M127.317,82.202c-1.965,0.119-3.855,0.243-5.748,0.344
				c-1.417,0.076-2.835,0.139-4.254,0.162c-0.247,0.004-0.575-0.157-0.734-0.349c-1.382-1.672-3.188-2.487-5.305-2.682
				c-2.198-0.203-4.223,0.28-5.957,1.68c-0.519,0.418-0.891,1.014-1.358,1.501c-0.175,0.184-0.427,0.411-0.648,0.415
				c-2.717,0.053-5.436,0.07-8.154,0.093c-0.091,0.001-0.183-0.031-0.373-0.064c0.229-0.255,0.389-0.448,0.563-0.627
				c3.794-3.912,8.367-6.412,13.741-7.288c3.103-0.506,6.164-0.057,9.138,1.022c3.281,1.189,6.201,2.939,8.743,5.325
				c0.087,0.082,0.172,0.166,0.254,0.254C127.248,82.015,127.256,82.059,127.317,82.202z"/>
			<path fill-rule="evenodd" clip-rule="evenodd" fill="#6C6C6C" d="M133.479,91.865c-5.583,0.387-11.171,0.774-16.934,1.173
				c1.992-3.123,2.505-6.201,0.795-9.486c0.219-0.034,0.366-0.069,0.513-0.078c3.27-0.188,6.54-0.38,9.811-0.546
				c0.242-0.012,0.57,0.091,0.729,0.262c2.272,2.423,3.862,5.269,5.083,8.337C133.496,91.575,133.479,91.639,133.479,91.865z"/>
			<path fill-rule="evenodd" clip-rule="evenodd" fill="#959595" d="M110.436,80.453c4.815-0.186,7.261,3.686,7.166,7.203
				c-0.12,4.467-3.002,7.148-7.184,7.133c-4.191-0.015-7.045-2.714-7.136-7.181C103.211,84.065,105.68,80.276,110.436,80.453z
				 M110.489,91.261c1.993,0.01,3.677-1.628,3.705-3.564c0.032-2.249-1.76-3.605-3.542-3.746c-2.405-0.19-3.849,1.942-3.821,4.05
				C106.852,89.676,108.6,91.252,110.489,91.261z"/>
			<path fill-rule="evenodd" clip-rule="evenodd" fill="#6C6C6C" d="M89.392,92.558c0.868-2.224,1.779-4.327,3.074-6.243
				c0.425-0.629,0.854-1.256,1.324-1.852c0.138-0.175,0.418-0.334,0.636-0.336c2.877-0.035,5.754-0.04,8.632-0.051
				c0.037-0.001,0.076,0.02,0.199,0.055c-1.404,3.166-0.776,6.1,1.142,8.944C99.38,93.133,94.423,93.167,89.392,92.558z"/>
			<path fill-rule="evenodd" clip-rule="evenodd" fill="#FFFFFF" d="M111.045,67.729c-0.692-1.235-1.343-2.421-2.017-3.593
				c-0.866-1.507-1.744-3.007-2.64-4.497c-0.095-0.158-0.332-0.302-0.517-0.322c-0.553-0.06-1.114-0.058-1.672-0.076
				c-6.618-0.219-11.996-2.801-15.764-8.364c-1.554-2.294-2.345-4.889-2.642-7.633c-0.349-3.224-0.385-6.437,0.665-9.557
				c1.561-4.641,4.24-8.512,8.028-11.638c3.457-2.853,7.531-4.124,11.848-4.812c6.114-0.974,11.999-0.17,17.595,2.472
				c3.678,1.736,6.447,4.536,8.694,7.876c1.852,2.752,3.265,5.71,3.665,9.032c0.493,4.101,0.334,8.191-1.437,11.998
				c-2.45,5.265-6.579,8.588-12.238,9.988c-1.974,0.488-3.965,0.761-5.999,0.601c-0.533-0.042-0.791,0.175-1.053,0.654
				c-0.843,1.542-1.784,3.031-2.666,4.553C112.274,65.483,111.688,66.573,111.045,67.729z"/>
			<path fill-rule="evenodd" clip-rule="evenodd" d="M111.491,109.995c-1.872-0.132-3.197-0.206-4.643-0.374
				c-0.291-0.033-0.604-0.114-0.845-0.27c-0.184-0.119-0.41-0.416-0.377-0.589c0.355-1.891,0.762-3.781,2.22-5.192
				c3.277-3.169,7.135-1.238,8.465,1.563c0.49,1.033,0.752,2.182,1.06,3.293c0.167,0.599-0.029,0.864-0.648,0.956
				C114.891,109.652,113.363,109.846,111.491,109.995z M106.989,107.899c1.098-1.586,2.562-2.222,4.319-2.255
				c1.732-0.032,3.33,0.316,4.632,1.624c-0.259-0.771-0.503-1.537-0.913-2.203c-0.92-1.494-3.062-2.283-4.608-1.786
				C108.636,103.854,107.144,105.795,106.989,107.899z M107.378,108.581c2.906,0.477,5.704,0.409,8.546-0.182
				c-1.276-1.842-3.079-2.248-5.054-2.084C109.373,106.439,108.139,107.105,107.378,108.581z"/>
			<path fill-rule="evenodd" clip-rule="evenodd" fill="#FF958F" d="M125.115,110.936c-1.263-0.086-2.357-0.597-3.227-1.495
				c-0.949-0.979-0.771-2.518,0.349-3.378c1.261-0.97,3.565-1.35,5.099-0.208c1.135,0.845,1.436,2.173,0.666,3.359
				C127.322,110.261,126.463,110.995,125.115,110.936z"/>
			<path fill-rule="evenodd" clip-rule="evenodd" fill="#FF958F" d="M97.23,111.524c-1.596-0.013-3.153-1.472-3.224-2.964
				c-0.073-1.543,1.429-2.607,2.719-2.771c0.982-0.125,1.937,0.03,2.85,0.478c0.953,0.467,1.486,1.219,1.573,2.235
				c0.083,0.983-0.514,1.645-1.3,2.132C99.047,111.13,98.222,111.58,97.23,111.524z"/>
			<path fill-rule="evenodd" clip-rule="evenodd" d="M100.418,99.774c-0.069,0.504-0.08,0.97-0.201,1.405
				c-0.211,0.762-0.738,1.127-1.498,1.132c-0.734,0.004-1.262-0.323-1.422-1.114c-0.152-0.75-0.176-1.542-0.127-2.308
				c0.022-0.357,0.292-0.747,0.549-1.033c0.777-0.863,2.08-0.605,2.455,0.49C100.332,98.808,100.345,99.32,100.418,99.774z"/>
			<path fill-rule="evenodd" clip-rule="evenodd" d="M126.579,99.798c-0.069,0.505-0.082,0.951-0.197,1.368
				c-0.211,0.765-0.731,1.135-1.488,1.145c-0.738,0.009-1.267-0.312-1.431-1.101c-0.155-0.748-0.187-1.542-0.133-2.306
				c0.026-0.375,0.307-0.787,0.582-1.08c0.773-0.824,2.047-0.556,2.416,0.51C126.493,98.813,126.505,99.346,126.579,99.798z"/>
			<path fill-rule="evenodd" clip-rule="evenodd" d="M110.489,91.261c-1.889-0.009-3.636-1.585-3.658-3.26
				c-0.028-2.108,1.416-4.24,3.821-4.05c1.782,0.14,3.574,1.497,3.542,3.746C114.166,89.634,112.482,91.271,110.489,91.261z
				 M110.481,90.496c1.567,0.006,2.931-1.286,2.942-2.791c0.013-1.7-1.298-2.979-3.069-2.995c-1.579-0.015-2.741,1.344-2.756,3.221
				C107.589,89.231,109.004,90.49,110.481,90.496z"/>
			<path fill-rule="evenodd" clip-rule="evenodd" fill="#CC4E4E" d="M106.989,107.899c0.155-2.104,1.647-4.046,3.431-4.619
				c1.546-0.498,3.688,0.292,4.608,1.786c0.41,0.665,0.654,1.432,0.913,2.203c-1.302-1.309-2.9-1.657-4.632-1.624
				C109.551,105.677,108.087,106.314,106.989,107.899z"/>
			<path fill-rule="evenodd" clip-rule="evenodd" fill="#E2807D" d="M107.378,108.581c0.761-1.476,1.994-2.142,3.492-2.266
				c1.975-0.164,3.778,0.242,5.054,2.084C113.082,108.991,110.284,109.058,107.378,108.581z"/>
			<path fill-rule="evenodd" clip-rule="evenodd" fill="#FFF9D5" d="M110.481,90.496c-1.478-0.006-2.892-1.266-2.882-2.565
				c0.015-1.876,1.177-3.235,2.756-3.221c1.771,0.016,3.082,1.295,3.069,2.995C113.412,89.21,112.049,90.503,110.481,90.496z"/>
			<g>
				<path fill-rule="evenodd" clip-rule="evenodd" d="M87.193,108.777c2.306-2.521,4.432-1.533,5.082,0.881
					c0.308-0.251,0.604-0.514,0.921-0.748c1.852-1.369,3.817-0.017,3.927,1.914c0.058,1.031-0.152,2.091-0.339,3.12
					c-0.327,1.801-0.695,3.598-1.122,5.378c-0.144,0.603-0.452,1.196-0.805,1.712c-0.953,1.397-2.733,1.462-3.833,0.157
					c-0.345-0.408-0.578-0.909-0.901-1.428c-0.612,0.917-1.397,1.608-2.692,1.205c-1.149-0.357-1.784-1.168-2.17-2.316
					c-0.144,0.199-0.249,0.341-0.351,0.484c-1,1.404-2.731,1.462-3.894,0.167c-0.777-0.865-0.956-1.9-0.773-2.955
					c0.372-2.143,0.825-4.272,1.313-6.393c0.167-0.727,0.466-1.449,0.833-2.101c0.415-0.737,1.139-1.19,1.969-1.34
					c1.192-0.214,2.203,0.468,2.652,1.694C87.076,108.389,87.128,108.576,87.193,108.777z M86.189,109.43
					c-0.007-0.163,0.006-0.33-0.026-0.489c-0.205-1.042-1.08-1.981-2.339-1.141c-0.555,0.371-0.872,0.88-1.032,1.478
					c-0.469,1.751-0.953,3.501-1.319,5.274c-0.196,0.949-0.214,1.944-0.216,2.92c-0.002,0.776,0.48,1.317,1.181,1.618
					c0.732,0.314,1.208,0.227,1.577-0.469c0.435-0.825,0.809-1.71,1.032-2.611c0.35-1.423,0.553-2.882,0.819-4.327
					C86.002,110.938,86.218,109.436,86.189,109.43z M91.234,110.259c-0.008-0.164,0.007-0.331-0.026-0.489
					c-0.211-1.025-1.08-1.993-2.342-1.141c-0.502,0.339-0.835,0.783-0.979,1.323c-0.503,1.891-1,3.785-1.404,5.698
					c-0.182,0.858-0.181,1.765-0.185,2.65c-0.002,0.787,0.632,1.491,1.386,1.694c0.546,0.147,1.067,0.086,1.315-0.454
					c0.427-0.931,0.872-1.876,1.126-2.861c0.35-1.366,0.533-2.776,0.787-4.166C91.048,111.766,91.262,110.264,91.234,110.259z
					 M91.195,118.566c0.057,1.535,0.592,2.285,1.502,2.501c0.518,0.122,0.987,0.037,1.222-0.447c0.398-0.825,0.825-1.66,1.047-2.54
					c0.379-1.508,0.63-3.051,0.893-4.586c0.143-0.834,0.295-1.685,0.279-2.525c-0.027-1.431-1.235-2.047-2.372-1.216
					c-0.409,0.3-0.791,0.797-0.93,1.278c-0.53,1.844-0.984,3.712-1.407,5.585C91.258,117.371,91.241,118.16,91.195,118.566z"/>
				<path fill-rule="evenodd" clip-rule="evenodd" fill="#F9E280" d="M85.865,111.683c-0.266,1.445-0.468,2.904-0.819,4.327
					c-0.223,0.902-0.597,1.787-1.032,2.611c-0.368,0.697-0.845,0.784-1.577,0.469c-0.701-0.301-1.183-0.843-1.181-1.618
					c0.002-0.976,0.02-1.971,0.216-2.92c0.367-1.774,0.85-3.524,1.319-5.274c0.16-0.598,0.477-1.108,1.032-1.478
					c1.259-0.84,2.134,0.099,2.339,1.141c0.031,0.159,0.018,0.326,0.026,0.489C86.218,109.436,86.002,110.938,85.865,111.683z"/>
				<path fill-rule="evenodd" clip-rule="evenodd" fill="#F9E280" d="M90.912,112.512c-0.254,1.39-0.436,2.8-0.787,4.166
					c-0.254,0.985-0.698,1.93-1.126,2.861c-0.248,0.54-0.769,0.601-1.315,0.454c-0.754-0.203-1.388-0.907-1.386-1.694
					c0.003-0.885,0.003-1.791,0.185-2.65c0.404-1.913,0.901-3.808,1.404-5.698c0.144-0.54,0.477-0.984,0.979-1.323
					c1.263-0.851,2.132,0.117,2.342,1.141c0.032,0.158,0.018,0.325,0.026,0.489C91.262,110.264,91.048,111.766,90.912,112.512z"/>
				<path fill-rule="evenodd" clip-rule="evenodd" fill="#F9E280" d="M91.195,118.566c0.045-0.406,0.063-1.196,0.234-1.951
					c0.423-1.873,0.877-3.741,1.407-5.585c0.138-0.481,0.52-0.979,0.93-1.278c1.137-0.831,2.345-0.215,2.372,1.216
					c0.016,0.84-0.135,1.691-0.279,2.525c-0.263,1.535-0.514,3.078-0.893,4.586c-0.221,0.88-0.649,1.716-1.047,2.54
					c-0.235,0.485-0.704,0.57-1.222,0.447C91.787,120.852,91.252,120.101,91.195,118.566z"/>
				<path fill-rule="evenodd" clip-rule="evenodd" fill="#F2C370" d="M82.858,116.209c-0.424-0.04-0.655,0.086-0.627,0.569
					c0.043,0.729,0.366,1.223,0.838,1.192c0.313-0.02,0.911-0.819,0.83-1.281C83.801,116.124,83.251,116.271,82.858,116.209z"/>
				<path fill-rule="evenodd" clip-rule="evenodd" fill="#F2C370" d="M87.927,117.079c-0.416-0.047-0.663,0.06-0.636,0.55
					c0.04,0.725,0.361,1.224,0.831,1.201c0.317-0.016,1.013-0.972,0.828-1.312C88.794,117.235,87.949,117.032,87.927,117.079z"/>
				<path fill-rule="evenodd" clip-rule="evenodd" fill="#F2C370" d="M92.133,118.785c-0.053-0.444,0.113-0.666,0.575-0.626
					c0.197,0.017,0.4,0.003,0.591,0.047c0.564,0.131,0.622,0.252,0.416,0.783c-0.059,0.151-0.098,0.327-0.202,0.44
					c-0.17,0.184-0.417,0.482-0.576,0.45c-0.247-0.048-0.481-0.307-0.655-0.527C92.171,119.211,92.179,118.977,92.133,118.785z"/>
			</g>
			<g>
				<path fill-rule="evenodd" clip-rule="evenodd" d="M135.349,108.208c0.45-1.226,1.461-1.908,2.653-1.694
					c0.831,0.15,1.554,0.603,1.969,1.34c0.367,0.653,0.665,1.374,0.833,2.101c0.488,2.12,0.941,4.25,1.313,6.393
					c0.183,1.055,0.004,2.09-0.773,2.955c-1.163,1.295-2.894,1.237-3.894-0.167c-0.102-0.143-0.206-0.285-0.351-0.484
					c-0.386,1.148-1.021,1.959-2.17,2.316c-1.295,0.404-2.08-0.287-2.692-1.205c-0.322,0.519-0.556,1.02-0.901,1.428
					c-1.101,1.306-2.881,1.24-3.834-0.157c-0.353-0.516-0.661-1.109-0.805-1.712c-0.427-1.78-0.795-3.577-1.122-5.378
					c-0.187-1.029-0.398-2.089-0.339-3.12c0.11-1.931,2.075-3.283,3.927-1.914c0.317,0.234,0.613,0.496,0.921,0.748
					c0.65-2.414,2.776-3.402,5.082-0.881C135.23,108.576,135.282,108.389,135.349,108.208z M136.493,111.683
					c0.265,1.445,0.468,2.904,0.819,4.327c0.223,0.902,0.596,1.787,1.032,2.611c0.368,0.697,0.845,0.784,1.577,0.469
					c0.701-0.301,1.183-0.843,1.181-1.618c-0.002-0.976-0.021-1.971-0.216-2.92c-0.367-1.774-0.85-3.524-1.319-5.274
					c-0.16-0.598-0.477-1.108-1.032-1.478c-1.259-0.84-2.134,0.099-2.34,1.141c-0.031,0.159-0.018,0.326-0.025,0.489
					C136.139,109.436,136.356,110.938,136.493,111.683z M131.446,112.512c0.254,1.39,0.436,2.8,0.787,4.166
					c0.254,0.985,0.699,1.93,1.126,2.861c0.248,0.54,0.769,0.601,1.315,0.454c0.754-0.203,1.389-0.907,1.386-1.694
					c-0.003-0.885-0.003-1.791-0.184-2.65c-0.404-1.913-0.901-3.808-1.404-5.698c-0.144-0.54-0.477-0.984-0.979-1.323
					c-1.263-0.851-2.132,0.117-2.342,1.141c-0.032,0.158-0.018,0.325-0.026,0.489C131.096,110.264,131.31,111.766,131.446,112.512z
					 M130.928,116.616c-0.423-1.873-0.877-3.741-1.407-5.585c-0.138-0.481-0.52-0.979-0.93-1.278
					c-1.137-0.831-2.345-0.215-2.372,1.216c-0.016,0.84,0.135,1.691,0.279,2.525c0.263,1.535,0.514,3.078,0.893,4.586
					c0.222,0.88,0.649,1.716,1.047,2.54c0.235,0.485,0.704,0.57,1.222,0.447c0.91-0.215,1.445-0.966,1.502-2.501
					C131.117,118.16,131.099,117.371,130.928,116.616z"/>
				<path fill-rule="evenodd" clip-rule="evenodd" fill="#F9E280" d="M136.169,109.43c0.007-0.163-0.006-0.33,0.025-0.489
					c0.206-1.042,1.08-1.981,2.34-1.141c0.555,0.371,0.872,0.88,1.032,1.478c0.469,1.751,0.953,3.501,1.319,5.274
					c0.196,0.949,0.214,1.944,0.216,2.92c0.002,0.776-0.48,1.317-1.181,1.618c-0.732,0.314-1.209,0.227-1.577-0.469
					c-0.435-0.825-0.809-1.71-1.032-2.611c-0.351-1.423-0.553-2.882-0.819-4.327C136.356,110.938,136.139,109.436,136.169,109.43z"
					/>
				<path fill-rule="evenodd" clip-rule="evenodd" fill="#F9E280" d="M131.124,110.259c0.008-0.164-0.007-0.331,0.026-0.489
					c0.211-1.025,1.08-1.993,2.342-1.141c0.502,0.339,0.835,0.783,0.979,1.323c0.503,1.891,1,3.785,1.404,5.698
					c0.181,0.858,0.181,1.765,0.184,2.65c0.003,0.787-0.632,1.491-1.386,1.694c-0.546,0.147-1.067,0.086-1.315-0.454
					c-0.427-0.931-0.872-1.876-1.126-2.861c-0.35-1.366-0.533-2.776-0.787-4.166C131.31,111.766,131.096,110.264,131.124,110.259z"
					/>
				<path fill-rule="evenodd" clip-rule="evenodd" fill="#F9E280" d="M129.661,121.067c-0.518,0.122-0.987,0.037-1.222-0.447
					c-0.398-0.825-0.825-1.66-1.047-2.54c-0.379-1.508-0.63-3.051-0.893-4.586c-0.143-0.834-0.295-1.685-0.279-2.525
					c0.027-1.431,1.235-2.047,2.372-1.216c0.409,0.3,0.791,0.797,0.93,1.278c0.53,1.844,0.984,3.712,1.407,5.585
					c0.171,0.755,0.188,1.545,0.234,1.951C131.105,120.101,130.57,120.852,129.661,121.067z"/>
				<path fill-rule="evenodd" clip-rule="evenodd" fill="#F2C370" d="M139.5,116.209c-0.393,0.062-0.943-0.085-1.04,0.48
					c-0.081,0.462,0.517,1.261,0.83,1.281c0.472,0.031,0.795-0.464,0.838-1.192C140.155,116.295,139.924,116.169,139.5,116.209z"/>
				<path fill-rule="evenodd" clip-rule="evenodd" fill="#F2C370" d="M133.409,117.518c-0.185,0.34,0.511,1.296,0.828,1.312
					c0.47,0.023,0.791-0.476,0.831-1.201c0.026-0.49-0.22-0.597-0.637-0.55C134.408,117.032,133.563,117.235,133.409,117.518z"/>
				<path fill-rule="evenodd" clip-rule="evenodd" fill="#F2C370" d="M130.224,118.785c0.053-0.444-0.113-0.666-0.575-0.626
					c-0.197,0.017-0.4,0.003-0.591,0.047c-0.564,0.131-0.622,0.252-0.415,0.783c0.058,0.151,0.098,0.327,0.202,0.44
					c0.17,0.184,0.417,0.482,0.576,0.45c0.247-0.048,0.481-0.307,0.655-0.527C130.186,119.211,130.179,118.977,130.224,118.785z"/>
			</g>
		</g>
	</g>
	<g>
		<g>
			<path d="M91.706,47.809v-7.725c0-0.406,0.314-0.72,0.72-0.72h0.013c0,0,0,0,0.026,0h4.242c0.38,0,0.72,0.314,0.72,0.72
				c0,0.406-0.34,0.733-0.72,0.733h-3.548v2.396h3.051c0.393,0,0.72,0.34,0.72,0.72c0,0.406-0.327,0.733-0.72,0.733h-3.051v2.409
				h3.548c0.38,0,0.72,0.327,0.72,0.733c0,0.393-0.34,0.72-0.72,0.72h-4.242c-0.026,0-0.026-0.013-0.026-0.013l-0.013,0.013
				C92.02,48.529,91.706,48.202,91.706,47.809z"/>
			<path d="M105.112,47.442c0.131,0.38-0.078,0.786-0.458,0.917c-0.052,0.013-0.157,0.039-0.288,0.039c0,0,0,0-0.013,0
				c-0.131,0-0.327-0.026-0.511-0.144c-0.17-0.105-0.314-0.275-0.419-0.458c-0.183-0.38-0.275-0.851-0.275-1.571
				c-0.013-0.249-0.065-0.419-0.157-0.563c-0.079-0.144-0.236-0.275-0.393-0.38c-0.275-0.183-0.615-0.288-0.733-0.314h-1.545v2.841
				c0,0.393-0.327,0.72-0.733,0.72c-0.406,0-0.72-0.327-0.72-0.72v-7.725c0-0.406,0.314-0.72,0.72-0.72c0,0,0,0,0.013,0h2.331
				c1.558,0,2.802,1.257,2.802,2.815c0,0.864-0.393,1.624-1.021,2.147c0.17,0.131,0.327,0.288,0.458,0.484
				c0.262,0.38,0.432,0.864,0.432,1.414c-0.013,0.393,0.026,0.642,0.052,0.772C104.863,47.063,105.033,47.22,105.112,47.442z
				 M103.279,42.179c0-0.759-0.602-1.362-1.349-1.362h-1.61v2.697h1.61C102.677,43.514,103.279,42.912,103.279,42.179z"/>
			<path d="M112.905,47.442c0.131,0.38-0.079,0.786-0.458,0.917c-0.052,0.013-0.157,0.039-0.288,0.039c0,0,0,0-0.013,0
				c-0.131,0-0.328-0.026-0.511-0.144c-0.17-0.105-0.314-0.275-0.419-0.458c-0.183-0.38-0.275-0.851-0.275-1.571
				c-0.013-0.249-0.065-0.419-0.157-0.563c-0.078-0.144-0.236-0.275-0.393-0.38c-0.275-0.183-0.615-0.288-0.733-0.314h-1.545v2.841
				c0,0.393-0.327,0.72-0.733,0.72c-0.406,0-0.72-0.327-0.72-0.72v-7.725c0-0.406,0.314-0.72,0.72-0.72c0,0,0,0,0.013,0h2.33
				c1.558,0,2.802,1.257,2.802,2.815c0,0.864-0.393,1.624-1.021,2.147c0.17,0.131,0.327,0.288,0.458,0.484
				c0.262,0.38,0.432,0.864,0.432,1.414c-0.013,0.393,0.026,0.642,0.052,0.772C112.657,47.063,112.827,47.22,112.905,47.442z
				 M111.072,42.179c0-0.759-0.603-1.362-1.349-1.362h-1.61v2.697h1.61C110.47,43.514,111.072,42.912,111.072,42.179z"/>
			<path d="M121.446,40.503c0.812,0.864,1.322,2.016,1.322,3.312c0,1.296-0.51,2.462-1.322,3.313
				c-0.773,0.851-1.925,1.401-3.129,1.401c-1.257,0-2.409-0.55-3.208-1.401c-0.811-0.851-1.296-2.016-1.296-3.313
				c0-1.296,0.484-2.449,1.296-3.312c0.799-0.864,1.952-1.401,3.208-1.401C119.521,39.102,120.673,39.639,121.446,40.503z
				 M121.276,43.816c0-0.89-0.353-1.715-0.89-2.291c-0.55-0.589-1.284-0.929-2.069-0.929c-0.838,0-1.571,0.34-2.121,0.929
				c-0.55,0.576-0.89,1.401-0.89,2.291c0,0.891,0.34,1.715,0.89,2.278c0.55,0.589,1.283,0.943,2.121,0.943
				c0.785,0,1.519-0.353,2.069-0.943C120.923,45.531,121.276,44.706,121.276,43.816z"/>
			<path d="M130.241,47.442c0.131,0.38-0.078,0.786-0.458,0.917c-0.052,0.013-0.157,0.039-0.288,0.039c0,0,0,0-0.013,0
				c-0.131,0-0.327-0.026-0.51-0.144c-0.17-0.105-0.314-0.275-0.419-0.458c-0.183-0.38-0.275-0.851-0.275-1.571
				c-0.013-0.249-0.065-0.419-0.157-0.563c-0.079-0.144-0.235-0.275-0.393-0.38c-0.275-0.183-0.615-0.288-0.733-0.314h-1.545v2.841
				c0,0.393-0.327,0.72-0.733,0.72c-0.406,0-0.72-0.327-0.72-0.72v-7.725c0-0.406,0.314-0.72,0.72-0.72c0,0,0,0,0.013,0h2.331
				c1.558,0,2.802,1.257,2.802,2.815c0,0.864-0.393,1.624-1.021,2.147c0.17,0.131,0.327,0.288,0.458,0.484
				c0.262,0.38,0.432,0.864,0.432,1.414c-0.013,0.393,0.026,0.642,0.052,0.772C129.992,47.063,130.163,47.22,130.241,47.442z
				 M128.408,42.179c0-0.759-0.603-1.362-1.348-1.362h-1.611v2.697h1.611C127.806,43.514,128.408,42.912,128.408,42.179z"/>
		</g>
		<g>
			<path d="M106.949,34.586c0,0.406-0.327,0.72-0.733,0.72h-0.131v0.995c0,0.406-0.314,0.72-0.72,0.72
				c-0.406,0-0.72-0.314-0.72-0.72v-0.995h-4.098h-0.013h-0.013c-0.157,0-0.314-0.039-0.445-0.157
				c-0.327-0.249-0.367-0.694-0.118-1.008l4.845-6.023c0.013,0,0.013-0.013,0.026-0.026c0.013-0.013,0.026-0.026,0.039-0.052
				c0.039-0.013,0.052-0.026,0.065-0.039c0.013-0.013,0.039-0.026,0.052-0.039c0.026-0.013,0.039-0.026,0.078-0.026
				c0.013-0.026,0.026-0.039,0.052-0.039c0.013-0.013,0.039-0.013,0.079-0.026c0.013,0,0.039,0,0.052-0.013c0.026,0,0.066,0,0.092,0
				c0,0,0.013,0,0.026,0c0.013,0,0.013,0,0.026,0c0.026,0,0.065,0,0.079,0c0.026,0.013,0.039,0.013,0.066,0.013
				c0.013,0.013,0.052,0.013,0.078,0.026c0.013,0,0.039,0.013,0.052,0.013c0.026,0.026,0.052,0.039,0.066,0.053
				c0.026,0.013,0.039,0.026,0.065,0.039c0,0,0.013,0,0.013,0.013c0.013,0,0.039,0.013,0.039,0.026
				c0.026,0.026,0.039,0.039,0.052,0.052c0.013,0.013,0.026,0.039,0.039,0.053c0.013,0.013,0.026,0.026,0.052,0.065
				c0,0.013,0.013,0.039,0.026,0.053c0.013,0.026,0.013,0.039,0.026,0.079c0,0.013,0.013,0.039,0.013,0.052
				c0.013,0.026,0.013,0.039,0.013,0.079c0,0.026,0.013,0.039,0.013,0.065c0,0.013,0,0.026,0,0.039v5.29h0.131
				C106.622,33.866,106.949,34.194,106.949,34.586z M104.645,30.632l-2.606,3.234h2.606V30.632z"/>
			<path d="M107.897,32.439c0.013-1.205,0.314-2.291,0.89-3.129c0.55-0.838,1.401-1.454,2.435-1.454
				c1.008,0,1.872,0.616,2.422,1.454c0.563,0.838,0.877,1.925,0.877,3.129c0,1.191-0.314,2.291-0.877,3.129
				c-0.55,0.825-1.414,1.453-2.422,1.453c-1.034,0-1.885-0.629-2.435-1.453C108.212,34.731,107.91,33.63,107.897,32.439z
				 M113.069,32.439c0-0.943-0.262-1.768-0.629-2.331c-0.38-0.55-0.812-0.812-1.218-0.799c-0.406-0.013-0.851,0.249-1.244,0.799
				c-0.367,0.563-0.629,1.388-0.629,2.331c0,0.93,0.262,1.768,0.629,2.318c0.393,0.563,0.838,0.812,1.244,0.812
				c0.406,0,0.838-0.249,1.218-0.812C112.808,34.207,113.069,33.369,113.069,32.439z"/>
			<path d="M122.295,34.586c0,0.406-0.327,0.72-0.733,0.72h-0.131v0.995c0,0.406-0.314,0.72-0.72,0.72
				c-0.406,0-0.72-0.314-0.72-0.72v-0.995h-4.098h-0.013h-0.013c-0.157,0-0.314-0.039-0.445-0.157
				c-0.328-0.249-0.367-0.694-0.118-1.008l4.845-6.023c0.013,0,0.013-0.013,0.026-0.026c0.013-0.013,0.026-0.026,0.04-0.052
				c0.039-0.013,0.052-0.026,0.065-0.039c0.013-0.013,0.039-0.026,0.052-0.039c0.026-0.013,0.039-0.026,0.078-0.026
				c0.013-0.026,0.026-0.039,0.053-0.039c0.013-0.013,0.039-0.013,0.078-0.026c0.013,0,0.04,0,0.052-0.013c0.026,0,0.065,0,0.091,0
				c0,0,0.014,0,0.026,0c0.013,0,0.013,0,0.026,0c0.026,0,0.065,0,0.079,0c0.026,0.013,0.039,0.013,0.065,0.013
				c0.013,0.013,0.053,0.013,0.078,0.026c0.013,0,0.04,0.013,0.053,0.013c0.026,0.026,0.052,0.039,0.065,0.053
				c0.026,0.013,0.04,0.026,0.065,0.039c0,0,0.013,0,0.013,0.013c0.014,0,0.039,0.013,0.039,0.026
				c0.026,0.026,0.04,0.039,0.052,0.052c0.013,0.013,0.026,0.039,0.039,0.053c0.013,0.013,0.026,0.026,0.052,0.065
				c0,0.013,0.014,0.039,0.026,0.053c0.013,0.026,0.013,0.039,0.026,0.079c0,0.013,0.013,0.039,0.013,0.052
				c0.013,0.026,0.013,0.039,0.013,0.079c0,0.026,0.013,0.039,0.013,0.065c0,0.013,0,0.026,0,0.039v5.29h0.131
				C121.968,33.866,122.295,34.194,122.295,34.586z M119.991,30.632l-2.606,3.234h2.606V30.632z"/>
		</g>
	</g>
	<g>
		<g>
			<path fill="#FFFFFF" d="M26.258,131.275h-2.871v-1.817h7.908v1.817h-2.871v7.759h-2.167V131.275z"/>
			<path fill="#FFFFFF" d="M32.686,129.458h2.171v3.688h2.598v-3.688h2.171v9.576h-2.171v-3.996h-2.598v3.996h-2.171V129.458z"/>
			<path fill="#FFFFFF" d="M41.65,137.217h2.236v-5.941H41.65v-1.817h6.64v1.817h-2.236v5.941h2.236v1.817h-6.64V137.217z"/>
			<path fill="#FFFFFF" d="M50.117,137.827l1.244-1.488c0.724,0.593,1.617,1,2.545,1c0.92,0,1.345-0.356,1.345-0.824
				c0-0.689-0.569-0.856-1.476-1.236l-1.248-0.532c-1.061-0.403-2.029-1.217-2.029-2.61c0-1.586,1.428-2.854,3.509-2.854
				c1.152,0,2.316,0.432,3.181,1.254l-1.092,1.366c-0.674-0.484-1.271-0.748-2.207-0.748c-0.714,0-1.198,0.296-1.198,0.854
				c0,0.576,0.642,0.787,1.56,1.132l1.172,0.496c1.254,0.471,2.046,1.252,2.046,2.604c0,1.592-1.335,2.971-3.706,2.971
				C52.469,139.211,51.132,138.737,50.117,137.827z"/>
			<path fill="#FFFFFF" d="M68.101,129.458h3.397c2.078,0,3.751,0.752,3.751,3.08c0,2.255-1.72,3.248-3.751,3.248h-1.23v3.248
				h-2.167V129.458z M71.373,134.066c1.188,0,1.752-0.532,1.752-1.528c0-0.999-0.611-1.359-1.752-1.359h-1.104v2.888H71.373z"/>
			<path fill="#FFFFFF" d="M76.908,137.217h2.236v-5.941h-2.236v-1.817h6.64v1.817h-2.236v5.941h2.236v1.817h-6.64V137.217z"/>
			<path fill="#FFFFFF" d="M85.43,134.299c0-3.174,2.009-5.017,4.575-5.017c1.214,0,2.21,0.579,2.857,1.218l-1.193,1.341
				c-0.457-0.423-0.973-0.687-1.664-0.687c-1.36,0-2.353,1.155-2.353,3.073c0,1.969,0.993,3.111,2.438,3.111
				c0.691,0,1.261-0.34,1.725-0.847l1.193,1.312c-0.781,0.924-1.853,1.407-3.142,1.407C87.486,139.211,85.43,137.528,85.43,134.299z
				"/>
			<path fill="#FFFFFF" d="M96.774,131.275h-2.871v-1.817h7.908v1.817h-2.871v7.759h-2.167V131.275z"/>
			<path fill="#FFFFFF" d="M103.202,135.348v-5.89h2.171v6.109c0,1.146,0.422,1.771,1.324,1.771c0.906,0,1.354-0.625,1.354-1.771
				v-6.109h2.091v5.89c0,2.486-1.119,3.863-3.445,3.863C104.367,139.211,103.202,137.834,103.202,135.348z"/>
			<path fill="#FFFFFF" d="M112.099,129.458h3.404c2.028,0,3.697,0.706,3.697,2.983c0,2.201-1.669,3.148-3.697,3.148h-1.233v3.444
				h-2.171V129.458z M115.326,133.869c1.139,0,1.749-0.49,1.749-1.428c0-0.945-0.61-1.263-1.749-1.263h-1.057v2.69H115.326z
				 M116.604,133.63l3.056,5.404h-2.425l-2.131-4.016L116.604,133.63z"/>
			<path fill="#FFFFFF" d="M121.25,129.458h6.348v1.817h-4.181v1.921h3.552v1.816h-3.552v2.204h4.327v1.817h-6.494V129.458z"/>
			<path fill="#FFFFFF" d="M138.61,137.217h2.235v-5.941h-2.235v-1.817h6.64v1.817h-2.236v5.941h2.236v1.817h-6.64V137.217z"/>
			<path fill="#FFFFFF" d="M147.076,137.827l1.244-1.488c0.724,0.593,1.617,1,2.546,1c0.919,0,1.344-0.356,1.344-0.824
				c0-0.689-0.569-0.856-1.475-1.236l-1.248-0.532c-1.062-0.403-2.029-1.217-2.029-2.61c0-1.586,1.429-2.854,3.509-2.854
				c1.152,0,2.316,0.432,3.181,1.254l-1.092,1.366c-0.675-0.484-1.271-0.748-2.207-0.748c-0.714,0-1.198,0.296-1.198,0.854
				c0,0.576,0.642,0.787,1.561,1.132l1.172,0.496c1.253,0.471,2.045,1.252,2.045,2.604c0,1.592-1.335,2.971-3.705,2.971
				C149.429,139.211,148.092,138.737,147.076,137.827z"/>
			<path fill="#FFFFFF" d="M165.531,129.458h2.163v7.759h4.263v1.817h-6.426V129.458z"/>
			<path fill="#FFFFFF" d="M173.336,134.202c0-3.2,1.571-4.92,3.852-4.92c2.281,0,3.852,1.72,3.852,4.92
				c0,3.276-1.57,5.009-3.852,5.009C174.907,139.211,173.336,137.479,173.336,134.202z M178.817,134.202
				c0-1.99-0.631-3.048-1.63-3.048s-1.629,1.058-1.629,3.048c0,2.065,0.63,3.137,1.629,3.137S178.817,136.268,178.817,134.202z"/>
			<path fill="#FFFFFF" d="M182.334,137.827l1.244-1.488c0.724,0.593,1.617,1,2.546,1c0.919,0,1.344-0.356,1.344-0.824
				c0-0.689-0.569-0.856-1.475-1.236l-1.248-0.532c-1.062-0.403-2.029-1.217-2.029-2.61c0-1.586,1.429-2.854,3.509-2.854
				c1.152,0,2.316,0.432,3.181,1.254l-1.092,1.366c-0.675-0.484-1.271-0.748-2.207-0.748c-0.714,0-1.198,0.296-1.198,0.854
				c0,0.576,0.642,0.787,1.561,1.132l1.172,0.496c1.253,0.471,2.045,1.252,2.045,2.604c0,1.592-1.335,2.971-3.705,2.971
				C184.687,139.211,183.35,138.737,182.334,137.827z"/>
			<path fill="#FFFFFF" d="M193.732,131.275h-2.87v-1.817h7.908v1.817h-2.87v7.759h-2.168V131.275z"/>
		</g>
	</g>
</g>
</svg>
