<?xml version="1.0" encoding="utf-8"?>
<!-- Generator: Adobe Illustrator 22.0.1, SVG Export Plug-In . SVG Version: 6.00 Build 0)  -->
<svg version="1.1" id="Layer_1" xmlns="http://www.w3.org/2000/svg" xmlns:xlink="http://www.w3.org/1999/xlink" x="0px" y="0px"
	 viewBox="169.604 86.292 170.5 311.875" enable-background="new 169.604 86.292 170.5 311.875" xml:space="preserve">
<g id="Layer_1_1_" display="none">
	<g display="inline">
		<path id="Yilan_County" fill="#FFD522" stroke="#D64949" stroke-width="0.25" stroke-linecap="round" stroke-linejoin="round" d="
			M380.635,256.865l-0.424-0.609l-1.812-1.029l-3.246,0.678l-4.582,2.445l-2.002,1.328l-6.082,1.242l-0.771,1.615l1.363,1.938
			l-0.889,2.07l-2.506,1.594l-1.922,0.674l-2.018,1.066l-1.777,2.244l-1.682,2.744l-2.748,1.959l-3.381,1.047l-7.352,4.4
			l-7.115,2.894l-2.074,1.242l-2.586,2.176l-1.043,2.701l0.07,2.266l0.559,1.738l0.229,1.109l-2.127,1.5l-3.629,1.764l-2.693,1.893
			l-2.073,1.781l-2.67,1.002l-3.147,0.881l-1.673,0.467l-2.928,2.133l1.7,6.783l-1.23,2.088l-1.875,0.697l-1.754-0.352l-2.133,0.873
			l-0.3,0.82l-1.266,3.541l-0.736,2.588l0.315,2.391l-2.049,3.176l-7.631,7.728l-2.369,5.707l1.992,0.547l-0.373,3.035l0.795,2.021
			l2.684,0.586l2.394,1.391l2.028,1.389l2.133-0.328l2.611-1.236h2.67l3.178,2.562l1.361,1.103l3.543,1.713l8.221,2.086l4.498,1.719
			l3.564,0.017l2.689-2.473l1.267-3.252l2.078-0.479l10.092,6.025l6.07,0.914l0.592,0.014l-0.113-0.125l-0.57-0.902l0.277-0.75
			l0.547-0.723l0.307-0.891l0.281-3.467l0.44-1.76l0.701-1.229l0.631-1.461l-0.234-3.805l0.131-1.721l3.84-4.402l3.383-1.969
			l1.379-1.295l-0.328-1.525l-0.922-1.475l-0.422-1.629l0.246-1.342l3.256-1.852l0.457-3.082l-0.736-3.539l-1.434-2.736l1.012-0.725
			l1.414-0.459l1.68-0.176l1.777,0.182v-0.98l-4.182-0.768l-3.545-2.197l-1.869-3.399l-0.105-4.41l0.771-2.159l0.104-2.158
			l-1.797-8.438l-0.141-4.052l0.289-4.172l0.83-4.196l1.271-3.666l1.611-2.623l10.188-12.424l3.014-2.613l6.531-3.234v-0.003h0.006
			V256.865z M377.473,278.277l-1.053-0.18l-0.129-0.064l-0.059,0.033l-0.09-0.015l-0.082,0.115l-1.355,0.776l-0.539-0.18
			l0.701,1.133l0.047,0.006l0.211,0.334l0.736,0.418l2.088,0.07l0.398-1.271l-0.354-0.343L377.473,278.277z"/>
		
			<polygon id="Taoyuan_City" fill="#FFD522" stroke="#D64949" stroke-width="0.25" stroke-linecap="round" stroke-linejoin="round" points="
			310.504,305.219 309.164,302.246 304.287,297.635 303.531,294.588 303.094,291.758 304.801,289.715 305.59,286.865 
			301.006,280.137 298.254,279.047 294.209,279.262 291.408,277.699 292.148,274.035 291.594,271.246 288.672,268.459 
			288.08,265.69 288.672,262.529 288.555,259.15 290.57,256.951 297.684,254.859 299.523,252.961 300.057,250.67 299.797,248.467 
			296.996,244.389 294.684,243.166 292.469,242.641 290.727,241.07 288.139,239.414 284.723,237.756 282.41,235.242 
			271.445,237.227 266.566,238.984 264.117,240.318 262.098,242.098 259.754,243.566 249.703,246.871 245.781,250.193 
			241.99,254.713 237.136,262.451 238.873,263.059 246.304,262.529 248.824,264.23 251.004,268.961 253.732,270.027 
			256.088,270.707 258.316,271.773 262.053,272.99 264.01,275.258 263.395,278.459 265.277,280.484 268.85,281.617 271.123,283.272 
			272.836,284.971 274.92,285.363 277.016,285.188 278.869,287.102 280.289,289.582 282.664,290.758 284.529,292.195 
			284.723,294.938 285.584,298.898 284.559,303.119 282.039,306.664 282.352,309.037 285.139,311.184 288.516,313.209 
			291.539,313.73 293.734,315.297 297.707,317.557 300.315,318.728 300.613,317.908 302.746,317.035 304.5,317.387 306.375,316.689 
			307.605,314.602 305.904,307.818 308.832,305.685 		"/>
		
			<polygon id="Taipei" fill="#FFD522" stroke="#D64949" stroke-width="0.25" stroke-linecap="round" stroke-linejoin="round" points="
			333.129,249.232 330.625,247.824 330.523,245.043 331.41,241.443 330.523,239.02 328.402,237.139 327.055,231.654 
			326.133,229.723 325.289,227.938 325.066,226.055 325.363,224.09 324.238,222.908 322.147,222.223 319.969,223.303 
			318.367,224.662 312.426,228.199 310.484,230.379 309.326,232.867 308.348,234.176 307.475,235.797 309.535,238.105 
			312.678,241.115 313.328,244.52 312.469,248.578 314.633,252.24 317.775,254.711 319.85,257.082 321.852,258.848 324.477,259.435 
			327.645,259.469 329.928,258.52 334.078,253.289 335.16,250.965 		"/>
		
			<path id="New_Taipei_City" fill="#FFD522" stroke="#D64949" stroke-width="0.25" stroke-linecap="round" stroke-linejoin="round" d="
			M382.246,252.105l-2.301-0.617l-1.959-0.207l-3.818,0.58l-1.15-0.527l-1.439-2.217l-1.328-4.74l-0.387-2.834l0.246-1.598
			l0.887-1.998l-1.764-1.121l-18.867-4.584l-0.162,6.518l0.092,1.652l2.018,2.111l-0.209,1.342l-1.379,1.014l-2.178,0.818
			l-2.805-0.359l-5.767-2.404l-1.629-1.162l-2-1.9l-1.558-1.898l-0.936-1.914l-1.556-2.014l-0.311-1.572l1.733-1.18l3.912-1.701
			l2.401-1.602l0.002-0.002l-1.256-0.883l-0.584-0.689l-0.047-1.193l0.549-0.969l0.574-0.703l0.065-0.482l-1.188-0.33l-1.683,0.195
			l-1.47,0.406l-0.641,0.27l-1.964-4.076l-5.461-7.709l-2.45-1.84l-5.894-0.695l-6.013,1.373l-5.237,2.672l-3.584,3.244
			l-1.738,3.188l-1.133,2.813l-0.434,0.504l-1.035,0.488l-0.994,0.826l-0.478,1.477l1.668,1.045l3.164,3.205l1.973,3.1l-1.891,0.768
			l-0.852-0.846l-0.666-1.5l-1.029-1.438l-1.912-0.639l-1.658,0.025l-1.236,0.219l-1.002,0.502l-3.363,2.799l-2.59,1.02
			l-6.137,1.107l-0.008,0.002l2.312,2.514l3.416,1.658l2.588,1.656l1.742,1.57l2.215,0.525l2.313,1.223l2.801,4.078l0.261,2.203
			l-0.533,2.291l-1.84,1.898l-7.113,2.092l-2.016,2.199l0.116,3.379l-0.592,3.16l0.592,2.77l2.923,2.787l0.555,2.789l-0.74,3.664
			l2.801,1.562l4.045-0.215l2.752,1.09l4.584,6.729l-0.789,2.85l-1.707,2.043l0.438,2.83l0.756,3.047l4.877,4.61l1.34,2.974
			l3.148-0.881l2.67-1.003l2.074-1.78l2.692-1.894l3.63-1.765l2.127-1.5l-0.229-1.108l-0.558-1.737l-0.071-2.267l1.043-2.701
			l2.586-2.176l2.073-1.242l7.117-2.895l7.351-4.399l3.381-1.047l2.748-1.959l1.682-2.744l1.777-2.244l2.017-1.065l1.923-0.674
			l2.506-1.595l0.889-2.069l-1.363-1.939l0.771-1.615l6.082-1.241l2.002-1.328l4.582-2.445l3.246-0.678l1.812,1.029l0.424,0.609
			v0.002l4.74-2.348l-1.098-1.391L382.246,252.105z M334.078,253.289l-4.15,5.23l-2.281,0.948l-3.17-0.032l-2.625-0.588
			l-2.002-1.767l-2.072-2.371l-3.145-2.471l-2.164-3.662l0.859-4.059l-0.65-3.404l-3.143-3.01l-2.061-2.309l0.873-1.621l0.979-1.309
			l1.158-2.488l1.941-2.18l5.939-3.537l1.604-1.359l2.178-1.08l2.092,0.686l1.125,1.182l-0.297,1.965l0.223,1.883l0.844,1.785
			l0.922,1.932l1.35,5.484l2.121,1.881l0.887,2.424l-0.887,3.6l0.102,2.781l2.506,1.408l2.029,1.732L334.078,253.289z"/>
		
			<polygon id="Keelung" fill="#FFD522" stroke="#D64949" stroke-width="0.25" stroke-linecap="round" stroke-linejoin="round" points="
			350.295,240.412 350.203,238.76 350.365,232.242 344.236,230.754 342.137,229.98 341.225,229.078 340.803,228.523 
			340.041,227.988 340.039,227.99 337.637,229.592 333.725,231.293 331.99,232.473 332.301,234.045 333.855,236.059 
			334.791,237.973 336.348,239.871 338.348,241.771 339.977,242.934 345.742,245.338 348.547,245.697 350.723,244.879 
			352.102,243.865 352.31,242.523 		"/>
		
			<polygon id="Hsinchu_County" fill="#FFD522" stroke="#D64949" stroke-width="0.25" stroke-linecap="round" stroke-linejoin="round" points="
			300.315,318.728 297.707,317.557 293.734,315.297 291.539,313.73 288.516,313.209 285.139,311.184 282.352,309.037 
			282.039,306.664 284.559,303.119 285.584,298.898 284.723,294.938 284.529,292.195 282.664,290.758 280.289,289.582 
			278.869,287.102 277.016,285.188 274.92,285.363 272.836,284.971 271.123,283.272 268.85,281.617 265.277,280.484 
			263.395,278.459 264.01,275.258 262.053,272.99 258.316,271.773 256.088,270.707 253.732,270.027 251.004,268.961 248.824,264.23 
			246.304,262.529 238.873,263.059 237.136,262.451 237.136,262.453 236.013,264.246 234.789,267.574 234.426,269.176 
			234.544,269.846 233.166,270.315 231.719,271.492 230.588,273.055 230.131,274.645 229.804,276.74 228.988,277.957 228.953,278 
			233.484,279.961 241.711,282.574 244.66,284.143 246.771,286.232 247.779,288.232 247.246,290.24 245.965,290.978 243.14,291.457 
			239.963,292.762 238.078,295.113 236.847,298.203 235.492,299.861 237.914,305.902 240.021,308.334 243.297,310.771 
			249.935,313.902 252.027,315.728 252.455,318.6 252.265,320.727 251.835,322.596 251.301,324.316 251.835,325.9 252.351,328.051 
			251.679,330.594 251.179,333.353 253.414,333.895 257.605,332.744 261.32,332.504 263.914,332.762 270.77,331.023 
			273.496,333.201 274.215,335.609 276.022,337.367 278.496,341.627 278.846,344.285 279.268,343.988 285.033,343.445 
			286.578,343.859 288.947,338.152 296.578,330.424 298.627,327.248 298.312,324.857 299.049,322.27 		"/>
		
			<polygon id="Hsinchu" fill="#FFD522" stroke="#D64949" stroke-width="0.25" stroke-linecap="round" stroke-linejoin="round" points="
			246.771,286.232 244.66,284.143 241.711,282.574 233.484,279.961 228.953,278 228.953,278.002 228.008,279.004 227.191,280.625 
			227.787,281.848 228.148,282.848 228.172,283.775 227.775,284.629 226.582,286.256 223.551,292.457 222.938,294.693 
			222.947,294.695 226.697,296.158 229.008,297.57 230.492,299.639 232.875,300.594 235.39,299.988 235.492,299.861 
			236.847,298.203 238.078,295.113 239.963,292.762 243.14,291.457 245.965,290.978 247.246,290.24 247.779,288.232 		"/>
	</g>
</g>
<g id="Layer_2_1_" display="none">
	<g display="inline">
		
			<polygon id="Yunlin_County_1_" fill="#FFD522" stroke="#D64949" stroke-width="0.25" stroke-linecap="round" stroke-linejoin="round" points="
			402.039,298.928 397.535,299.411 393.828,300.544 390.655,299.152 388.492,296.598 388.996,293.456 390.035,290.643 
			389.472,286.464 390.035,282.546 391.127,279.991 390.092,276.023 389.53,276.407 382.994,275.113 379.819,275.157 
			373.188,271.872 362.438,270.663 356.112,268.243 352.476,267.249 348.362,267.032 336.371,268.458 332.228,266.068 
			332.226,266.066 331.765,266.948 328.722,269.282 328.299,270.111 327.74,271.598 324.377,276.04 323.69,277.671 322.418,282.462 
			321.737,287.934 319.36,292.113 317.836,297.462 317.444,304.157 317.562,313.124 315.062,315.93 315.578,315.898 
			315.658,315.839 321.41,315.195 325.944,317.749 329.233,317.784 331.397,316.07 332.315,313.387 333.444,311.77 336.351,311.314 
			340.144,308.21 342.574,306.917 344.649,304.848 353.541,299.704 357.457,298.635 364.332,297.344 368.097,297.146 
			370.972,299.671 373.701,302.874 380.578,305.396 382.592,305.105 387.127,303.812 389.707,305.622 391.011,307.79 
			394.449,307.435 400.853,306.141 402.985,305.43 402.985,303.555 403.194,300.835 403.459,300.863 		"/>
		
			<polygon id="Taichung_1_" fill="#FFD522" stroke="#D64949" stroke-width="0.25" stroke-linecap="round" stroke-linejoin="round" points="
			502.968,179.561 500.298,179.561 497.688,180.796 495.554,181.125 493.524,179.736 491.132,178.348 488.448,177.762 
			487.653,175.743 488.026,172.706 486.034,172.161 484.489,171.747 478.724,172.29 478.302,172.585 476.272,174.005 
			475.288,177.064 472.632,178.171 469.728,178.107 467.416,179.736 464.925,182.145 461.726,183.902 455.403,188.936 
			451.644,190.471 446.828,193.055 443.862,191.882 441.153,188.866 437.853,187.542 432.481,187.137 429.472,188.936 429,192.943 
			426.153,194.484 419.511,194.831 413.192,191.188 409.631,190.54 405.601,188.583 397.383,182.514 393.959,179.52 
			391.375,176.784 386.347,169.014 379.103,177.055 377.28,180.053 375.74,185.46 370.666,194.273 369.183,200.988 367.967,204.48 
			366.17,205.986 365.761,207.782 365.424,208.184 365.42,208.189 368.601,209.227 370.78,211.13 372.233,214.594 372.795,218.734 
			375.242,221.702 381.726,223.605 384.074,225.555 385.832,228.282 386.918,230.45 386.942,232.611 387.617,234.445 
			389.942,234.859 392.92,236.807 392.931,237.568 395.233,237.65 405.039,239.034 407.332,238.667 410.041,236.07 414.17,228.217 
			416.183,223.605 419.674,221.936 425.194,222.743 428.478,222.585 431.625,218.409 433.261,217.368 438.16,221.007 
			440.054,220.512 441.483,217.542 444.037,215.398 447.651,215.464 450.377,214.423 454.688,210.264 457.448,208.706 
			459.856,208.25 464.673,205.717 468.046,205.585 471.446,205.04 477.511,202.641 480.06,202.464 482.625,203.051 489.909,203.725 
			489.916,203.725 491.44,202.635 492.108,201.527 493.97,200.555 495.628,198.52 496.339,195.704 497.978,193.014 502.101,190.413 
			503.38,187.048 503.616,184.77 506.146,182.122 		"/>
		
			<polygon id="Nantou_County_1_" fill="#FFD522" stroke="#D64949" stroke-width="0.25" stroke-linecap="round" stroke-linejoin="round" points="
			487.968,210.438 490.788,209.116 490.655,207.146 489.909,203.725 482.625,203.051 480.06,202.464 477.511,202.641 
			471.446,205.04 468.046,205.585 464.673,205.717 459.856,208.25 457.448,208.706 454.688,210.264 450.377,214.423 
			447.651,215.464 444.037,215.398 441.483,217.542 440.054,220.512 438.16,221.007 433.261,217.368 431.625,218.409 
			428.478,222.585 425.194,222.743 419.674,221.936 416.183,223.605 414.17,228.217 410.041,236.07 407.332,238.667 
			405.039,239.034 395.233,237.65 392.931,237.568 392.944,239.532 390.61,240.355 389.942,241.956 390.256,244.165 
			389.151,246.628 388.261,249.589 388.203,252.684 387.574,256.29 387.097,263.596 388.203,267.032 390.194,268.846 
			392.315,269.624 395.353,271.161 394.84,273.081 392.746,273.926 391.367,275.157 390.092,276.023 391.127,279.991 
			390.035,282.546 389.472,286.464 390.035,290.643 388.996,293.456 388.492,296.598 390.655,299.152 393.828,300.544 
			397.535,299.411 402.039,298.928 403.459,300.863 406.783,301.225 410.457,302.648 412.709,303.296 415.524,304.812 
			415.319,307.693 413.688,310.505 414.371,313.124 415.819,316.682 416.028,319.852 416.625,321.954 420.772,322.693 
			434.733,322.792 435.224,322.911 437.608,323.469 440.78,324.698 443.062,327.863 443.42,328.96 446.709,327.089 448.383,325.54 
			447.457,322.157 448.289,320.71 449.097,318.493 451.929,316.402 455.96,315.499 459.991,315.37 462.88,312.782 463.62,308.126 
			465.772,305.325 469.948,303.812 472.382,302.085 473.272,299.327 475.003,292.423 475.679,287.872 475.166,283.96 
			474.517,280.984 472.796,278.784 471.625,276.598 474.728,271.482 474.847,269.45 476.233,265.605 478.325,260.982 
			480.007,256.204 480.851,250.782 481.185,246.65 480.222,244.204 479.081,242.387 480.386,238.234 483.142,232.415 
			487.513,226.723 487.653,224.645 486.847,222.157 484.015,220.313 482.46,218.648 482.319,213.21 484.335,211.652 		"/>
		
			<polygon id="Miaoli_County_1_" fill="#FFD522" stroke="#D64949" stroke-width="0.25" stroke-linecap="round" stroke-linejoin="round" points="
			477.952,169.928 475.478,165.667 473.671,163.911 472.952,161.501 470.226,159.325 463.37,161.063 460.776,160.805 
			457.062,161.044 452.87,162.195 450.636,161.654 451.136,158.895 451.808,156.352 451.291,154.202 450.756,152.618 
			451.291,150.896 451.722,149.027 451.912,146.9 451.483,144.029 449.392,142.204 442.752,139.073 439.478,136.635 
			437.371,134.204 434.949,128.163 434.847,128.29 432.332,128.895 429.949,127.939 428.463,125.872 426.153,124.458 
			422.403,122.997 422.394,122.995 422.203,123.708 420.242,124.693 419.785,125.695 418.783,128.825 416.752,130.878 
			415.269,132.896 415.793,135.887 411.871,135.141 408.828,135.943 406.315,137.801 404.028,140.188 403.285,141.523 
			402.664,142.962 401.625,144.118 397.938,145.207 397.097,146.671 396.222,150.079 393,155.771 391.799,158.818 391.319,162.416 
			390.306,164.62 386.347,169.014 386.347,169.014 391.375,176.784 393.959,179.52 397.383,182.514 405.601,188.583 409.631,190.54 
			413.192,191.188 419.511,194.831 426.153,194.484 429,192.943 429.472,188.936 432.481,187.137 437.853,187.542 441.153,188.866 
			443.862,191.882 446.828,193.055 451.644,190.471 455.403,188.936 461.726,183.902 464.925,182.145 467.416,179.736 
			469.728,178.107 472.632,178.171 475.288,177.064 476.272,174.005 478.302,172.585 		"/>
		
			<polygon id="Changhua_County_1_" fill="#FFD522" stroke="#D64949" stroke-width="0.25" stroke-linecap="round" stroke-linejoin="round" points="
			392.315,269.624 390.194,268.846 388.203,267.032 387.097,263.596 387.574,256.29 388.203,252.684 388.261,249.589 
			389.151,246.628 390.256,244.165 389.942,241.956 390.61,240.355 392.944,239.532 392.931,237.568 392.92,236.807 
			389.942,234.859 387.617,234.445 386.942,232.611 386.918,230.45 385.832,228.282 384.074,225.555 381.726,223.605 
			375.242,221.702 372.795,218.734 372.233,214.594 370.78,211.13 368.601,209.227 365.42,208.189 359.24,215.419 357.769,216.82 
			357.276,218.335 356.953,223.844 356.31,225.503 353.508,227.702 352.867,229.21 352.526,230.82 351.674,231.616 350.485,232.189 
			349.131,233.104 347.485,234.745 346.015,237.298 342.867,246.087 340.625,250.316 339.153,254.542 338.035,256.098 
			334.17,259.801 333.517,261.421 332.627,265.29 332.226,266.066 332.228,266.068 336.371,268.458 348.362,267.032 
			352.476,267.249 356.112,268.243 362.438,270.663 373.188,271.872 379.819,275.157 382.994,275.113 389.53,276.407 
			390.092,276.023 391.367,275.157 392.746,273.926 394.84,273.081 395.353,271.161 		"/>
	</g>
</g>
<g id="Layer_3" display="none">
	<g display="inline">
		<path id="Tainan" fill="#FFD522" stroke="#D64949" stroke-width="0.25" stroke-linecap="round" stroke-linejoin="round" d="
			M183.782,210.621l-0.479-0.66l-0.387,0.012l-0.15,0.707l0.922,2.254l1.225,1.111l0.34-0.67l0.07-0.527l-1.18-1.211
			L183.782,210.621z M190.889,179.094l0.385-4.367l-0.279-0.098l-0.34,5.754l0.059,0.059L190.889,179.094z M189.733,186.918
			l-0.092-0.984l-0.293,0.039l-1.973,5.363h0.035L189.733,186.918z M267.857,184.816l-2.018-0.617l-2.729,0.355l-2.932,1.324
			l-2.05-0.031l-2.457-1.906l-0.861-2.484l0.949-7.742l-0.533-4.102l-5.396-5.52l-0.947-2.777l-1.127-2.293l-2.195-1.324
			l-3.91-1.293l-4.627,0.258l-8.299,1.553l-4.24,1.904l-3.348,2.488l-2.549,2.615l-3.619,2.811l-3.141,1.936l-1.365,2.709
			l-3.406,1.52l-3.943-1.004l-4.831-0.706l-2.861-1.082l-0.865,2.219l2.037,1.359l-1.4,0.355l-0.865,0.941l-1.844,4.891
			l-0.256,1.227l0.264,1.25l-1.24,1.438l-0.758,2.027l-0.508,1.607l0.748,1.756l0.443,2.137l-0.725,1.383l-1.48,0.496l-1.367,0.773
			l-0.373,2.186l1.529,1.748l2.322,2.008l0.42,1.434l-4.271,0.037v1.066l5.102,1.275l0.781,0.857l-0.572,1.65l-1.68,0.539
			l-2.031,0.271l-1.6,0.83l-0.641,1.262l-0.361,1.867l0.396,1.889l1.586,1.369l1.494-0.395l1.016-1.578l1.25-1.121l2.215,0.963
			l0.445,1.338l-0.27,3.824l0.713,1.215l1.809,0.078l0.969-1.465l0.57-1.844l0.666-1.016l3.453,0.494l0.586,2.859l-1.447,3.311
			l-2.592,1.844l2.123,2.141l0.994,1.977l0.523,3.422v0.004l3.363-2.016l0.074,0.24l2.164,4.732l2.607,1.32l8.537,1.223l4.506-0.484
			l4.598,0.547l2.281-0.805l1.926-1.414l3.527-1.416l3.439-2.414l1.303-2.994l1.633-2.865l2.873-3.832l3.352-3.51l3.527-2.934
			l4.061-3.961l3.525-4.543l5.455-9.281l5.69-8.256l1.246-3.607L267.857,184.816z M186.209,194.855l-0.117-0.076l-2.17,7.283
			l0.033,0.076l1.588-3.814l0.129-0.652l0.746-2.799L186.209,194.855z"/>
		
			<path id="Pingtung_County" fill="#FFD522" stroke="#D64949" stroke-width="0.25" stroke-linecap="round" stroke-linejoin="round" d="
			M306.273,250.004l-2.902-0.707l-0.416-2.637l-1.867-3.609l-0.029,0.008l-2.848-0.516l-2.34,0.129l-4.656,3.668l-3.199-3.023
			l-4.121-4.828l-3.941,0.965l-3.615,3.219l-7.145-3.605l-5.131,2.447l-3.469,3.857l-4.354,1.545l-9.725-0.576l-0.949,2.637
			l-0.711,3.922l-1.422,4.309l0.297,3.824l-0.059,5.174l-3.086,11.566l-0.088,3.885l1.512,4.078l0.209,4.494l-4.439,11.174
			l0.203,0.086l1.213,0.77l2.613,2.293l2.475,1.707l5.461,2.613l2.395,1.551l0.348,0.727l0.525,2.031l0.594,0.418l0.598,0.195
			l1.773,1.022l4.435,3.504l1.096,1.553l2.383,5.375l3.022,3.746l0.896,1.539l10.855,28.168l-0.304,1.642l-1.332,1.928l-0.313,1.721
			v5.854l-0.211,1.795l-0.035,1.098l0.246,1.34l3.013,5.022l-0.688,3.818l0.112,1.275l2.011,1.695l1.854,0.465l1.26-1.293
			l0.177-3.602l4.317,1.057l4.295,1.938l3.688,2.811l2.473,3.707l0.178-3.227l-0.771-4.98l-0.068-4.568l2.17-2.006l1.832-1.35
			l1.391-3.256l0.85-3.996l-0.465-28.158l-2.449,0.182l-5.57-2.563l-2.49-2.657l-1.778-3.235l-0.296-3.302l0.06-3.106l-1.69-2.439
			l-1.864-0.896l-1.481-2.115l0.295-2.502l1.125-2.114l2.905-1.731l1.363-2.082l-2.55-3.047l-1.422-2.728v-2.918l-0.564-3.884
			l-1.097-3.305l-0.685-3.564l0.445-8.027l1.662-4.077l2.016-3.599l1.304-3.599l2.935-2.44l4.181-0.897l2.605-1.48l5.311-2.246
			l1.096-2.701l0.088-2.825l1.512-7.523L306.273,250.004z M232.329,321.727l-0.113-0.303h-0.105l-0.176-0.26l-0.361,0.26h-1.121
			l-1.518,1.924l0.012,0.045l-0.748,1.443l0.445,1.686l0.012-0.02l0.012,0.115l1.645-1.429l0.91-0.724l0.188-0.172l1.471-0.996
			l-0.082-0.271l0.258-0.241L232.329,321.727z"/>
		
			<polygon id="Kaohsiung" fill="#FFD522" stroke="#D64949" stroke-width="0.25" stroke-linecap="round" stroke-linejoin="round" points="
			329.041,172.938 327.529,168.775 324.06,165.965 321.037,163.996 320.504,161.832 321.244,160.09 324.297,158.732 325.93,156.02 
			324.893,152.85 324.535,151.754 322.252,148.586 319.08,147.359 316.695,146.801 306.602,151.947 302.006,155.633 
			300.049,159.348 297.736,162.094 293.559,164.449 289.199,167.773 286.772,170.68 280.07,174.682 276.869,175.004 
			273.133,174.617 271.176,176.555 271.088,179.23 271.889,181.715 272.422,185.332 272.422,185.336 271.176,188.943 
			265.486,197.199 260.031,206.48 256.504,211.023 252.444,214.984 248.917,217.918 245.565,221.428 242.692,225.26 
			241.059,228.125 239.756,231.119 236.317,233.533 232.79,234.949 230.864,236.363 228.583,237.168 223.985,236.621 
			219.479,237.105 210.942,235.883 208.334,234.563 206.17,229.83 206.096,229.59 202.733,231.605 203.891,239.041 204.309,240.094 
			205.85,242.766 206.165,244.031 206.887,244.738 207.588,245.262 207.893,245.955 207.706,247.268 206.887,249.236 
			206.829,250.83 207.391,253.301 209.911,258.855 212.583,263.031 214.042,266.137 214.872,269.287 214.252,271.525 
			213.075,274.035 213.959,276.611 215.852,278.932 220.778,283.48 223.672,286.781 224.592,288.527 224.594,288.527 
			225.749,290.719 226.567,294.717 219.612,286.314 226.215,295.684 233.334,301.25 234.5,301.219 235.504,300.846 236.381,300.793 
			237.778,301.402 242.217,290.228 242.008,285.734 240.497,281.656 240.584,277.772 243.67,266.205 243.729,261.031 
			243.432,257.207 244.854,252.898 245.565,248.977 246.514,246.34 256.239,246.916 260.594,245.371 264.062,241.514 
			269.193,239.066 276.336,242.672 279.951,239.453 283.895,238.488 288.016,243.316 291.215,246.34 295.871,242.672 
			298.211,242.543 301.059,243.059 301.088,243.051 303.191,242.801 302.51,240.098 299.16,236.621 297.529,234.113 
			296.791,229.668 298.065,224.357 302.717,220.396 305.06,217.209 305.09,211.09 306.748,203.902 305.562,198.488 306.037,194.746 
			310.068,192.555 311.522,189.879 310.305,186.621 310.779,183.492 315.02,180.75 317.184,178.619 320.711,176.393 
			329.234,174.305 		"/>
		
			<path id="Chiayi_County" fill="#FFD522" stroke="#D64949" stroke-width="0.25" stroke-linecap="round" stroke-linejoin="round" d="
			M195.987,163.926l0.27-1.004l-0.49,0.205l-1.096,2.051l-0.117,0.994l0.525-0.619L195.987,163.926z M316.205,146.684l-13.963-0.102
			l-4.148-0.74l-0.594-2.1l-0.209-3.172l-1.449-3.555l-0.684-2.621l1.633-2.813l0.205-2.879l-2.816-1.518l-2.252-0.646l-3.674-1.426
			l-3.322-0.359l-0.268-0.029l-0.207,2.719v1.875l-2.133,0.713l-6.404,1.293l-3.438,0.355l-1.309-2.169l-2.578-1.81l-4.533,1.295
			l-2.018,0.289l-6.875-2.521l-2.729-3.201l-2.877-2.527l-3.764,0.197l-6.877,1.291l-3.914,1.07l-8.891,5.145l-2.078,2.068
			l-2.428,1.295l-3.795,3.102l-2.906,0.455l-1.127,1.617l-0.918,2.684l-2.164,1.713l-3.291-0.035l-4.535-2.551l-5.75,0.645
			l-0.08,0.059l-0.516,0.029l0.109,4.758l4.664-0.293l-2.215,2.873l-0.49,1.381l-0.945,1.139l-0.221,0.936l1.656,0.814v1.07
			l-1.049,1.982l2.275,4.395l1.998,5.693l-2.928-0.023l-2.01,0.141l-1.346,3.074l0.023,1.801l1.342,0.063l1.012,0.25l1.207-0.873
			l0.455,1.729l-0.77-0.252l-1.777,0.791l-2.102,0.141l2.861,1.082l4.832,0.707l3.943,1.004l3.406-1.52l1.365-2.709l3.141-1.936
			l3.619-2.811l2.549-2.615l3.348-2.488l4.24-1.904l8.299-1.553l4.627-0.258l3.91,1.293l2.195,1.324l1.127,2.293l0.947,2.777
			l5.396,5.52l0.533,4.102l-0.949,7.742l0.861,2.484l2.457,1.906l2.049,0.031l2.934-1.324l2.729-0.355l2.016,0.617l4.564,0.52
			v-0.004l-0.533-3.617l-0.801-2.484l0.088-2.676l1.957-1.938l3.736,0.387l3.201-0.322l6.701-4.002l2.428-2.906l4.357-3.324
			l4.178-2.355l2.313-2.746l1.957-3.715l4.596-3.686l10.094-5.146L316.205,146.684z M250.071,149.686l-2.461,0.326l-3.703,1.484
			l-4.002-0.906l-3.826-2.453l-3.318-1.324l-0.475-3.07l2.045-2.234l5.07-0.871l4.299-0.387l3.053,1.162l2.223,1.195l1.334,2.168
			l1.395,3.715L250.071,149.686z M195.393,169.09l-0.35-0.293l-0.572,0.832l-0.514,1.266l-1.283,1.689l0.197,0.596l0.969-0.725
			l0.83-1.729l0.781-1.049L195.393,169.09z M197.706,160.654l0.045-0.014l0.246-0.598l-0.035-1.57l-0.256-0.23V160.654z
			 M197.809,155.146l0.279,1.102l0.07-0.166l0.047,0.189l0.281-0.914l-0.049-0.014l0.012-0.02L197.809,155.146z M196.805,151.625
			l0.141,0.229l0.561,0.928l0.279-0.752l-0.115-0.045l0.035-0.131L196.805,151.625z"/>
		
			<polygon id="Chiayi_City" fill="#FFD522" stroke="#D64949" stroke-width="0.25" stroke-linecap="round" stroke-linejoin="round" points="
			250.309,144.775 248.975,142.607 246.752,141.412 243.7,140.25 239.401,140.637 234.331,141.508 232.286,143.742 232.76,146.813 
			236.079,148.137 239.905,150.59 243.907,151.496 247.61,150.012 250.071,149.686 251.704,148.49 		"/>
	</g>
</g>
<g id="Layer_4" display="none">
	<g display="inline">
		
			<path id="Taitung_County" fill="#FFD522" stroke="#D64949" stroke-width="0.25" stroke-linecap="round" stroke-linejoin="round" d="
			M289.727,343.316l0.035-0.594l-0.199-0.889l0.199-0.907l0.49-0.872l0.432-2.15l-0.396-1.049l-0.606-0.355l-5.486,0.406
			l-0.303,0.328l0.76,2.301l1.537,2.676l1.438,0.574l0.244,0.305l0.487,0.111h0.945L289.727,343.316z M287.346,218.566l-1.908-0.551
			l-5.867,2.842l-2.104,2.975l0.918,3.746l0.326,3.744l-1.984,3.744l-1.836,2.842l-1.484,3.615l-1.303,4.582l-2.018,4.195
			l-2.605,7.226l-1.721,3.287l0.061,3.677l-0.504,3.385l-3.527,2.028l-4.477-0.646l-6.408-5.252l-5.006-8.74l-3.084-0.836
			l-3.441-0.484l-2.723-2.613l-3.352-1.551l-4.24-1.547l-2.756-4.42l-0.607-4.025l-8.521,2.09l-3.527,2.227l-2.166,2.129
			l-4.24,2.742l-0.473,3.129l1.215,3.258l-1.453,2.678l-4.031,2.19l-0.475,3.74l1.186,5.414l-1.656,7.188l-0.031,6.119l-2.344,3.188
			l-4.652,3.962l-1.273,5.311l0.738,4.443l1.633,2.508l3.348,3.479l0.684,2.701l-2.105,0.252l1.867,3.608l0.416,2.638l2.904,0.704
			l3.023,1.996l-1.512,7.522l-0.09,2.828l-1.094,2.699l-5.309,2.248l-2.609,1.479l-4.18,0.899l-2.934,2.438l-1.303,3.6l-2.016,3.598
			l-1.662,4.078l-0.445,8.025l0.684,3.563l1.096,3.306l0.564,3.883v2.918l1.422,2.728l2.549,3.047l-1.361,2.084l-2.906,1.732
			l-1.125,2.112l-0.297,2.504l1.482,2.113l1.865,0.897l1.691,2.438l-0.059,3.105l0.297,3.299l1.777,3.238l2.49,2.654l5.572,2.564
			l2.449-0.181l-0.141-7.989l0.91-8.789l0.748-3.104l5.203-9.117l2.615-9.141l1.027-6.699l1.773-3.262l4.391-5.477l1.422-2.75
			l2.848-7.32l1.156-1.5l1.434-0.758l5.906-6.477l8.775-5.859l2.568-2.439l2.59-3.293l1.168-1.916l0.676-1.738l0.094-1.525
			l-0.348-3.42l0.254-1.438l1.799-2.074l7.572-6.424l0.701-1.482l5.602-8.078l1.158-3.213l1.606-7.125l2.614-4.603l0.91-3.166
			l0.573-1.236l1.152-1.199l2.612-1.902l1.136-1.16l2.647-5.434l0.537-5.266l-0.07-5.535l0.793-6.219l1.132-3.352l1.438-2.664
			l3.848-5.133l1.227-2.656L287.346,218.566z"/>
		
			<polygon id="Hualien_County" fill="#FFD522" stroke="#D64949" stroke-width="0.25" stroke-linecap="round" stroke-linejoin="round" points="
			329.289,80.912 328.902,80.105 328.414,79.299 328.051,78.889 328.051,78.887 327.459,78.871 321.389,77.961 311.297,71.934 
			309.219,72.408 307.953,75.662 305.264,78.135 301.699,78.115 297.201,76.398 288.98,74.316 285.438,72.602 284.076,71.498 
			281.547,74.146 281.311,76.424 280.031,79.787 275.908,82.389 274.27,85.076 273.559,87.895 271.9,89.93 270.039,90.904 
			269.371,92.01 267.846,93.1 267.84,93.1 268.586,96.52 268.719,98.49 265.898,99.813 262.266,101.025 260.25,102.584 
			260.391,108.023 261.945,109.688 264.777,111.531 265.584,114.02 265.443,116.098 261.072,121.789 258.316,127.609 
			257.012,131.762 258.152,133.578 259.115,136.025 258.781,140.156 257.938,145.578 256.256,150.357 254.164,154.98 
			252.777,158.824 252.66,160.857 249.555,165.973 250.727,168.158 252.447,170.359 253.098,173.336 253.609,177.246 
			252.934,181.799 251.203,188.701 250.313,191.461 247.879,193.188 243.703,194.699 241.551,197.502 240.811,202.156 
			237.922,204.744 233.891,204.873 229.859,205.777 227.027,207.867 226.219,210.086 225.389,211.531 226.314,214.914 
			224.641,216.465 221.352,218.336 222.389,221.504 220.758,224.219 217.703,225.574 216.963,227.316 217.496,229.482 
			220.52,231.451 223.988,234.262 225.5,238.424 225.693,239.789 226.301,243.814 229.057,248.234 233.297,249.781 236.648,251.332 
			239.371,253.945 242.813,254.43 245.896,255.266 250.902,264.006 257.309,269.258 261.785,269.902 265.312,267.873 
			265.816,264.488 265.758,260.812 267.477,257.525 270.084,250.301 272.1,246.105 273.402,241.523 274.887,237.908 
			276.723,235.066 278.709,231.322 278.383,227.578 277.465,223.832 279.57,220.857 285.438,218.016 287.346,218.566 
			287.346,218.566 293.367,183.605 295.994,178.262 300.371,156.438 303.836,147.121 305.586,138.25 305.797,134.748 
			306.215,132.848 308.211,129.723 308.809,127.75 308.773,125.984 308.316,125.238 307.605,124.664 306.775,123.453 
			305.797,120.598 305.691,118.031 306.496,115.633 310.547,109.699 312.109,103.049 313.641,99.762 315.004,98.443 318.647,95.691 
			319.102,94.873 318.717,93.723 319.523,92.646 322.043,90.629 325.461,85.9 328.637,82.801 329.395,81.496 		"/>
	</g>
</g>
<g id="Layer_4_1_" display="none">
	<g display="inline">
		
			<path id="Taitung_County_1_" fill="#5EAD5E" stroke="#EFEFEF" stroke-width="0.25" stroke-linecap="round" stroke-linejoin="round" d="
			M312.922,375.854l0.04-0.679l-0.228-1.017l0.228-1.038l0.561-0.998l0.494-2.46l-0.453-1.2l-0.694-0.407l-6.277,0.465l-0.346,0.376
			l0.869,2.632l1.759,3.061l1.646,0.657l0.279,0.349l0.558,0.127h1.082L312.922,375.854z M310.197,233.121l-2.183-0.63l-6.713,3.251
			l-2.407,3.404l1.05,4.286l0.373,4.284l-2.27,4.283l-2.101,3.252l-1.698,4.136l-1.491,5.243l-2.308,4.799l-2.981,8.267
			l-1.969,3.761l0.069,4.207l-0.577,3.873l-4.036,2.321l-5.122-0.739l-7.331-6.009l-5.728-10l-3.529-0.956l-3.937-0.554
			l-3.116-2.989l-3.835-1.774l-4.851-1.77l-3.153-5.057l-0.695-4.605l-9.749,2.391l-4.035,2.548l-2.478,2.436l-4.851,3.137
			l-0.541,3.58l1.39,3.728l-1.662,3.064l-4.612,2.506l-0.544,4.279l1.357,6.194l-1.894,8.224l-0.036,7.001l-2.682,3.648L204,314.673
			l-1.456,6.076l0.845,5.084l1.868,2.869l3.831,3.981l0.783,3.09l-2.408,0.288l2.136,4.129l0.476,3.018l3.323,0.806l3.459,2.284
			l-1.73,8.607l-0.103,3.236l-1.252,3.088l-6.074,2.572l-2.985,1.692l-4.782,1.029l-3.357,2.789l-1.491,4.118l-2.307,4.116
			l-1.901,4.666l-0.509,9.182l0.783,4.077l1.254,3.782l0.645,4.443v3.339l1.627,3.121l2.916,3.486l-1.557,2.384l-3.325,1.982
			l-1.287,2.417l-0.34,2.865l1.696,2.418l2.134,1.027l1.935,2.79l-0.068,3.553l0.34,3.774l2.033,3.705l2.849,3.037l6.376,2.933
			l2.802-0.207l-0.161-9.141l1.041-10.056l0.856-3.552l5.953-10.431l2.992-10.458l1.175-7.665l2.029-3.732l5.024-6.266l1.627-3.146
			l3.259-8.376l1.322-1.716l1.641-0.867l6.757-7.41l10.04-6.704l2.938-2.791l2.963-3.768l1.336-2.192l0.774-1.989l0.107-1.745
			l-0.398-3.913l0.29-1.645l2.058-2.373l8.664-7.35l0.802-1.696l6.41-9.243l1.325-3.676l1.838-8.152l2.991-5.267l1.041-3.622
			l0.656-1.415l1.318-1.372l2.989-2.177l1.3-1.327l3.029-6.217l0.615-6.025l-0.081-6.333l0.907-7.116l1.295-3.835l1.646-3.048
			l4.402-5.873l1.404-3.039L310.197,233.121z"/>
		
			<polygon id="Hualien_County_1_" fill="#5EAD5E" stroke="#EFEFEF" stroke-width="0.25" stroke-linecap="round" stroke-linejoin="round" points="
			358.187,75.625 357.744,74.702 357.186,73.779 356.77,73.311 356.77,73.308 356.093,73.29 349.148,72.249 337.601,65.353 
			335.223,65.895 333.775,69.618 330.698,72.448 326.62,72.425 321.474,70.46 312.068,68.078 308.014,66.117 306.457,64.854 
			303.563,67.884 303.292,70.49 301.829,74.338 297.111,77.315 295.236,80.39 294.423,83.615 292.526,85.943 290.396,87.057 
			289.632,88.323 287.887,89.57 287.88,89.57 288.733,93.483 288.886,95.737 285.659,97.251 281.502,98.637 279.196,100.421 
			279.357,106.644 281.136,108.549 284.376,110.658 285.299,113.505 285.138,115.883 280.137,122.394 276.984,129.053 
			275.491,133.805 276.796,135.883 277.898,138.682 277.516,143.409 276.55,149.613 274.626,155.08 272.233,160.37 270.646,164.768 
			270.512,167.094 266.96,172.947 268.3,175.447 270.268,177.965 271.013,181.372 271.598,185.845 270.826,191.054 268.845,198.952 
			267.827,202.109 265.042,204.085 260.264,205.814 257.801,209.021 256.955,214.346 253.649,217.307 249.038,217.455 
			244.424,218.489 241.184,220.88 240.259,223.419 239.31,225.073 240.368,228.943 238.454,230.717 234.691,232.858 
			235.878,236.483 234.011,239.589 230.516,241.14 229.669,243.133 230.279,245.611 233.739,247.864 237.707,251.08 
			239.437,255.842 239.658,257.404 240.353,262.009 243.507,267.066 248.358,268.836 252.192,270.61 255.307,273.6 259.246,274.155 
			262.773,275.112 268.5,285.111 275.831,291.12 280.952,291.858 284.988,289.536 285.565,285.663 285.498,281.458 287.464,277.697 
			290.448,269.431 292.754,264.63 294.244,259.387 295.943,255.252 298.043,252 300.316,247.716 299.943,243.433 298.892,239.146 
			301.301,235.743 308.014,232.492 310.197,233.121 310.197,233.121 317.087,193.121 320.092,187.008 325.1,162.038 
			329.065,151.378 331.067,141.228 331.308,137.221 331.786,135.048 334.07,131.472 334.754,129.215 334.714,127.194 
			334.191,126.34 333.378,125.684 332.428,124.298 331.308,121.032 331.188,118.095 332.108,115.351 336.743,108.562 
			338.531,100.953 340.283,97.192 341.842,95.683 346.01,92.534 346.531,91.598 346.091,90.283 347.013,89.05 349.896,86.743 
			353.807,81.332 357.44,77.786 358.307,76.293 		"/>
	</g>
</g>
<g id="Layer_3_1_">
	<g>
		<path id="Tainan_1_" fill="#5EAD5E" stroke="#EFEFEF" stroke-width="0.25" stroke-linecap="round" stroke-linejoin="round" d="
			M172.06,190.432l-0.548-0.755l-0.443,0.014l-0.172,0.809l1.055,2.579l1.402,1.271l0.389-0.766l0.08-0.603l-1.35-1.385
			L172.06,190.432z M180.192,154.36l0.44-4.996l-0.319-0.112l-0.389,6.583l0.068,0.068L180.192,154.36z M178.869,163.312
			l-0.105-1.126l-0.335,0.045l-2.258,6.136h0.04L178.869,163.312z M268.255,160.907l-2.308-0.706l-3.122,0.406l-3.354,1.515
			l-2.345-0.035l-2.811-2.181l-0.985-2.842l1.085-8.858l-0.609-4.693l-6.174-6.316l-1.084-3.177l-1.289-2.624l-2.511-1.514
			l-4.474-1.48l-5.294,0.296l-9.495,1.777l-4.852,2.179l-3.83,2.846l-2.917,2.992l-4.14,3.216l-3.594,2.215l-1.562,3.1l-3.897,1.739
			l-4.512-1.149l-5.528-0.808l-3.274-1.238l-0.989,2.539l2.33,1.555l-1.602,0.406l-0.989,1.077l-2.11,5.596l-0.293,1.404l0.302,1.43
			l-1.419,1.645l-0.867,2.319l-0.582,1.839l0.856,2.009l0.507,2.445l-0.829,1.583L178,171.98l-1.564,0.884l-0.427,2.501l1.75,2
			l2.656,2.297l0.48,1.641l-4.887,0.042v1.22l5.837,1.459l0.894,0.981l-0.655,1.888l-1.922,0.617l-2.323,0.31l-1.831,0.95
			l-0.734,1.444l-0.413,2.136l0.453,2.162l1.815,1.566l1.709-0.451l1.163-1.806l1.43-1.283l2.534,1.102l0.509,1.531l-0.309,4.376
			l0.816,1.39l2.069,0.089l1.109-1.676l0.652-2.11l0.762-1.163l3.951,0.565l0.67,3.271l-1.655,3.788l-2.966,2.11l2.429,2.45
			l1.137,2.262l0.598,3.916v0.004l3.848-2.307l0.085,0.275l2.476,5.414l2.983,1.51l9.768,1.399l5.155-0.554l5.261,0.626l2.609-0.921
			l2.204-1.618l4.035-1.62l3.935-2.762l1.491-3.426l1.868-3.278l3.287-4.384l3.835-4.016l4.035-3.357l4.646-4.532l4.033-5.198
			l6.241-10.619l6.51-9.446l1.426-4.127L268.255,160.907z M174.837,172.393l-0.134-0.087l-2.483,8.333l0.038,0.087l1.817-4.364
			l0.147-0.746l0.854-3.202L174.837,172.393z"/>
		
			<path id="Pingtung_County_1_" fill="#5EAD5E" stroke="#EFEFEF" stroke-width="0.25" stroke-linecap="round" stroke-linejoin="round" d="
			M312.208,235.492l-3.321-0.809l-0.476-3.017l-2.136-4.13l-0.034,0.009l-3.258-0.59l-2.677,0.147l-5.327,4.197l-3.66-3.459
			l-4.715-5.523l-4.51,1.104l-4.136,3.683l-8.174-4.125l-5.87,2.8l-3.969,4.413l-4.981,1.768l-11.127-0.659l-1.086,3.017
			l-0.813,4.487l-1.627,4.93l0.34,4.375l-0.068,5.92l-3.531,13.234l-0.101,4.445l1.73,4.666l0.239,5.142l-5.079,12.784l0.232,0.098
			l1.388,0.881l2.99,2.623l2.832,1.953l6.248,2.99l2.74,1.774l0.398,0.831l0.601,2.324l0.679,0.478l0.684,0.223l2.029,1.169
			l5.074,4.009l1.254,1.777l2.726,6.15l3.457,4.286l1.026,1.761l12.419,32.228l-0.348,1.879l-1.524,2.206l-0.359,1.969v6.697
			l-0.241,2.054l-0.04,1.256l0.282,1.533l3.447,5.745l-0.788,4.369l0.128,1.459l2.301,1.94l2.122,0.532l1.441-1.479l0.202-4.121
			l4.94,1.209l4.914,2.217l4.22,3.216l2.829,4.241l0.203-3.692l-0.883-5.698l-0.078-5.227l2.483-2.295l2.096-1.544l1.591-3.725
			l0.972-4.572l-0.532-32.217l-2.802,0.208l-6.373-2.933l-2.849-3.04l-2.035-3.702l-0.339-3.778l0.068-3.554l-1.934-2.79
			l-2.133-1.025l-1.695-2.42l0.337-2.863l1.287-2.419l3.324-1.981l1.56-2.382l-2.917-3.486l-1.627-3.121v-3.339l-0.645-4.444
			l-1.255-3.781l-0.783-4.077l0.51-9.184l1.902-4.665l2.306-4.117l1.492-4.117l3.358-2.792l4.783-1.027l2.981-1.693l6.076-2.57
			l1.254-3.091l0.1-3.232l1.73-8.607L312.208,235.492z M227.605,317.553l-0.13-0.346h-0.12l-0.201-0.297l-0.413,0.297h-1.283
			l-1.737,2.201l0.013,0.051l-0.855,1.651l0.509,1.929l0.013-0.023l0.014,0.132l1.882-1.635l1.041-0.828l0.215-0.197l1.683-1.14
			l-0.094-0.309l0.296-0.276L227.605,317.553z"/>
		
			<polygon id="Kaohsiung_1_" fill="#5EAD5E" stroke="#EFEFEF" stroke-width="0.25" stroke-linecap="round" stroke-linejoin="round" points="
			338.258,147.317 336.528,142.554 332.559,139.339 329.1,137.086 328.49,134.61 329.337,132.617 332.83,131.063 334.698,127.961 
			333.511,124.334 333.102,123.08 330.49,119.455 326.861,118.051 324.132,117.412 312.584,123.301 307.325,127.518 
			305.086,131.768 302.44,134.91 297.66,137.605 292.673,141.408 289.895,144.734 282.228,149.313 278.565,149.681 274.29,149.238 
			272.051,151.456 271.951,154.516 272.867,157.359 273.477,161.498 273.477,161.502 272.051,165.629 265.542,175.076 
			259.3,185.694 255.264,190.892 250.619,195.424 246.584,198.781 242.749,202.797 239.462,207.181 237.593,210.459 
			236.102,213.885 232.168,216.647 228.132,218.267 225.928,219.884 223.319,220.806 218.058,220.18 212.903,220.734 
			203.135,219.335 200.151,217.825 197.675,212.41 197.591,212.135 193.743,214.441 195.068,222.949 195.546,224.153 
			197.309,227.211 197.669,228.658 198.496,229.467 199.297,230.067 199.647,230.859 199.433,232.362 198.496,234.613 
			198.429,236.437 199.072,239.264 201.955,245.619 205.013,250.397 206.682,253.95 207.632,257.555 206.922,260.116 
			205.576,262.987 206.587,265.935 208.753,268.589 214.389,273.794 217.7,277.57 218.752,279.568 218.755,279.568 220.076,282.076 
			221.012,286.65 213.054,277.036 220.609,287.756 228.755,294.125 230.089,294.089 231.237,293.662 232.241,293.602 
			233.839,294.299 238.918,281.515 238.679,276.373 236.95,271.707 237.05,267.262 240.58,254.028 240.648,248.109 240.308,243.733 
			241.935,238.803 242.749,234.317 243.835,231.3 254.962,231.959 259.944,230.191 263.913,225.778 269.783,222.977 
			277.955,227.103 282.092,223.42 286.603,222.316 291.318,227.84 294.979,231.3 300.306,227.103 302.983,226.956 306.242,227.546 
			306.275,227.537 308.682,227.25 307.902,224.158 304.069,220.18 302.204,217.31 301.359,212.225 302.816,206.148 308.139,201.616 
			310.82,197.97 310.854,190.968 312.751,182.744 311.395,176.55 311.938,172.269 316.55,169.762 318.213,166.7 316.82,162.973 
			317.363,159.393 322.215,156.255 324.691,153.817 328.727,151.27 338.479,148.882 		"/>
		
			<path id="Chiayi_County_1_" fill="#5EAD5E" stroke="#EFEFEF" stroke-width="0.25" stroke-linecap="round" stroke-linejoin="round" d="
			M186.024,137.006l0.309-1.149l-0.56,0.235l-1.254,2.346l-0.134,1.138l0.601-0.708L186.024,137.006z M323.571,117.279
			l-15.976-0.117l-4.746-0.847l-0.679-2.402l-0.239-3.63l-1.658-4.067l-0.782-2.999l1.868-3.218l0.235-3.294l-3.222-1.737
			l-2.577-0.739l-4.203-1.632l-3.801-0.411l-0.306-0.033l-0.237,3.111v2.145l-2.44,0.816l-7.327,1.479l-3.933,0.406l-1.497-2.481
			l-2.95-2.071l-5.187,1.482l-2.308,0.331l-7.866-2.884l-3.122-3.663l-3.292-2.891l-4.307,0.225l-7.868,1.477l-4.478,1.224
			l-10.172,5.887l-2.378,2.367l-2.778,1.482l-4.342,3.549l-3.325,0.521l-1.29,1.85l-1.05,3.071l-2.475,1.96l-3.765-0.04
			l-5.189-2.919l-6.579,0.738l-0.092,0.068l-0.59,0.033l0.125,5.444l5.336-0.335l-2.534,3.287l-0.561,1.58l-1.081,1.303
			l-0.253,1.071l1.894,0.931v1.224l-1.2,2.268l2.603,5.029l2.286,6.514l-3.35-0.026l-2.299,0.162l-1.54,3.517l0.026,2.061
			l1.536,0.072l1.158,0.286l1.381-0.999l0.521,1.978l-0.881-0.288l-2.033,0.905l-2.405,0.161l3.273,1.238l5.529,0.809l4.511,1.149
			l3.897-1.739l1.561-3.099l3.594-2.215l4.141-3.216l2.916-2.992l3.831-2.846l4.851-2.178l9.496-1.777l5.294-0.295l4.474,1.479
			l2.511,1.514l1.289,2.624l1.084,3.178l6.174,6.316l0.61,4.693l-1.086,8.858l0.985,2.842l2.811,2.181l2.344,0.035l3.356-1.515
			l3.122-0.406l2.306,0.706l5.222,0.595V161.5l-0.61-4.139l-0.916-2.842l0.101-3.062l2.239-2.217l4.275,0.443l3.663-0.368
			l7.667-4.579l2.778-3.325l4.986-3.803l4.78-2.694l2.647-3.142l2.239-4.25l5.258-4.217l11.549-5.888L323.571,117.279z
			 M247.904,120.714l-2.816,0.373l-4.236,1.698l-4.579-1.037l-4.377-2.806l-3.796-1.515l-0.544-3.512l2.34-2.556l5.801-0.996
			l4.919-0.443l3.493,1.33l2.544,1.367l1.526,2.481l1.596,4.251L247.904,120.714z M185.345,142.914l-0.401-0.335l-0.654,0.952
			l-0.588,1.449l-1.468,1.932l0.226,0.682l1.108-0.83l0.95-1.978l0.894-1.201L185.345,142.914z M187.991,133.262l0.051-0.016
			l0.282-0.684l-0.04-1.796l-0.293-0.263V133.262z M188.109,126.961l0.319,1.261l0.08-0.19l0.054,0.216l0.321-1.046l-0.056-0.016
			l0.014-0.022L188.109,126.961z M186.96,122.932l0.161,0.262l0.642,1.062l0.32-0.861l-0.132-0.051l0.04-0.15L186.96,122.932z"/>
		
			<polygon id="Chiayi_City_1_" fill="#5EAD5E" stroke="#EFEFEF" stroke-width="0.25" stroke-linecap="round" stroke-linejoin="round" points="
			248.177,115.095 246.65,112.614 244.107,111.247 240.615,109.917 235.696,110.36 229.896,111.356 227.556,113.913 
			228.098,117.426 231.895,118.941 236.273,121.748 240.852,122.785 245.088,121.087 247.904,120.714 249.773,119.345 		"/>
	</g>
</g>
<g id="Layer_2_4_" display="none">
	<g display="inline">
		
			<polygon id="Yunlin_County_3_" fill="#5EAD5E" stroke="#EFEFEF" stroke-width="0.25" stroke-linecap="round" stroke-linejoin="round" points="
			248.475,282.826 243.322,283.379 239.08,284.675 235.451,283.083 232.975,280.16 233.552,276.566 234.741,273.347 
			234.097,268.566 234.741,264.083 235.991,261.16 234.807,256.62 234.164,257.059 226.685,255.579 223.053,255.629 215.464,251.87 
			203.164,250.487 195.929,247.719 191.768,246.581 187.061,246.333 173.341,247.964 168.601,245.23 168.599,245.228 
			168.071,246.237 164.59,248.907 164.106,249.856 163.466,251.557 159.619,256.639 158.833,258.505 157.378,263.987 
			156.598,270.247 153.879,275.029 152.135,281.149 151.687,288.809 151.821,299.069 148.96,302.279 149.551,302.243 
			149.643,302.175 156.224,301.439 161.412,304.361 165.175,304.401 167.651,302.44 168.701,299.369 169.993,297.519 
			173.318,296.998 177.658,293.446 180.438,291.967 182.813,289.599 192.987,283.714 197.466,282.491 205.332,281.014 
			209.64,280.788 212.93,283.677 216.052,287.341 223.92,290.227 226.226,289.894 231.414,288.415 234.365,290.485 235.857,292.966 
			239.791,292.56 247.118,291.079 249.558,290.265 249.558,288.12 249.797,285.008 250.101,285.041 		"/>
		
			<polygon id="Taichung_3_" fill="#5EAD5E" stroke="#EFEFEF" stroke-width="0.25" stroke-linecap="round" stroke-linejoin="round" points="
			363.953,146.253 360.898,146.253 357.91,147.667 355.47,148.042 353.148,146.454 350.411,144.865 347.34,144.195 346.431,141.884 
			346.858,138.41 344.578,137.786 342.81,137.312 336.214,137.934 335.731,138.272 333.409,139.897 332.283,143.397 
			329.244,144.663 325.923,144.59 323.276,146.454 320.426,149.209 316.766,151.22 309.532,156.979 305.23,158.736 299.721,161.692 
			296.327,160.351 293.228,156.899 289.454,155.385 283.306,154.921 279.862,156.979 279.323,161.565 276.066,163.328 
			268.466,163.724 261.237,159.556 257.162,158.814 252.55,156.576 243.149,149.631 239.231,146.206 236.274,143.076 
			230.521,134.185 222.233,143.386 220.148,146.816 218.385,153.003 212.58,163.086 210.883,170.769 209.492,174.765 
			207.436,176.488 206.968,178.542 206.583,179.002 206.578,179.008 210.217,180.195 212.711,182.373 214.373,186.336 
			215.016,191.073 217.815,194.468 225.234,196.646 227.92,198.877 229.932,201.997 231.175,204.478 231.203,206.951 
			231.974,209.049 234.635,209.523 238.042,211.751 238.054,212.622 240.689,212.716 251.907,214.299 254.531,213.879 
			257.63,210.908 262.355,201.923 264.658,196.646 268.652,194.736 274.968,195.659 278.727,195.479 282.326,190.701 
			284.198,189.509 289.803,193.674 291.97,193.107 293.606,189.709 296.527,187.256 300.663,187.332 303.781,186.141 
			308.712,181.381 311.872,179.599 314.627,179.077 320.138,176.179 323.997,176.029 327.887,175.404 334.826,172.66 
			337.742,172.458 340.678,173.129 349.012,173.9 349.02,173.9 350.764,172.653 351.528,171.386 353.658,170.273 355.555,167.945 
			356.368,164.723 358.243,161.645 362.96,158.669 364.424,154.82 364.695,152.212 367.588,149.183 		"/>
		
			<polygon id="Nantou_County_3_" fill="#5EAD5E" stroke="#EFEFEF" stroke-width="0.25" stroke-linecap="round" stroke-linejoin="round" points="
			346.79,181.58 350.017,180.068 349.865,177.815 349.012,173.9 340.678,173.129 337.742,172.458 334.826,172.66 327.887,175.404 
			323.997,176.029 320.138,176.179 314.627,179.077 311.872,179.599 308.712,181.381 303.781,186.141 300.663,187.332 
			296.527,187.256 293.606,189.709 291.97,193.107 289.803,193.674 284.198,189.509 282.326,190.701 278.727,195.479 
			274.968,195.659 268.652,194.736 264.658,196.646 262.355,201.923 257.63,210.908 254.531,213.879 251.907,214.299 
			240.689,212.716 238.054,212.622 238.07,214.869 235.399,215.811 234.635,217.642 234.994,220.17 233.73,222.988 232.711,226.375 
			232.645,229.916 231.925,234.042 231.379,242.401 232.645,246.333 234.923,248.408 237.35,249.298 240.827,251.057 
			240.239,253.254 237.842,254.22 236.265,255.629 234.807,256.62 235.991,261.16 234.741,264.083 234.097,268.566 234.741,273.347 
			233.552,276.566 232.975,280.16 235.451,283.083 239.08,284.675 243.322,283.379 248.475,282.826 250.101,285.041 
			253.903,285.454 258.106,287.083 260.683,287.824 263.905,289.559 263.67,292.855 261.802,296.072 262.585,299.069 
			264.242,303.139 264.481,306.766 265.164,309.172 269.909,310.017 285.883,310.13 286.443,310.267 289.172,310.905 
			292.801,312.311 295.413,315.933 295.821,317.187 299.584,315.047 301.499,313.275 300.44,309.404 301.392,307.748 
			302.316,305.212 305.556,302.82 310.169,301.786 314.781,301.639 318.086,298.678 318.933,293.35 321.396,290.146 
			326.173,288.415 328.958,286.438 329.977,283.283 331.957,275.384 332.73,270.177 332.143,265.701 331.4,262.296 329.432,259.779 
			328.092,257.277 331.644,251.425 331.778,249.1 333.365,244.701 335.758,239.411 337.682,233.944 338.647,227.741 339.03,223.013 
			337.928,220.214 336.623,218.135 338.115,213.384 341.269,206.726 346.27,200.213 346.431,197.835 345.508,194.989 
			342.267,192.879 340.489,190.975 340.328,184.753 342.634,182.97 		"/>
		
			<polygon id="Miaoli_County_3_" fill="#5EAD5E" stroke="#EFEFEF" stroke-width="0.25" stroke-linecap="round" stroke-linejoin="round" points="
			335.331,135.231 332.5,130.357 330.433,128.347 329.61,125.59 326.491,123.1 318.647,125.088 315.68,124.793 311.429,125.068 
			306.634,126.384 304.077,125.765 304.649,122.608 305.418,119.698 304.827,117.238 304.215,115.426 304.827,113.457 
			305.32,111.318 305.538,108.885 305.047,105.6 302.654,103.511 295.057,99.929 291.311,97.139 288.9,94.358 286.129,87.446 
			286.012,87.591 283.135,88.283 280.409,87.191 278.708,84.825 276.066,83.208 271.775,81.535 271.764,81.533 271.546,82.35 
			269.303,83.477 268.78,84.623 267.633,88.203 265.309,90.553 263.612,92.862 264.212,96.283 259.725,95.43 256.243,96.348 
			253.368,98.473 250.751,101.204 249.901,102.733 249.19,104.379 248.002,105.701 243.782,106.947 242.821,108.623 241.82,112.521 
			238.134,119.034 236.76,122.521 236.21,126.636 235.051,129.158 230.521,134.185 230.521,134.185 236.274,143.076 
			239.231,146.206 243.149,149.631 252.55,156.576 257.162,158.814 261.237,159.556 268.466,163.724 276.066,163.328 
			279.323,161.565 279.862,156.979 283.306,154.921 289.454,155.385 293.228,156.899 296.327,160.351 299.721,161.692 
			305.23,158.736 309.532,156.979 316.766,151.22 320.426,149.209 323.276,146.454 325.923,144.59 329.244,144.663 332.283,143.397 
			333.409,139.897 335.731,138.272 		"/>
		
			<polygon id="Changhua_County_3_" fill="#5EAD5E" stroke="#EFEFEF" stroke-width="0.25" stroke-linecap="round" stroke-linejoin="round" points="
			237.35,249.298 234.923,248.408 232.645,246.333 231.379,242.401 231.925,234.042 232.645,229.916 232.711,226.375 
			233.73,222.988 234.994,220.17 234.635,217.642 235.399,215.811 238.07,214.869 238.054,212.622 238.042,211.751 234.635,209.523 
			231.974,209.049 231.203,206.951 231.175,204.478 229.932,201.997 227.92,198.877 225.234,196.646 217.815,194.468 
			215.016,191.073 214.373,186.336 212.711,182.373 210.217,180.195 206.578,179.008 199.507,187.28 197.823,188.883 
			197.26,190.617 196.89,196.919 196.154,198.818 192.949,201.334 192.215,203.059 191.826,204.901 190.851,205.812 189.49,206.468 
			187.941,207.514 186.058,209.392 184.375,212.313 180.774,222.369 178.208,227.208 176.525,232.042 175.245,233.822 
			170.824,238.059 170.076,239.913 169.058,244.34 168.599,245.228 168.601,245.23 173.341,247.964 187.061,246.333 
			191.768,246.581 195.929,247.719 203.164,250.487 215.464,251.87 223.053,255.629 226.685,255.579 234.164,257.059 
			234.807,256.62 236.265,255.629 237.842,254.22 240.239,253.254 240.827,251.057 		"/>
	</g>
</g>
<g id="Layer_2_2_" display="none">
	<g id="Layer_1_2_" display="inline">
		<g>
			
				<path id="Yilan_County_1_" fill="#5EAD5E" stroke="#EFEFEF" stroke-width="0.25" stroke-linecap="round" stroke-linejoin="round" d="
				M347.982,188.712l-0.485-0.697l-2.074-1.177l-3.714,0.775l-5.243,2.798l-2.29,1.52l-6.959,1.42l-0.883,1.848l1.56,2.218
				l-1.017,2.368l-2.867,1.825l-2.199,0.771l-2.308,1.219l-2.034,2.568l-1.924,3.14l-3.144,2.241l-3.868,1.198l-8.411,5.035
				l-8.141,3.312l-2.373,1.421l-2.959,2.489l-1.193,3.091l0.08,2.592l0.639,1.989l0.261,1.269l-2.434,1.716l-4.152,2.018
				l-3.082,2.165l-2.372,2.038l-3.055,1.146l-3.601,1.008l-1.914,0.534l-3.35,2.44l1.945,7.761l-1.407,2.389l-2.145,0.798
				l-2.007-0.402l-2.44,0.999l-0.342,0.939l-1.448,4.052l-0.842,2.961l0.359,2.735l-2.344,3.634l-8.731,8.843l-2.711,6.53
				l2.279,0.626l-0.427,3.473l0.91,2.313l3.071,0.67l2.738,1.591l2.321,1.589l2.44-0.376l2.988-1.415h3.055l3.635,2.932l1.558,1.263
				l4.054,1.96l9.406,2.387l5.146,1.967l4.077,0.02l3.076-2.829l1.449-3.721l2.378-0.548l11.546,6.894l6.945,1.046l0.677,0.016
				l-0.13-0.143l-0.653-1.032l0.317-0.858l0.626-0.827l0.351-1.019l0.322-3.967l0.503-2.013l0.802-1.406l0.722-1.672l-0.268-4.353
				l0.15-1.969l4.393-5.037l3.87-2.253l1.578-1.482l-0.375-1.745l-1.055-1.687l-0.483-1.864l0.282-1.535l3.725-2.118l0.523-3.526
				l-0.842-4.049l-1.64-3.131l1.158-0.829l1.618-0.525l1.922-0.201l2.033,0.208v-1.121l-4.784-0.878l-4.056-2.514l-2.139-3.889
				l-0.121-5.046l0.883-2.47l0.118-2.469l-2.056-9.655l-0.161-4.636l0.331-4.773l0.95-4.801l1.454-4.194l1.844-3.001l11.656-14.216
				l3.448-2.99l7.473-3.699v-0.003h0.007V188.712z M344.364,213.211l-1.205-0.206l-0.147-0.074l-0.067,0.038l-0.103-0.017
				l-0.094,0.132l-1.551,0.888l-0.617-0.206l0.802,1.296l0.054,0.007l0.241,0.382l0.843,0.478l2.389,0.08l0.456-1.454l-0.404-0.392
				L344.364,213.211z"/>
			
				<polygon id="Taoyuan_City_1_" fill="#5EAD5E" stroke="#EFEFEF" stroke-width="0.25" stroke-linecap="round" stroke-linejoin="round" points="
				267.742,244.036 266.209,240.635 260.629,235.359 259.764,231.872 259.264,228.634 261.217,226.297 262.12,223.037 
				256.875,215.338 253.727,214.091 249.099,214.337 245.894,212.549 246.741,208.357 246.107,205.166 242.763,201.977 
				242.086,198.807 242.763,195.192 242.628,191.326 244.935,188.811 253.073,186.416 255.179,184.245 255.788,181.624 
				255.492,179.103 252.287,174.438 249.641,173.038 247.108,172.438 245.113,170.64 242.152,168.746 238.244,166.848 
				235.599,163.972 223.053,166.243 217.471,168.253 214.669,169.78 212.358,171.817 209.677,173.496 198.177,177.278 
				193.69,181.078 189.352,186.25 183.799,195.103 185.786,195.8 194.288,195.192 197.171,197.138 199.666,202.552 202.787,203.771 
				205.483,204.549 208.032,205.768 212.306,207.162 214.546,209.756 213.841,213.419 215.996,215.736 220.083,217.032 
				222.685,218.925 224.645,220.869 227.029,221.318 229.426,221.117 231.547,223.307 233.172,226.145 235.889,227.49 
				238.023,229.135 238.244,232.272 239.23,236.804 238.056,241.634 235.174,245.689 235.531,248.404 238.72,250.86 
				242.584,253.178 246.043,253.774 248.555,255.567 253.1,258.152 256.084,259.493 256.426,258.554 258.866,257.556 
				260.873,257.958 263.018,257.16 264.426,254.771 262.479,247.01 265.829,244.57 			"/>
			
				<polygon id="Taipei_1_" fill="#5EAD5E" stroke="#EFEFEF" stroke-width="0.25" stroke-linecap="round" stroke-linejoin="round" points="
				293.628,179.979 290.763,178.368 290.647,175.186 291.662,171.067 290.647,168.295 288.22,166.143 286.678,159.867 
				285.624,157.658 284.658,155.615 284.404,153.461 284.743,151.212 283.456,149.86 281.063,149.077 278.571,150.312 
				276.739,151.867 269.941,155.914 267.72,158.408 266.394,161.255 265.275,162.752 264.276,164.607 266.634,167.248 
				270.229,170.692 270.973,174.588 269.99,179.231 272.466,183.421 276.062,186.247 278.435,188.96 280.725,190.982 
				283.729,191.654 287.353,191.691 289.966,190.606 294.714,184.621 295.952,181.961 			"/>
			
				<path id="New_Taipei_City_1_" fill="#5EAD5E" stroke="#EFEFEF" stroke-width="0.25" stroke-linecap="round" stroke-linejoin="round" d="
				M349.825,183.266l-2.632-0.706l-2.241-0.236l-4.369,0.663l-1.316-0.603l-1.646-2.536l-1.52-5.423l-0.442-3.243l0.282-1.828
				l1.015-2.286l-2.018-1.282l-21.587-5.245l-0.185,7.457l0.105,1.89l2.308,2.415l-0.239,1.536l-1.578,1.16l-2.492,0.936
				l-3.209-0.411l-6.598-2.75l-1.864-1.33l-2.288-2.174l-1.782-2.172l-1.07-2.19l-1.78-2.305l-0.357-1.798l1.983-1.35l4.476-1.946
				l2.748-1.832l0.002-0.003l-1.437-1.01l-0.668-0.788l-0.054-1.365l0.628-1.109l0.657-0.804l0.075-0.551l-1.36-0.377l-1.925,0.223
				l-1.682,0.464l-0.733,0.309l-2.247-4.663l-6.248-8.82l-2.803-2.106l-6.743-0.795l-6.879,1.571l-5.992,3.057l-4.1,3.712
				l-1.989,3.648l-1.296,3.218l-0.497,0.577l-1.184,0.559l-1.137,0.945l-0.548,1.69l1.908,1.196l3.62,3.667l2.257,3.547
				l-2.163,0.879l-0.975-0.968l-0.762-1.716l-1.178-1.645l-2.188-0.731l-1.897,0.028l-1.414,0.25l-1.147,0.574l-3.848,3.203
				l-2.963,1.167l-7.022,1.266l-0.009,0.002l2.646,2.876l3.908,1.897l2.961,1.895l1.993,1.796l2.534,0.601l2.646,1.399l3.204,4.666
				l0.298,2.52l-0.61,2.621l-2.105,2.171l-8.138,2.394l-2.307,2.515l0.134,3.867l-0.677,3.615l0.677,3.17l3.344,3.189l0.635,3.191
				l-0.846,4.192l3.204,1.788l4.628-0.246l3.149,1.247l5.245,7.7l-0.903,3.262l-1.954,2.337l0.501,3.238l0.865,3.486l5.58,5.275
				l1.533,3.402l3.602-1.008l3.055-1.147l2.373-2.037l3.08-2.166l4.153-2.019l2.434-1.716l-0.263-1.268l-0.638-1.988l-0.082-2.593
				l1.193-3.091l2.959-2.489l2.372-1.421l8.143-3.313l8.41-5.034l3.868-1.198l3.144-2.241l1.924-3.14l2.034-2.568l2.307-1.22
				l2.2-0.771l2.867-1.824l1.017-2.369l-1.56-2.217l0.883-1.848l6.959-1.421l2.291-1.52l5.242-2.797l3.714-0.777l2.074,1.178
				l0.485,0.697v0.002l5.423-2.687l-1.256-1.592L349.825,183.266z M294.714,184.621l-4.749,5.983l-2.61,1.086l-3.627-0.038
				l-3.003-0.673l-2.291-2.02l-2.371-2.713l-3.598-2.827l-2.476-4.19l0.983-4.644l-0.744-3.895l-3.596-3.444l-2.358-2.642
				l0.999-1.855l1.12-1.497l1.325-2.847l2.221-2.494l6.796-4.046l1.835-1.555l2.492-1.235l2.393,0.785l1.287,1.352l-0.34,2.249
				l0.255,2.154l0.965,2.043l1.055,2.21l1.544,6.275l2.427,2.152l1.014,2.773l-1.014,4.119l0.116,3.182l2.867,1.611l2.322,1.982
				L294.714,184.621z"/>
			
				<polygon id="Keelung_1_" fill="#5EAD5E" stroke="#EFEFEF" stroke-width="0.25" stroke-linecap="round" stroke-linejoin="round" points="
				313.269,169.887 313.164,167.997 313.349,160.54 306.337,158.837 303.934,157.952 302.891,156.92 302.408,156.285 
				301.537,155.672 301.534,155.675 298.786,157.507 294.31,159.454 292.326,160.804 292.681,162.602 294.46,164.907 
				295.53,167.097 297.311,169.268 299.599,171.442 301.463,172.773 308.06,175.523 311.269,175.935 313.758,174.998 
				315.336,173.838 315.575,172.303 			"/>
			
				<polygon id="Hsinchu_County_1_" fill="#5EAD5E" stroke="#EFEFEF" stroke-width="0.25" stroke-linecap="round" stroke-linejoin="round" points="
				256.084,259.493 253.1,258.152 248.555,255.567 246.043,253.774 242.584,253.178 238.72,250.86 235.531,248.404 235.174,245.689 
				238.056,241.634 239.23,236.804 238.244,232.272 238.023,229.135 235.889,227.49 233.172,226.145 231.547,223.307 
				229.426,221.117 227.029,221.318 224.645,220.869 222.685,218.925 220.083,217.032 215.996,215.736 213.841,213.419 
				214.546,209.756 212.306,207.162 208.032,205.768 205.483,204.549 202.787,203.771 199.666,202.552 197.171,197.138 
				194.288,195.192 185.786,195.8 183.799,195.103 183.799,195.106 182.514,197.157 181.113,200.965 180.698,202.797 
				180.832,203.565 179.256,204.099 177.601,205.448 176.307,207.237 175.784,209.055 175.41,211.452 174.476,212.844 
				174.436,212.894 179.62,215.137 189.033,218.127 192.407,219.922 194.823,222.313 195.976,224.601 195.366,226.898 
				193.9,227.743 190.668,228.29 187.033,229.783 184.876,232.474 183.468,236.009 181.918,237.906 184.689,244.818 187.1,247.6 
				190.848,250.389 198.442,253.971 200.836,256.06 201.326,259.345 201.108,261.779 200.616,263.918 200.005,265.886 
				200.616,267.699 201.207,270.159 200.438,273.069 199.866,276.226 202.423,276.845 207.218,275.529 211.469,275.254 
				214.436,275.549 222.279,273.56 225.4,276.052 226.223,278.807 228.289,280.818 231.12,285.692 231.52,288.733 232.002,288.394 
				238.6,287.773 240.367,288.246 243.078,281.717 251.809,272.874 254.154,269.241 253.793,266.505 254.636,263.544 			"/>
			
				<polygon id="Hsinchu_1_" fill="#5EAD5E" stroke="#EFEFEF" stroke-width="0.25" stroke-linecap="round" stroke-linejoin="round" points="
				194.823,222.313 192.407,219.922 189.033,218.127 179.62,215.137 174.436,212.894 174.436,212.896 173.355,214.042 
				172.42,215.897 173.102,217.296 173.515,218.44 173.543,219.501 173.088,220.478 171.723,222.339 168.255,229.435 
				167.553,231.993 167.564,231.995 171.855,233.669 174.499,235.285 176.197,237.651 178.923,238.744 181.801,238.051 
				181.918,237.906 183.468,236.009 184.876,232.474 187.033,229.783 190.668,228.29 193.9,227.743 195.366,226.898 
				195.976,224.601 			"/>
		</g>
	</g>
</g>
</svg>
